Bellota-Regular Italic.ufo
<glyph name="exclam" format="1">
  <advance width="253"/>
  <unicode hex="0021"/>
  <outline>
    <contour>
      <point x="130" y="139" type="line"/>
      <point x="219" y="704" type="line"/>
      <point x="149" y="704" type="line"/>
      <point x="78" y="139" type="line"/>
    </contour>
    <component base="period" xOffset="33"/>
  </outline>
</glyph>
<glyph name="quotedbl" format="1">
  <advance width="314"/>
  <unicode hex="0022"/>
  <outline>
    <contour>
      <point x="257" y="492" type="line"/>
      <point x="294" y="684" type="line"/>
      <point x="222" y="684" type="line"/>
      <point x="205" y="492" type="line"/>
    </contour>
    <contour>
      <point x="147" y="492" type="line"/>
      <point x="184" y="684" type="line"/>
      <point x="112" y="684" type="line"/>
      <point x="95" y="492" type="line"/>
    </contour>
  </outline>
</glyph>
<glyph name="numbersign" format="1">
  <advance width="596"/>
  <unicode hex="0023"/>
  <outline>
    <contour>
      <point x="168" y="30" type="line"/>
      <point x="190" y="184" type="line"/>
      <point x="359" y="184" type="line"/>
      <point x="337" y="30" type="line"/>
      <point x="391" y="30" type="line"/>
      <point x="413" y="184" type="line"/>
      <point x="527" y="184" type="line"/>
      <point x="534" y="236" type="line"/>
      <point x="420" y="236" type="line"/>
      <point x="448" y="432" type="line"/>
      <point x="562" y="432" type="line"/>
      <point x="569" y="484" type="line"/>
      <point x="455" y="484" type="line"/>
      <point x="476" y="637" type="line"/>
      <point x="420" y="637" type="line"/>
      <point x="399" y="484" type="line"/>
      <point x="232" y="484" type="line"/>
      <point x="253" y="637" type="line"/>
      <point x="197" y="637" type="line"/>
      <point x="176" y="484" type="line"/>
      <point x="62" y="484" type="line"/>
      <point x="55" y="432" type="line"/>
      <point x="169" y="432" type="line"/>
      <point x="141" y="236" type="line"/>
      <point x="27" y="236" type="line"/>
      <point x="20" y="184" type="line"/>
      <point x="136" y="184" type="line"/>
      <point x="114" y="30" type="line"/>
    </contour>
    <contour>
      <point x="225" y="432" type="line"/>
      <point x="392" y="432" type="line"/>
      <point x="364" y="236" type="line"/>
      <point x="197" y="236" type="line"/>
    </contour>
  </outline>
</glyph>
<glyph name="dollar" format="2">
	<advance width="571"/>
	<unicode hex="0024"/>
	<outline>
		<contour>
			<point x="208" y="-70" type="line"/>
			<point x="266" y="-70" type="line"/>
			<point x="277" y="-8" type="line"/>
			<point x="328" y="-4"/>
			<point x="378" y="9"/>
			<point x="420" y="37" type="curve" smooth="yes"/>
			<point x="464" y="70"/>
			<point x="489" y="112"/>
			<point x="496" y="167" type="curve" smooth="yes"/>
			<point x="498" y="178"/>
			<point x="499" y="188"/>
			<point x="499" y="198" type="curve" smooth="yes"/>
			<point x="499" y="242"/>
			<point x="483" y="275"/>
			<point x="450" y="302" type="curve" smooth="yes"/>
			<point x="419" y="331"/>
			<point x="387" y="344"/>
			<point x="326" y="364" type="curve"/>
			<point x="363" y="606" type="line"/>
			<point x="403" y="600"/>
			<point x="420" y="595"/>
			<point x="451" y="582" type="curve" smooth="yes"/>
			<point x="475" y="569"/>
			<point x="496" y="556"/>
			<point x="515" y="543" type="curve"/>
			<point x="554" y="589" type="line"/>
			<point x="530" y="607"/>
			<point x="500" y="624"/>
			<point x="470" y="635" type="curve" smooth="yes"/>
			<point x="442" y="648"/>
			<point x="410" y="658"/>
			<point x="367" y="662" type="curve"/>
			<point x="381" y="750" type="line"/>
			<point x="323" y="750" type="line"/>
			<point x="309" y="662" type="line"/>
			<point x="264" y="657"/>
			<point x="219" y="643"/>
			<point x="180" y="613" type="curve" smooth="yes"/>
			<point x="142" y="580"/>
			<point x="120" y="540"/>
			<point x="120" y="481" type="curve" smooth="yes"/>
			<point x="120" y="444"/>
			<point x="131" y="411"/>
			<point x="158" y="384" type="curve" smooth="yes"/>
			<point x="184" y="353"/>
			<point x="219" y="337"/>
			<point x="264" y="322" type="curve"/>
			<point x="222" y="47" type="line"/>
			<point x="161" y="54"/>
			<point x="112" y="78"/>
			<point x="63" y="111" type="curve"/>
			<point x="25" y="65" type="line"/>
			<point x="76" y="22"/>
			<point x="144" y="-3"/>
			<point x="219" y="-9" type="curve"/>
		</contour>
		<contour>
			<point x="280" y="46" type="curve"/>
			<point x="319" y="303" type="line"/>
			<point x="349" y="293"/>
			<point x="388" y="276"/>
			<point x="409" y="259" type="curve" smooth="yes"/>
			<point x="428" y="241"/>
			<point x="436" y="219"/>
			<point x="436" y="192" type="curve" smooth="yes"/>
			<point x="436" y="156"/>
			<point x="424" y="108"/>
			<point x="380" y="79" type="curve" smooth="yes"/>
			<point x="353" y="59"/>
			<point x="317" y="48"/>
		</contour>
		<contour>
			<point x="271" y="383" type="line"/>
			<point x="244" y="395"/>
			<point x="219" y="409"/>
			<point x="201" y="428" type="curve" smooth="yes"/>
			<point x="187" y="446"/>
			<point x="182" y="466"/>
			<point x="182" y="487" type="curve" smooth="yes"/>
			<point x="182" y="492"/>
			<point x="182" y="497"/>
			<point x="183" y="502" type="curve" smooth="yes"/>
			<point x="191" y="554"/>
			<point x="227" y="600"/>
			<point x="305" y="608" type="curve"/>
		</contour>
	</outline>
</glyph>
<glyph name="ampersand" format="1">
  <advance width="636"/>
  <unicode hex="0026"/>
  <outline>
    <contour>
      <point x="287" y="-10"/>
      <point x="369" y="20"/>
      <point x="428" y="78" type="curve"/>
      <point x="506" y="-3" type="line"/>
      <point x="546" y="38" type="line"/>
      <point x="467" y="122" type="line"/>
      <point x="511" y="179"/>
      <point x="537" y="245"/>
      <point x="547" y="313" type="curve" smooth="yes"/>
      <point x="553" y="357" type="line"/>
      <point x="500" y="357" type="line"/>
      <point x="495" y="319" type="line" smooth="yes"/>
      <point x="487" y="263"/>
      <point x="465" y="208"/>
      <point x="430" y="159" type="curve"/>
      <point x="386" y="207"/>
      <point x="301" y="299"/>
      <point x="261" y="339" type="curve" smooth="yes"/>
      <point x="230" y="373"/>
      <point x="197" y="410"/>
      <point x="197" y="464" type="curve" smooth="yes"/>
      <point x="197" y="470"/>
      <point x="197" y="476"/>
      <point x="198" y="483" type="curve" smooth="yes"/>
      <point x="206" y="540"/>
      <point x="261" y="579"/>
      <point x="315" y="579" type="curve" smooth="yes"/>
      <point x="354" y="579"/>
      <point x="389" y="567"/>
      <point x="407" y="515" type="curve"/>
      <point x="449" y="547" type="line"/>
      <point x="436" y="596"/>
      <point x="384" y="634"/>
      <point x="313" y="634" type="curve" smooth="yes"/>
      <point x="233" y="634"/>
      <point x="131" y="569"/>
      <point x="131" y="457" type="curve" smooth="yes"/>
      <point x="131" y="418"/>
      <point x="144" y="384"/>
      <point x="166" y="354" type="curve"/>
      <point x="56" y="300"/>
      <point x="26" y="200"/>
      <point x="26" y="140" type="curve" smooth="yes"/>
      <point x="26" y="36"/>
      <point x="112" y="-10"/>
      <point x="209" y="-10" type="curve" smooth="yes"/>
    </contour>
    <contour>
      <point x="144" y="42"/>
      <point x="84" y="72"/>
      <point x="84" y="145" type="curve" smooth="yes"/>
      <point x="84" y="213"/>
      <point x="127" y="281"/>
      <point x="200" y="313" type="curve"/>
      <point x="264" y="252" type="line"/>
      <point x="393" y="115" type="line"/>
      <point x="341" y="67"/>
      <point x="270" y="42"/>
      <point x="209" y="42" type="curve" smooth="yes"/>
    </contour>
  </outline>
</glyph>
<glyph name="quotesingle" format="1">
  <advance width="243"/>
  <unicode hex="0027"/>
  <outline>
    <contour>
      <point x="179" y="492" type="line"/>
      <point x="216" y="684" type="line"/>
      <point x="144" y="684" type="line"/>
      <point x="127" y="492" type="line"/>
    </contour>
  </outline>
</glyph>
<glyph name="parenleft" format="1">
  <advance width="370"/>
  <unicode hex="0028"/>
  <outline>
    <contour>
      <point x="256" y="-119" type="line"/>
      <point x="192" y="-78"/>
      <point x="146" y="-13"/>
      <point x="118" y="53" type="curve" smooth="yes"/>
      <point x="100" y="103"/>
      <point x="88" y="163"/>
      <point x="88" y="226" type="curve" smooth="yes"/>
      <point x="88" y="247"/>
      <point x="89" y="269"/>
      <point x="92" y="290" type="curve" smooth="yes"/>
      <point x="103" y="374"/>
      <point x="141" y="462"/>
      <point x="190" y="532" type="curve" smooth="yes"/>
      <point x="235" y="602"/>
      <point x="302" y="668"/>
      <point x="373" y="706" type="curve"/>
      <point x="351" y="751" type="line"/>
      <point x="259" y="704"/>
      <point x="183" y="633"/>
      <point x="129" y="556" type="curve" smooth="yes"/>
      <point x="76" y="475"/>
      <point x="44" y="386"/>
      <point x="32" y="297" type="curve" smooth="yes"/>
      <point x="28" y="269"/>
      <point x="26" y="242"/>
      <point x="26" y="215" type="curve" smooth="yes"/>
      <point x="26" y="152"/>
      <point x="37" y="93"/>
      <point x="60" y="38" type="curve" smooth="yes"/>
      <point x="91" y="-43"/>
      <point x="144" y="-111"/>
      <point x="226" y="-160" type="curve"/>
    </contour>
  </outline>
</glyph>
<glyph name="asterisk" format="1">
  <advance width="378"/>
  <unicode hex="002A"/>
  <outline>
    <contour>
      <point x="214" y="512" type="line"/>
      <point x="261" y="418" type="line"/>
      <point x="312" y="452" type="line"/>
      <point x="257" y="533" type="line"/>
      <point x="366" y="562" type="line"/>
      <point x="357" y="619" type="line"/>
      <point x="244" y="577" type="line"/>
      <point x="267" y="694" type="line"/>
      <point x="207" y="694" type="line"/>
      <point x="197" y="578" type="line"/>
      <point x="98" y="619" type="line"/>
      <point x="71" y="562" type="line"/>
      <point x="172" y="534" type="line"/>
      <point x="92" y="452" type="line"/>
      <point x="137" y="416" type="line"/>
    </contour>
  </outline>
</glyph>
<glyph name="plus" format="1">
  <advance width="432"/>
  <unicode hex="002B"/>
  <outline>
    <contour>
      <point x="209" y="107" type="line"/>
      <point x="232" y="268" type="line"/>
      <point x="390" y="268" type="line"/>
      <point x="397" y="319" type="line"/>
      <point x="239" y="319" type="line"/>
      <point x="261" y="479" type="line"/>
      <point x="205" y="479" type="line"/>
      <point x="183" y="319" type="line"/>
      <point x="25" y="319" type="line"/>
      <point x="18" y="268" type="line"/>
      <point x="176" y="268" type="line"/>
      <point x="153" y="107" type="line"/>
    </contour>
  </outline>
</glyph>
<glyph name="comma" format="1">
  <advance width="192"/>
  <unicode hex="002C"/>
  <outline>
    <contour>
      <point x="38" y="-83"/>
      <point x="57" y="-64"/>
      <point x="68" y="-44" type="curve" smooth="yes"/>
      <point x="78" y="-22"/>
      <point x="85" y="2"/>
      <point x="89" y="30" type="curve" smooth="yes"/>
      <point x="92" y="50" type="line" smooth="yes"/>
      <point x="94" y="66"/>
      <point x="85" y="85"/>
      <point x="61" y="85" type="curve" smooth="yes"/>
      <point x="43" y="85"/>
      <point x="30" y="74"/>
      <point x="28" y="56" type="curve" smooth="yes"/>
      <point x="24" y="22" type="line" smooth="yes"/>
      <point x="21" y="-1"/>
      <point x="17" y="-14"/>
      <point x="11" y="-25" type="curve" smooth="yes"/>
      <point x="5" y="-39"/>
      <point x="-7" y="-53"/>
      <point x="-21" y="-66" type="curve"/>
      <point x="11" y="-101" type="line"/>
    </contour>
  </outline>
</glyph>
<glyph name="hyphen" format="1">
  <advance width="436"/>
  <unicode hex="002D"/>
  <outline>
    <contour>
      <point x="355" y="277" type="line"/>
      <point x="363" y="334" type="line"/>
      <point x="66" y="334" type="line"/>
      <point x="58" y="277" type="line"/>
    </contour>
  </outline>
</glyph>
<glyph name="period" format="2">
	<advance width="221"/>
	<unicode hex="002E"/>
	<outline>
		<contour>
			<point x="80" y="-4" type="curve" smooth="yes"/>
			<point x="104" y="-4"/>
			<point x="125" y="16"/>
			<point x="125" y="40" type="curve" smooth="yes"/>
			<point x="125" y="63"/>
			<point x="108" y="81"/>
			<point x="84" y="81" type="curve" smooth="yes"/>
			<point x="61" y="81"/>
			<point x="40" y="60"/>
			<point x="40" y="35" type="curve" smooth="yes"/>
			<point x="40" y="13"/>
			<point x="57" y="-4"/>
		</contour>
	</outline>
</glyph>
<glyph name="slash" format="1">
  <advance width="342"/>
  <unicode hex="002F"/>
  <outline>
    <contour>
      <point x="34" y="-70" type="line"/>
      <point x="367" y="750" type="line"/>
      <point x="304" y="750" type="line"/>
      <point x="-30" y="-70" type="line"/>
    </contour>
  </outline>
</glyph>
<glyph name="zero" format="1">
  <advance width="654"/>
  <unicode hex="0030"/>
  <outline>
    <contour>
      <point x="449" y="-10"/>
      <point x="568" y="142"/>
      <point x="593" y="320" type="curve" smooth="yes"/>
      <point x="596" y="342"/>
      <point x="598" y="365"/>
      <point x="598" y="386" type="curve" smooth="yes"/>
      <point x="598" y="538"/>
      <point x="521" y="663"/>
      <point x="366" y="663" type="curve" smooth="yes"/>
      <point x="194" y="663"/>
      <point x="77" y="507"/>
      <point x="52" y="331" type="curve" smooth="yes"/>
      <point x="49" y="309"/>
      <point x="47" y="286"/>
      <point x="47" y="265" type="curve" smooth="yes"/>
      <point x="47" y="115"/>
      <point x="123" y="-10"/>
      <point x="279" y="-10" type="curve" smooth="yes"/>
    </contour>
    <contour>
      <point x="163" y="45"/>
      <point x="110" y="144"/>
      <point x="110" y="263" type="curve" smooth="yes"/>
      <point x="110" y="283"/>
      <point x="111" y="303"/>
      <point x="114" y="323" type="curve" smooth="yes"/>
      <point x="135" y="470"/>
      <point x="226" y="608"/>
      <point x="367" y="608" type="curve" smooth="yes"/>
      <point x="483" y="608"/>
      <point x="537" y="512"/>
      <point x="537" y="392" type="curve" smooth="yes"/>
      <point x="537" y="372"/>
      <point x="536" y="352"/>
      <point x="533" y="332" type="curve" smooth="yes"/>
      <point x="512" y="189"/>
      <point x="426" y="45"/>
      <point x="281" y="45" type="curve" smooth="yes"/>
    </contour>
  </outline>
</glyph>
<glyph name="one" format="2">
	<advance width="328"/>
	<unicode hex="0031"/>
	<outline>
		<contour>
			<point x="149" y="0" type="line"/>
			<point x="210" y="0" type="line"/>
			<point x="304" y="669" type="line"/>
			<point x="295" y="670" type="line"/>
			<point x="191" y="606"/>
			<point x="123" y="561"/>
			<point x="60" y="561" type="curve"/>
			<point x="69" y="509" type="line"/>
			<point x="129" y="509"/>
			<point x="178" y="532"/>
			<point x="230" y="572" type="curve"/>
		</contour>
	</outline>
</glyph>
<glyph name="two" format="1">
  <advance width="538"/>
  <unicode hex="0032"/>
  <outline>
    <contour>
      <point x="445" y="0" type="line"/>
      <point x="453" y="57" type="line"/>
      <point x="81" y="56" type="line"/>
      <point x="101" y="111"/>
      <point x="146" y="152"/>
      <point x="208" y="196" type="curve" smooth="yes"/>
      <point x="335" y="291"/>
      <point x="460" y="344"/>
      <point x="480" y="486" type="curve" smooth="yes"/>
      <point x="482" y="498"/>
      <point x="483" y="509"/>
      <point x="483" y="519" type="curve" smooth="yes"/>
      <point x="483" y="610"/>
      <point x="422" y="665"/>
      <point x="309" y="665" type="curve" smooth="yes"/>
      <point x="204" y="665"/>
      <point x="130" y="616"/>
      <point x="82" y="518" type="curve"/>
      <point x="126" y="492" type="line"/>
      <point x="160" y="570"/>
      <point x="227" y="615"/>
      <point x="309" y="615" type="curve" smooth="yes"/>
      <point x="383" y="615"/>
      <point x="427" y="576"/>
      <point x="427" y="516" type="curve" smooth="yes"/>
      <point x="427" y="400"/>
      <point x="308" y="335"/>
      <point x="219" y="275" type="curve" smooth="yes"/>
      <point x="109" y="199"/>
      <point x="26" y="124"/>
      <point x="11" y="15" type="curve" smooth="yes"/>
      <point x="9" y="0" type="line"/>
    </contour>
  </outline>
</glyph>
<glyph name="three" format="1">
  <advance width="514"/>
  <unicode hex="0033"/>
  <outline>
    <contour>
      <point x="333" y="-12"/>
      <point x="448" y="53"/>
      <point x="465" y="175" type="curve" smooth="yes"/>
      <point x="467" y="186"/>
      <point x="468" y="197"/>
      <point x="468" y="208" type="curve" smooth="yes"/>
      <point x="468" y="267"/>
      <point x="442" y="319"/>
      <point x="401" y="347" type="curve" smooth="yes"/>
      <point x="386" y="359"/>
      <point x="367" y="369"/>
      <point x="352" y="372" type="curve"/>
      <point x="427" y="394"/>
      <point x="479" y="468"/>
      <point x="479" y="537" type="curve" smooth="yes"/>
      <point x="479" y="619"/>
      <point x="401" y="672"/>
      <point x="298" y="672" type="curve" smooth="yes"/>
      <point x="236" y="672"/>
      <point x="191" y="652"/>
      <point x="136" y="619" type="curve" smooth="yes"/>
      <point x="127" y="612" type="line"/>
      <point x="149" y="563" type="line"/>
      <point x="202" y="596"/>
      <point x="250" y="614"/>
      <point x="299" y="614" type="curve" smooth="yes"/>
      <point x="359" y="614"/>
      <point x="414" y="585"/>
      <point x="414" y="530" type="curve" smooth="yes"/>
      <point x="414" y="456"/>
      <point x="333" y="392"/>
      <point x="266" y="392" type="curve" smooth="yes"/>
      <point x="159" y="392" type="line"/>
      <point x="151" y="336" type="line"/>
      <point x="263" y="336" type="line" smooth="yes"/>
      <point x="337" y="332"/>
      <point x="405" y="294"/>
      <point x="405" y="213" type="curve" smooth="yes"/>
      <point x="405" y="206"/>
      <point x="405" y="199"/>
      <point x="404" y="192" type="curve" smooth="yes"/>
      <point x="390" y="96"/>
      <point x="302" y="47"/>
      <point x="201" y="47" type="curve" smooth="yes"/>
      <point x="122" y="47"/>
      <point x="78" y="78"/>
      <point x="33" y="127" type="curve"/>
      <point x="-6" y="85" type="line"/>
      <point x="36" y="41"/>
      <point x="105" y="-12"/>
      <point x="214" y="-12" type="curve" smooth="yes"/>
    </contour>
  </outline>
</glyph>
<glyph name="four" format="2">
	<advance width="512"/>
	<unicode hex="0034"/>
	<outline>
		<contour>
			<point x="309" y="-3" type="line"/>
			<point x="371" y="-3" type="line"/>
			<point x="390" y="126" type="line"/>
			<point x="474" y="126" type="line"/>
			<point x="482" y="183" type="line"/>
			<point x="398" y="183" type="line"/>
			<point x="429" y="405" type="line"/>
			<point x="367" y="405" type="line"/>
			<point x="336" y="183" type="line"/>
			<point x="90" y="183" type="line"/>
			<point x="357" y="660" type="line"/>
			<point x="288" y="660" type="line"/>
			<point x="16" y="176" type="line"/>
			<point x="10" y="126" type="line"/>
			<point x="328" y="126" type="line"/>
		</contour>
	</outline>
</glyph>
<glyph name="five" format="1">
  <advance width="520"/>
  <unicode hex="0035"/>
  <outline>
    <contour>
      <point x="326" y="-6"/>
      <point x="436" y="85"/>
      <point x="455" y="219" type="curve" smooth="yes"/>
      <point x="457" y="231"/>
      <point x="458" y="243"/>
      <point x="458" y="255" type="curve" smooth="yes"/>
      <point x="458" y="370"/>
      <point x="372" y="440"/>
      <point x="235" y="440" type="curve" smooth="yes"/>
      <point x="214" y="440"/>
      <point x="191" y="438"/>
      <point x="148" y="432" type="curve"/>
      <point x="172" y="592" type="line"/>
      <point x="446" y="596" type="line"/>
      <point x="454" y="653" type="line"/>
      <point x="119" y="646" type="line"/>
      <point x="80" y="368" type="line"/>
      <point x="85" y="363" type="line"/>
      <point x="125" y="378"/>
      <point x="171" y="384"/>
      <point x="219" y="384" type="curve" smooth="yes"/>
      <point x="327" y="384"/>
      <point x="400" y="357"/>
      <point x="400" y="263" type="curve" smooth="yes"/>
      <point x="400" y="254"/>
      <point x="399" y="244"/>
      <point x="398" y="234" type="curve" smooth="yes"/>
      <point x="383" y="131"/>
      <point x="311" y="50"/>
      <point x="193" y="50" type="curve" smooth="yes"/>
      <point x="131" y="50"/>
      <point x="91" y="73"/>
      <point x="35" y="118" type="curve"/>
      <point x="18" y="67" type="line"/>
      <point x="42" y="41"/>
      <point x="111" y="-6"/>
      <point x="202" y="-6" type="curve" smooth="yes"/>
    </contour>
  </outline>
</glyph>
<glyph name="six" format="2">
	<advance width="543"/>
	<unicode hex="0036"/>
	<outline>
		<contour>
			<point x="243" y="-37" type="curve" smooth="yes"/>
			<point x="372" y="-37"/>
			<point x="485" y="63"/>
			<point x="502" y="186" type="curve" smooth="yes"/>
			<point x="504" y="197"/>
			<point x="504" y="208"/>
			<point x="504" y="219" type="curve" smooth="yes"/>
			<point x="504" y="331"/>
			<point x="420" y="419"/>
			<point x="303" y="419" type="curve" smooth="yes"/>
			<point x="238" y="419"/>
			<point x="166" y="391"/>
			<point x="108" y="322" type="curve"/>
			<point x="157" y="418"/>
			<point x="211" y="487"/>
			<point x="278" y="531" type="curve" smooth="yes"/>
			<point x="345" y="578"/>
			<point x="418" y="596"/>
			<point x="484" y="596" type="curve"/>
			<point x="488" y="649" type="line"/>
			<point x="376" y="649"/>
			<point x="272" y="604"/>
			<point x="188" y="526" type="curve" smooth="yes"/>
			<point x="107" y="447"/>
			<point x="52" y="344"/>
			<point x="38" y="245" type="curve" smooth="yes"/>
			<point x="36" y="228"/>
			<point x="34" y="211"/>
			<point x="34" y="195" type="curve" smooth="yes"/>
			<point x="34" y="61"/>
			<point x="114" y="-37"/>
		</contour>
		<contour>
			<point x="243" y="16" type="curve" smooth="yes"/>
			<point x="152" y="16"/>
			<point x="92" y="83"/>
			<point x="92" y="162" type="curve" smooth="yes"/>
			<point x="92" y="263"/>
			<point x="189" y="366"/>
			<point x="302" y="366" type="curve" smooth="yes"/>
			<point x="389" y="366"/>
			<point x="452" y="303"/>
			<point x="452" y="220" type="curve" smooth="yes"/>
			<point x="452" y="109"/>
			<point x="351" y="16"/>
		</contour>
	</outline>
</glyph>
<glyph name="seven" format="1">
  <advance width="487"/>
  <unicode hex="0037"/>
  <outline>
    <contour>
      <point x="148" y="0" type="line"/>
      <point x="493" y="645" type="line"/>
      <point x="494" y="653" type="line"/>
      <point x="76" y="648" type="line"/>
      <point x="68" y="592" type="line"/>
      <point x="407" y="596" type="line"/>
      <point x="84" y="0" type="line"/>
    </contour>
  </outline>
</glyph>
<glyph name="eight" format="2">
	<advance width="522"/>
	<unicode hex="0038"/>
	<outline>
		<contour>
			<point x="229" y="-16" type="curve" smooth="yes"/>
			<point x="356" y="-16"/>
			<point x="457" y="53"/>
			<point x="474" y="173" type="curve" smooth="yes"/>
			<point x="476" y="184"/>
			<point x="476" y="195"/>
			<point x="476" y="205" type="curve" smooth="yes"/>
			<point x="476" y="283"/>
			<point x="432" y="333"/>
			<point x="371" y="359" type="curve"/>
			<point x="421" y="388"/>
			<point x="484" y="441"/>
			<point x="484" y="523" type="curve" smooth="yes"/>
			<point x="484" y="605"/>
			<point x="413" y="666"/>
			<point x="313" y="666" type="curve" smooth="yes"/>
			<point x="202" y="666"/>
			<point x="108" y="591"/>
			<point x="108" y="483" type="curve" smooth="yes"/>
			<point x="108" y="436"/>
			<point x="130" y="399"/>
			<point x="172" y="374" type="curve"/>
			<point x="101" y="327"/>
			<point x="41" y="272"/>
			<point x="29" y="183" type="curve" smooth="yes"/>
			<point x="27" y="172"/>
			<point x="27" y="161"/>
			<point x="27" y="151" type="curve" smooth="yes"/>
			<point x="27" y="47"/>
			<point x="107" y="-16"/>
		</contour>
		<contour>
			<point x="228" y="38" type="curve" smooth="yes"/>
			<point x="139" y="38"/>
			<point x="88" y="81"/>
			<point x="88" y="154" type="curve" smooth="yes"/>
			<point x="88" y="162"/>
			<point x="89" y="170"/>
			<point x="90" y="178" type="curve" smooth="yes"/>
			<point x="99" y="241"/>
			<point x="133" y="277"/>
			<point x="219" y="342" type="curve" smooth="yes"/>
			<point x="226" y="348" type="line"/>
			<point x="247" y="342" type="line" smooth="yes"/>
			<point x="338" y="316"/>
			<point x="416" y="291"/>
			<point x="416" y="207" type="curve" smooth="yes"/>
			<point x="416" y="200"/>
			<point x="415" y="193"/>
			<point x="414" y="185" type="curve" smooth="yes"/>
			<point x="401" y="97"/>
			<point x="332" y="38"/>
		</contour>
		<contour>
			<point x="319" y="383" type="curve"/>
			<point x="307" y="386" type="line"/>
			<point x="242" y="407" type="line" smooth="yes"/>
			<point x="201" y="420"/>
			<point x="170" y="440"/>
			<point x="170" y="483" type="curve" smooth="yes"/>
			<point x="170" y="556"/>
			<point x="234" y="611"/>
			<point x="316" y="611" type="curve" smooth="yes"/>
			<point x="382" y="611"/>
			<point x="423" y="574"/>
			<point x="423" y="522" type="curve" smooth="yes"/>
			<point x="423" y="455"/>
			<point x="373" y="419"/>
		</contour>
	</outline>
</glyph>
<glyph name="nine" format="1">
  <advance width="570"/>
  <unicode hex="0039"/>
  <outline>
    <contour>
      <point x="189" y="-37"/>
      <point x="292" y="9"/>
      <point x="375" y="87" type="curve" smooth="yes"/>
      <point x="449" y="160"/>
      <point x="506" y="259"/>
      <point x="521" y="365" type="curve" smooth="yes"/>
      <point x="524" y="383"/>
      <point x="525" y="401"/>
      <point x="525" y="419" type="curve" smooth="yes"/>
      <point x="525" y="552"/>
      <point x="448" y="649"/>
      <point x="319" y="649" type="curve" smooth="yes"/>
      <point x="189" y="649"/>
      <point x="76" y="548"/>
      <point x="59" y="427" type="curve" smooth="yes"/>
      <point x="57" y="416"/>
      <point x="57" y="406"/>
      <point x="57" y="395" type="curve" smooth="yes"/>
      <point x="57" y="283"/>
      <point x="142" y="193"/>
      <point x="253" y="193" type="curve" smooth="yes"/>
      <point x="305" y="193"/>
      <point x="358" y="214"/>
      <point x="410" y="250" type="curve" smooth="yes"/>
      <point x="421" y="260"/>
      <point x="436" y="271"/>
      <point x="451" y="287" type="curve"/>
      <point x="414" y="212"/>
      <point x="362" y="139"/>
      <point x="288" y="88" type="curve" smooth="yes"/>
      <point x="221" y="39"/>
      <point x="147" y="16"/>
      <point x="77" y="16" type="curve"/>
      <point x="73" y="-37" type="line"/>
    </contour>
    <contour>
      <point x="169" y="246"/>
      <point x="109" y="312"/>
      <point x="109" y="395" type="curve" smooth="yes"/>
      <point x="109" y="511"/>
      <point x="215" y="596"/>
      <point x="317" y="596" type="curve" smooth="yes"/>
      <point x="404" y="596"/>
      <point x="469" y="534"/>
      <point x="469" y="452" type="curve" smooth="yes"/>
      <point x="469" y="348"/>
      <point x="371" y="246"/>
      <point x="258" y="246" type="curve" smooth="yes"/>
    </contour>
  </outline>
</glyph>
<glyph name="less" format="2">
	<advance width="399"/>
	<unicode hex="003C"/>
	<outline>
		<contour>
			<point x="283" y="80" type="line"/>
			<point x="324" y="129" type="line"/>
			<point x="144" y="267" type="line"/>
			<point x="359" y="403" type="line"/>
			<point x="333" y="450" type="line"/>
			<point x="42" y="265" type="line"/>
		</contour>
	</outline>
</glyph>
<glyph name="equal" format="1">
  <advance width="548"/>
  <unicode hex="003D"/>
  <outline>
    <contour>
      <point x="464" y="347" type="line"/>
      <point x="471" y="399" type="line"/>
      <point x="119" y="399" type="line"/>
      <point x="112" y="347" type="line"/>
    </contour>
    <contour>
      <point x="441" y="187" type="line"/>
      <point x="448" y="239" type="line"/>
      <point x="96" y="239" type="line"/>
      <point x="89" y="187" type="line"/>
    </contour>
  </outline>
</glyph>
<glyph name="greater" format="1">
  <advance width="389"/>
  <unicode hex="003E"/>
  <outline>
    <contour>
      <point x="349" y="265" type="line"/>
      <point x="108" y="450" type="line"/>
      <point x="67" y="401" type="line"/>
      <point x="247" y="263" type="line"/>
      <point x="33" y="127" type="line"/>
      <point x="58" y="80" type="line"/>
    </contour>
  </outline>
</glyph>
<glyph name="question" format="2">
	<advance width="464"/>
	<unicode hex="003F"/>
	<outline>
		<contour>
			<point x="117" y="140" type="curve"/>
			<point x="170" y="148" type="line"/>
			<point x="170" y="155"/>
			<point x="169" y="162"/>
			<point x="169" y="169" type="curve" smooth="yes"/>
			<point x="169" y="175"/>
			<point x="170" y="182"/>
			<point x="170" y="187" type="curve" smooth="yes"/>
			<point x="173" y="207"/>
			<point x="180" y="225"/>
			<point x="198" y="242" type="curve" smooth="yes"/>
			<point x="223" y="271"/>
			<point x="253" y="284"/>
			<point x="310" y="315" type="curve" smooth="yes"/>
			<point x="350" y="339"/>
			<point x="395" y="366"/>
			<point x="426" y="416" type="curve" smooth="yes"/>
			<point x="441" y="442"/>
			<point x="449" y="471"/>
			<point x="453" y="498" type="curve" smooth="yes"/>
			<point x="454" y="508"/>
			<point x="455" y="519"/>
			<point x="455" y="528" type="curve" smooth="yes"/>
			<point x="455" y="548"/>
			<point x="452" y="567"/>
			<point x="447" y="583" type="curve" smooth="yes"/>
			<point x="426" y="658"/>
			<point x="354" y="703"/>
			<point x="276" y="703" type="curve" smooth="yes"/>
			<point x="258" y="703"/>
			<point x="234" y="700"/>
			<point x="214" y="695" type="curve" smooth="yes"/>
			<point x="149" y="679"/>
			<point x="79" y="634"/>
			<point x="79" y="565" type="curve" smooth="yes"/>
			<point x="79" y="525"/>
			<point x="104" y="495"/>
			<point x="161" y="495" type="curve" smooth="yes"/>
			<point x="163" y="495"/>
			<point x="169" y="496"/>
			<point x="174" y="496" type="curve"/>
			<point x="163" y="548" type="line"/>
			<point x="154" y="548"/>
			<point x="129" y="547"/>
			<point x="132" y="572" type="curve" smooth="yes"/>
			<point x="139" y="618"/>
			<point x="218" y="650"/>
			<point x="275" y="650" type="curve" smooth="yes"/>
			<point x="334" y="650"/>
			<point x="382" y="615"/>
			<point x="399" y="566" type="curve" smooth="yes"/>
			<point x="403" y="553"/>
			<point x="404" y="541"/>
			<point x="404" y="529" type="curve" smooth="yes"/>
			<point x="404" y="494"/>
			<point x="391" y="461"/>
			<point x="371" y="435" type="curve" smooth="yes"/>
			<point x="348" y="400"/>
			<point x="315" y="375"/>
			<point x="258" y="348" type="curve" smooth="yes"/>
			<point x="220" y="328"/>
			<point x="175" y="304"/>
			<point x="144" y="265" type="curve" smooth="yes"/>
			<point x="126" y="239"/>
			<point x="121" y="215"/>
			<point x="118" y="195" type="curve" smooth="yes"/>
			<point x="116" y="184"/>
			<point x="116" y="174"/>
			<point x="116" y="164" type="curve" smooth="yes"/>
			<point x="116" y="156"/>
			<point x="116" y="148"/>
		</contour>
		<contour>
			<point x="144" y="5" type="curve" smooth="yes"/>
			<point x="170" y="5"/>
			<point x="194" y="28"/>
			<point x="194" y="55" type="curve" smooth="yes"/>
			<point x="194" y="80"/>
			<point x="175" y="100"/>
			<point x="149" y="100" type="curve" smooth="yes"/>
			<point x="123" y="100"/>
			<point x="99" y="76"/>
			<point x="99" y="49" type="curve" smooth="yes"/>
			<point x="99" y="24"/>
			<point x="118" y="5"/>
		</contour>
	</outline>
</glyph>
<glyph name="at" format="2">
	<advance width="715"/>
	<unicode hex="0040"/>
	<outline>
		<contour>
			<point x="322" y="-60" type="curve" smooth="yes"/>
			<point x="374" y="-60"/>
			<point x="451" y="-53"/>
			<point x="534" y="-15" type="curve"/>
			<point x="524" y="32" type="line"/>
			<point x="475" y="5"/>
			<point x="400" y="-12"/>
			<point x="331" y="-12" type="curve" smooth="yes"/>
			<point x="189" y="-12"/>
			<point x="111" y="61"/>
			<point x="111" y="186" type="curve" smooth="yes"/>
			<point x="111" y="202"/>
			<point x="113" y="218"/>
			<point x="115" y="235" type="curve" smooth="yes"/>
			<point x="136" y="388"/>
			<point x="247" y="501"/>
			<point x="402" y="501" type="curve" smooth="yes"/>
			<point x="530" y="501"/>
			<point x="609" y="420"/>
			<point x="609" y="304" type="curve" smooth="yes"/>
			<point x="609" y="291"/>
			<point x="608" y="278"/>
			<point x="606" y="265" type="curve" smooth="yes"/>
			<point x="596" y="194"/>
			<point x="556" y="132"/>
			<point x="496" y="132" type="curve" smooth="yes"/>
			<point x="467" y="132"/>
			<point x="448" y="151"/>
			<point x="447" y="192" type="curve"/>
			<point x="476" y="401" type="line"/>
			<point x="430" y="401" type="line" smooth="yes"/>
			<point x="424" y="401"/>
			<point x="382" y="406"/>
			<point x="363" y="406" type="curve" smooth="yes"/>
			<point x="294" y="406"/>
			<point x="206" y="343"/>
			<point x="206" y="231" type="curve" smooth="yes"/>
			<point x="206" y="157"/>
			<point x="251" y="101"/>
			<point x="316" y="101" type="curve" smooth="yes"/>
			<point x="350" y="101"/>
			<point x="383" y="117"/>
			<point x="411" y="147" type="curve"/>
			<point x="418" y="106"/>
			<point x="454" y="87"/>
			<point x="498" y="87" type="curve" smooth="yes"/>
			<point x="584" y="87"/>
			<point x="644" y="156"/>
			<point x="658" y="256" type="curve" smooth="yes"/>
			<point x="660" y="272"/>
			<point x="661" y="288"/>
			<point x="661" y="303" type="curve" smooth="yes"/>
			<point x="661" y="449"/>
			<point x="560" y="548"/>
			<point x="400" y="548" type="curve" smooth="yes"/>
			<point x="218" y="548"/>
			<point x="87" y="421"/>
			<point x="62" y="240" type="curve" smooth="yes"/>
			<point x="59" y="221"/>
			<point x="58" y="202"/>
			<point x="58" y="184" type="curve" smooth="yes"/>
			<point x="58" y="26"/>
			<point x="167" y="-60"/>
		</contour>
		<contour>
			<point x="313" y="151" type="curve" smooth="yes"/>
			<point x="268" y="151"/>
			<point x="256" y="193"/>
			<point x="256" y="230" type="curve" smooth="yes"/>
			<point x="256" y="301"/>
			<point x="302" y="356"/>
			<point x="367" y="356" type="curve" smooth="yes"/>
			<point x="378" y="356"/>
			<point x="378" y="356"/>
			<point x="421" y="351" type="curve"/>
			<point x="399" y="217" type="line"/>
			<point x="398" y="215"/>
			<point x="400" y="215"/>
			<point x="390" y="202" type="curve" smooth="yes"/>
			<point x="378" y="181"/>
			<point x="354" y="151"/>
		</contour>
	</outline>
</glyph>
<glyph name="A" format="1">
  <advance width="810"/>
  <unicode hex="0041"/>
  <outline>
    <contour>
      <point x="106" y="-4"/>
      <point x="142" y="14"/>
      <point x="161" y="49" type="curve" smooth="yes"/>
      <point x="258" y="227" type="line"/>
      <point x="554" y="227" type="line"/>
      <point x="617" y="0" type="line"/>
      <point x="679" y="0" type="line"/>
      <point x="478" y="686" type="line"/>
      <point x="459" y="686" type="line"/>
      <point x="110" y="76" type="line" smooth="yes"/>
      <point x="104" y="64"/>
      <point x="92" y="55"/>
      <point x="75" y="55" type="curve" smooth="yes"/>
      <point x="59" y="55"/>
      <point x="50" y="66"/>
      <point x="48" y="81" type="curve"/>
      <point x="-10" y="73" type="line"/>
      <point x="-8" y="29"/>
      <point x="29" y="-4"/>
      <point x="74" y="-4" type="curve" smooth="yes"/>
    </contour>
    <contour>
      <point x="441" y="552" type="line"/>
      <point x="455" y="585" type="line"/>
      <point x="462" y="552" type="line"/>
      <point x="538" y="284" type="line"/>
      <point x="291" y="284" type="line"/>
    </contour>
    <contour>
      <point x="679" y="0" type="move" name="ogonek"/>
    </contour>
    <contour>
      <point x="374" y="0" type="move" name="bottom"/>
    </contour>
    <contour>
      <point x="470" y="686" type="move" name="top"/>
    </contour>
  </outline>
</glyph>
<glyph name="B" format="1">
  <advance width="645"/>
  <unicode hex="0042"/>
  <outline>
    <contour>
      <point x="429" y="-10"/>
      <point x="544" y="45"/>
      <point x="563" y="178" type="curve" smooth="yes"/>
      <point x="564" y="189"/>
      <point x="565" y="200"/>
      <point x="565" y="210" type="curve" smooth="yes"/>
      <point x="565" y="276"/>
      <point x="536" y="326"/>
      <point x="482" y="357" type="curve"/>
      <point x="454" y="368" type="line"/>
      <point x="478" y="375"/>
      <point x="483" y="377"/>
      <point x="486" y="377" type="curve" smooth="yes"/>
      <point x="541" y="406"/>
      <point x="581" y="464"/>
      <point x="581" y="538" type="curve" smooth="yes"/>
      <point x="581" y="632"/>
      <point x="507" y="695"/>
      <point x="401" y="695" type="curve" smooth="yes"/>
      <point x="179" y="695" type="line" smooth="yes"/>
      <point x="150" y="695"/>
      <point x="125" y="684"/>
      <point x="101" y="665" type="curve" smooth="yes"/>
      <point x="81" y="645"/>
      <point x="67" y="621"/>
      <point x="63" y="592" type="curve"/>
      <point x="119" y="588" type="line"/>
      <point x="120" y="598"/>
      <point x="128" y="615"/>
      <point x="141" y="624" type="curve" smooth="yes"/>
      <point x="150" y="634"/>
      <point x="165" y="639"/>
      <point x="196" y="639" type="curve"/>
      <point x="104" y="1" type="line"/>
      <point x="158" y="-5" type="line" smooth="yes"/>
      <point x="199" y="-9"/>
      <point x="254" y="-10"/>
      <point x="276" y="-10" type="curve" smooth="yes"/>
    </contour>
    <contour>
      <point x="262" y="45"/>
      <point x="258" y="46"/>
      <point x="170" y="50" type="curve"/>
      <point x="255" y="639" type="line"/>
      <point x="411" y="639" type="line"/>
      <point x="478" y="635"/>
      <point x="522" y="604"/>
      <point x="522" y="541" type="curve" smooth="yes"/>
      <point x="522" y="489"/>
      <point x="501" y="450"/>
      <point x="466" y="425" type="curve" smooth="yes"/>
      <point x="439" y="403"/>
      <point x="399" y="390"/>
      <point x="357" y="390" type="curve" smooth="yes"/>
      <point x="271" y="390" type="line"/>
      <point x="263" y="335" type="line"/>
      <point x="360" y="335" type="line" smooth="yes"/>
      <point x="444" y="335"/>
      <point x="507" y="292"/>
      <point x="507" y="212" type="curve" smooth="yes"/>
      <point x="507" y="204"/>
      <point x="506" y="196"/>
      <point x="505" y="187" type="curve" smooth="yes"/>
      <point x="491" y="83"/>
      <point x="402" y="45"/>
      <point x="280" y="45" type="curve" smooth="yes"/>
    </contour>
  </outline>
</glyph>
<glyph name="C" format="2">
	<advance width="694"/>
	<unicode hex="0043"/>
	<anchor x="436" y="713" name="top"/>
	<anchor x="333" y="-21" name="bottom"/>
	<outline>
		<contour>
			<point x="354" y="-22" type="curve" smooth="yes"/>
			<point x="459" y="-22"/>
			<point x="572" y="25"/>
			<point x="653" y="123" type="curve"/>
			<point x="611" y="156" type="line"/>
			<point x="549" y="80"/>
			<point x="453" y="33"/>
			<point x="355" y="33" type="curve" smooth="yes"/>
			<point x="204" y="33"/>
			<point x="103" y="145"/>
			<point x="103" y="288" type="curve" smooth="yes"/>
			<point x="103" y="302"/>
			<point x="104" y="317"/>
			<point x="106" y="332" type="curve" smooth="yes"/>
			<point x="130" y="504"/>
			<point x="288" y="655"/>
			<point x="456" y="655" type="curve" smooth="yes"/>
			<point x="505" y="655"/>
			<point x="572" y="642"/>
			<point x="605" y="604" type="curve" smooth="yes"/>
			<point x="612" y="593"/>
			<point x="616" y="583"/>
			<point x="616" y="573" type="curve" smooth="yes"/>
			<point x="616" y="545"/>
			<point x="596" y="521"/>
			<point x="573" y="521" type="curve" smooth="yes"/>
			<point x="567" y="521"/>
			<point x="561" y="523"/>
			<point x="554" y="528" type="curve"/>
			<point x="515" y="487" type="line"/>
			<point x="531" y="475"/>
			<point x="550" y="467"/>
			<point x="572" y="467" type="curve" smooth="yes"/>
			<point x="625" y="467"/>
			<point x="669" y="514"/>
			<point x="669" y="571" type="curve" smooth="yes"/>
			<point x="669" y="590"/>
			<point x="664" y="608"/>
			<point x="655" y="623" type="curve" smooth="yes"/>
			<point x="624" y="687"/>
			<point x="526" y="710"/>
			<point x="455" y="710" type="curve" smooth="yes"/>
			<point x="264" y="710"/>
			<point x="81" y="540"/>
			<point x="53" y="340" type="curve" smooth="yes"/>
			<point x="50" y="322"/>
			<point x="49" y="304"/>
			<point x="49" y="287" type="curve" smooth="yes"/>
			<point x="49" y="114"/>
			<point x="173" y="-22"/>
		</contour>
	</outline>
</glyph>
<glyph name="D" format="1">
  <advance width="805"/>
  <unicode hex="0044"/>
  <outline>
    <contour>
      <point x="550" y="-9"/>
      <point x="712" y="91"/>
      <point x="745" y="325" type="curve" smooth="yes"/>
      <point x="748" y="349"/>
      <point x="750" y="372"/>
      <point x="750" y="394" type="curve" smooth="yes"/>
      <point x="750" y="566"/>
      <point x="650" y="674"/>
      <point x="477" y="689" type="curve"/>
      <point x="178" y="690" type="line" smooth="yes"/>
      <point x="148" y="690"/>
      <point x="122" y="678"/>
      <point x="101" y="661" type="curve" smooth="yes"/>
      <point x="76" y="638"/>
      <point x="65" y="614"/>
      <point x="61" y="587" type="curve"/>
      <point x="117" y="583" type="line"/>
      <point x="118" y="589"/>
      <point x="122" y="605"/>
      <point x="136" y="616" type="curve" smooth="yes"/>
      <point x="149" y="629"/>
      <point x="172" y="634"/>
      <point x="195" y="634" type="curve"/>
      <point x="104" y="0" type="line"/>
      <point x="123" y="-3" type="line"/>
      <point x="152" y="-5" type="line" smooth="yes"/>
      <point x="163" y="-6"/>
      <point x="217" y="-9"/>
      <point x="268" y="-9" type="curve" smooth="yes"/>
    </contour>
    <contour>
      <point x="305" y="45"/>
      <point x="195" y="49"/>
      <point x="170" y="50" type="curve"/>
      <point x="254" y="634" type="line"/>
      <point x="463" y="634" type="line"/>
      <point x="607" y="627"/>
      <point x="691" y="538"/>
      <point x="691" y="397" type="curve" smooth="yes"/>
      <point x="691" y="379"/>
      <point x="690" y="361"/>
      <point x="687" y="342" type="curve" smooth="yes"/>
      <point x="660" y="151"/>
      <point x="521" y="45"/>
      <point x="338" y="45" type="curve" smooth="yes"/>
    </contour>
    <contour>
      <point x="368" y="0" type="move" name="center"/>
    </contour>
    <contour>
      <point x="464" y="684" type="move" name="top"/>
    </contour>
  </outline>
</glyph>
<glyph name="E" format="1">
  <advance width="648"/>
  <unicode hex="0045"/>
  <outline>
    <contour>
      <point x="543" y="0" type="line"/>
      <point x="551" y="57" type="line"/>
      <point x="164" y="57" type="line"/>
      <point x="203" y="333" type="line"/>
      <point x="470" y="333" type="line"/>
      <point x="478" y="390" type="line"/>
      <point x="211" y="390" type="line"/>
      <point x="244" y="628" type="line"/>
      <point x="631" y="628" type="line"/>
      <point x="639" y="684" type="line"/>
      <point x="176" y="684" type="line" smooth="yes"/>
      <point x="146" y="684"/>
      <point x="121" y="672"/>
      <point x="99" y="654" type="curve" smooth="yes"/>
      <point x="78" y="634"/>
      <point x="65" y="610"/>
      <point x="61" y="581" type="curve"/>
      <point x="116" y="577" type="line"/>
      <point x="118" y="590"/>
      <point x="127" y="605"/>
      <point x="137" y="612" type="curve" smooth="yes"/>
      <point x="147" y="623"/>
      <point x="159" y="628"/>
      <point x="185" y="628" type="curve"/>
      <point x="95" y="0" type="line"/>
    </contour>
    <contour>
      <point x="549" y="10" type="move" name="ogonek"/>
    </contour>
    <contour>
      <point x="325" y="0" type="move" name="bottom"/>
    </contour>
    <contour>
      <point x="410" y="684" type="move" name="top"/>
    </contour>
  </outline>
</glyph>
<glyph name="F" format="1">
  <advance width="608"/>
  <unicode hex="0046"/>
  <outline>
    <contour>
      <point x="156" y="-1" type="line"/>
      <point x="203" y="332" type="line"/>
      <point x="470" y="332" type="line"/>
      <point x="478" y="389" type="line"/>
      <point x="211" y="389" type="line"/>
      <point x="244" y="627" type="line"/>
      <point x="631" y="627" type="line"/>
      <point x="639" y="683" type="line"/>
      <point x="176" y="683" type="line" smooth="yes"/>
      <point x="147" y="683"/>
      <point x="122" y="672"/>
      <point x="99" y="653" type="curve" smooth="yes"/>
      <point x="78" y="633"/>
      <point x="64" y="609"/>
      <point x="60" y="580" type="curve"/>
      <point x="116" y="576" type="line"/>
      <point x="118" y="589"/>
      <point x="127" y="604"/>
      <point x="137" y="611" type="curve" smooth="yes"/>
      <point x="147" y="622"/>
      <point x="159" y="627"/>
      <point x="185" y="627" type="curve"/>
      <point x="95" y="-1" type="line"/>
    </contour>
  </outline>
</glyph>
<glyph name="G" format="1">
  <advance width="723"/>
  <unicode hex="0047"/>
  <outline>
    <contour>
      <point x="547" y="-271"/>
      <point x="600" y="-242"/>
      <point x="609" y="-180" type="curve" smooth="yes"/>
      <point x="676" y="303" type="line"/>
      <point x="619" y="303" type="line"/>
      <point x="609" y="226" type="line"/>
      <point x="577" y="113"/>
      <point x="473" y="23"/>
      <point x="345" y="23" type="curve" smooth="yes"/>
      <point x="203" y="23"/>
      <point x="101" y="137"/>
      <point x="101" y="281" type="curve" smooth="yes"/>
      <point x="101" y="295"/>
      <point x="102" y="309"/>
      <point x="104" y="324" type="curve" smooth="yes"/>
      <point x="128" y="495"/>
      <point x="286" y="647"/>
      <point x="451" y="647" type="curve" smooth="yes"/>
      <point x="509" y="647"/>
      <point x="611" y="629"/>
      <point x="611" y="570" type="curve" smooth="yes"/>
      <point x="611" y="541"/>
      <point x="590" y="517"/>
      <point x="567" y="517" type="curve" smooth="yes"/>
      <point x="563" y="517"/>
      <point x="557" y="518"/>
      <point x="549" y="523" type="curve"/>
      <point x="511" y="482" type="line"/>
      <point x="526" y="470"/>
      <point x="545" y="463"/>
      <point x="566" y="463" type="curve" smooth="yes"/>
      <point x="619" y="463"/>
      <point x="664" y="508"/>
      <point x="664" y="570" type="curve" smooth="yes"/>
      <point x="664" y="669"/>
      <point x="532" y="702"/>
      <point x="450" y="702" type="curve" smooth="yes"/>
      <point x="265" y="702"/>
      <point x="79" y="531"/>
      <point x="52" y="333" type="curve" smooth="yes"/>
      <point x="50" y="316"/>
      <point x="48" y="298"/>
      <point x="48" y="281" type="curve" smooth="yes"/>
      <point x="48" y="111"/>
      <point x="169" y="-31"/>
      <point x="346" y="-31" type="curve" smooth="yes"/>
      <point x="434" y="-31"/>
      <point x="522" y="5"/>
      <point x="589" y="81" type="curve"/>
      <point x="552" y="-176" type="line"/>
      <point x="548" y="-193"/>
      <point x="532" y="-212"/>
      <point x="507" y="-212" type="curve" smooth="yes"/>
      <point x="496" y="-212"/>
      <point x="489" y="-207"/>
      <point x="484" y="-198" type="curve"/>
      <point x="434" y="-229" type="line"/>
      <point x="446" y="-254"/>
      <point x="473" y="-271"/>
      <point x="506" y="-271" type="curve" smooth="yes"/>
    </contour>
    <contour>
      <point x="448" y="699" type="move" name="top"/>
    </contour>
    <contour>
      <point x="342" y="-28" type="move" name="bottom"/>
    </contour>
  </outline>
</glyph>
<glyph name="H" format="1">
  <advance width="701"/>
  <unicode hex="0048"/>
  <outline>
    <contour>
      <point x="150" y="0" type="line"/>
      <point x="196" y="327" type="line"/>
      <point x="565" y="327" type="line"/>
      <point x="519" y="0" type="line"/>
      <point x="580" y="0" type="line"/>
      <point x="676" y="684" type="line"/>
      <point x="615" y="684" type="line"/>
      <point x="573" y="384" type="line"/>
      <point x="204" y="384" type="line"/>
      <point x="233" y="594" type="line" smooth="yes"/>
      <point x="234" y="599"/>
      <point x="234" y="603"/>
      <point x="234" y="608" type="curve" smooth="yes"/>
      <point x="234" y="657"/>
      <point x="195" y="689"/>
      <point x="149" y="689" type="curve" smooth="yes"/>
      <point x="119" y="689"/>
      <point x="91" y="675"/>
      <point x="69" y="649" type="curve"/>
      <point x="118" y="612" type="line"/>
      <point x="126" y="623"/>
      <point x="138" y="627"/>
      <point x="149" y="627" type="curve" smooth="yes"/>
      <point x="165" y="627"/>
      <point x="174" y="616"/>
      <point x="172" y="598" type="curve" smooth="yes"/>
      <point x="88" y="0" type="line"/>
    </contour>
    <contour>
      <point x="395" y="355" type="move" name="center"/>
    </contour>
    <contour>
      <point x="439" y="684" type="move" name="top"/>
    </contour>
  </outline>
</glyph>
<glyph name="I" format="1">
  <advance width="232"/>
  <unicode hex="0049"/>
  <outline>
    <contour>
      <point x="111" y="0" type="line"/>
      <point x="207" y="684" type="line"/>
      <point x="146" y="684" type="line"/>
      <point x="50" y="0" type="line"/>
    </contour>
    <contour>
      <point x="111" y="0" type="move" name="ogonek"/>
    </contour>
    <contour>
      <point x="81" y="-1" type="move" name="bottom"/>
    </contour>
    <contour>
      <point x="174" y="684" type="move" name="top"/>
    </contour>
  </outline>
</glyph>
<glyph name="J" format="1">
  <advance width="472"/>
  <unicode hex="004A"/>
  <outline>
    <contour>
      <point x="308" y="-4"/>
      <point x="373" y="90"/>
      <point x="386" y="189" type="curve" smooth="yes"/>
      <point x="456" y="687" type="line"/>
      <point x="401" y="689" type="line"/>
      <point x="397" y="682"/>
      <point x="358" y="660"/>
      <point x="330" y="660" type="curve" smooth="yes"/>
      <point x="290" y="660"/>
      <point x="242" y="696"/>
      <point x="201" y="696" type="curve" smooth="yes"/>
      <point x="177" y="696"/>
      <point x="158" y="692"/>
      <point x="96" y="668" type="curve"/>
      <point x="116" y="616" type="line"/>
      <point x="142" y="624"/>
      <point x="173" y="640"/>
      <point x="201" y="640" type="curve" smooth="yes"/>
      <point x="231" y="640"/>
      <point x="253" y="619"/>
      <point x="290" y="610" type="curve" smooth="yes"/>
      <point x="299" y="607"/>
      <point x="317" y="604"/>
      <point x="337" y="604" type="curve" smooth="yes"/>
      <point x="354" y="604"/>
      <point x="373" y="606"/>
      <point x="390" y="616" type="curve"/>
      <point x="330" y="196" type="line" smooth="yes"/>
      <point x="321" y="132"/>
      <point x="282" y="53"/>
      <point x="183" y="53" type="curve" smooth="yes"/>
      <point x="116" y="53"/>
      <point x="80" y="90"/>
      <point x="80" y="149" type="curve" smooth="yes"/>
      <point x="80" y="157"/>
      <point x="81" y="164"/>
      <point x="82" y="172" type="curve"/>
      <point x="26" y="181" type="line"/>
      <point x="25" y="171"/>
      <point x="24" y="162"/>
      <point x="24" y="152" type="curve" smooth="yes"/>
      <point x="24" y="73"/>
      <point x="64" y="-4"/>
      <point x="180" y="-4" type="curve" smooth="yes"/>
    </contour>
    <contour>
      <point x="293" y="693" type="move" name="top"/>
    </contour>
  </outline>
</glyph>
<glyph name="K" format="1">
  <advance width="643"/>
  <unicode hex="004B"/>
  <outline>
    <contour>
      <point x="513" y="-8"/>
      <point x="567" y="19"/>
      <point x="575" y="82" type="curve"/>
      <point x="519" y="85" type="line"/>
      <point x="516" y="65"/>
      <point x="498" y="49"/>
      <point x="476" y="49" type="curve" smooth="yes"/>
      <point x="465" y="49"/>
      <point x="457" y="54"/>
      <point x="453" y="63" type="curve" smooth="yes"/>
      <point x="293" y="346" type="line"/>
      <point x="315" y="361"/>
      <point x="331" y="376"/>
      <point x="358" y="406" type="curve" smooth="yes"/>
      <point x="377" y="430"/>
      <point x="403" y="467"/>
      <point x="422" y="491" type="curve" smooth="yes"/>
      <point x="448" y="531"/>
      <point x="460" y="547"/>
      <point x="551" y="683" type="curve"/>
      <point x="474" y="685" type="line"/>
      <point x="426" y="607"/>
      <point x="400" y="566"/>
      <point x="374" y="531" type="curve" smooth="yes"/>
      <point x="352" y="496"/>
      <point x="320" y="454"/>
      <point x="292" y="426" type="curve" smooth="yes"/>
      <point x="277" y="409"/>
      <point x="267" y="398"/>
      <point x="240" y="388" type="curve" smooth="yes"/>
      <point x="225" y="380"/>
      <point x="204" y="373"/>
      <point x="173" y="372" type="curve" smooth="yes"/>
      <point x="132" y="371" type="line"/>
      <point x="176" y="684" type="line"/>
      <point x="115" y="684" type="line"/>
      <point x="19" y="1" type="line"/>
      <point x="82" y="1" type="line"/>
      <point x="128" y="313" type="line"/>
      <point x="187" y="312"/>
      <point x="203" y="314"/>
      <point x="237" y="324" type="curve"/>
      <point x="404" y="32" type="line" smooth="yes"/>
      <point x="417" y="7"/>
      <point x="444" y="-8"/>
      <point x="474" y="-8" type="curve" smooth="yes"/>
    </contour>
    <contour>
      <point x="383" y="684" type="move" name="top"/>
    </contour>
    <contour>
      <point x="287" y="0" type="move" name="bottom"/>
    </contour>
  </outline>
</glyph>
<glyph name="L" format="2">
	<advance width="496"/>
	<unicode hex="004C"/>
	<anchor x="348" y="684" name="top"/>
	<anchor x="252" y="0" name="bottom"/>
	<outline>
		<contour>
			<point x="50" y="0" type="line"/>
			<point x="438" y="0" type="line"/>
			<point x="446" y="57" type="line"/>
			<point x="119" y="57" type="line"/>
			<point x="207" y="684" type="line"/>
			<point x="146" y="684" type="line"/>
		</contour>
	</outline>
</glyph>
<glyph name="M" format="2">
	<advance width="978"/>
	<unicode hex="004D"/>
	<outline>
		<contour>
			<point x="71" y="-7" type="curve" smooth="yes"/>
			<point x="112" y="-7"/>
			<point x="148" y="23"/>
			<point x="162" y="62" type="curve" smooth="yes"/>
			<point x="332" y="561" type="line"/>
			<point x="343" y="601" type="line"/>
			<point x="349" y="561" type="line"/>
			<point x="472" y="0" type="line"/>
			<point x="531" y="0" type="line"/>
			<point x="813" y="562" type="line"/>
			<point x="829" y="601" type="line"/>
			<point x="830" y="563" type="line"/>
			<point x="864" y="0" type="line"/>
			<point x="921" y="0" type="line"/>
			<point x="877" y="684" type="line"/>
			<point x="820" y="684" type="line"/>
			<point x="529" y="113" type="line"/>
			<point x="512" y="74" type="line"/>
			<point x="507" y="113" type="line"/>
			<point x="378" y="684" type="line"/>
			<point x="319" y="684" type="line"/>
			<point x="107" y="72" type="line"/>
			<point x="100" y="57"/>
			<point x="87" y="49"/>
			<point x="71" y="49" type="curve" smooth="yes"/>
			<point x="57" y="49"/>
			<point x="51" y="56"/>
			<point x="45" y="68" type="curve"/>
			<point x="-7" y="49" type="line"/>
			<point x="1" y="18"/>
			<point x="31" y="-7"/>
		</contour>
	</outline>
</glyph>
<glyph name="N" format="2">
	<advance width="794"/>
	<unicode hex="004E"/>
	<anchor x="491" y="684" name="top"/>
	<anchor x="396" y="0" name="bottom"/>
	<outline>
		<contour>
			<point x="80" y="-4" type="curve" smooth="yes"/>
			<point x="118" y="-4"/>
			<point x="177" y="23"/>
			<point x="186" y="83" type="curve" smooth="yes"/>
			<point x="253" y="584" type="line"/>
			<point x="265" y="563" type="line"/>
			<point x="656" y="0" type="line"/>
			<point x="673" y="0" type="line"/>
			<point x="769" y="683" type="line"/>
			<point x="710" y="683" type="line"/>
			<point x="634" y="129" type="line"/>
			<point x="622" y="151" type="line"/>
			<point x="339" y="559" type="line"/>
			<point x="247" y="684" type="line"/>
			<point x="210" y="684" type="line"/>
			<point x="126" y="87" type="line"/>
			<point x="123" y="71"/>
			<point x="106" y="52"/>
			<point x="83" y="52" type="curve" smooth="yes"/>
			<point x="68" y="52"/>
			<point x="54" y="62"/>
			<point x="57" y="84" type="curve"/>
			<point x="1" y="88" type="line"/>
			<point x="0" y="84"/>
			<point x="0" y="80"/>
			<point x="0" y="76" type="curve" smooth="yes"/>
			<point x="0" y="32"/>
			<point x="36" y="-4"/>
		</contour>
	</outline>
</glyph>
<glyph name="O" format="1">
  <advance width="783"/>
  <unicode hex="004F"/>
  <outline>
    <contour>
      <point x="552" y="-27"/>
      <point x="721" y="126"/>
      <point x="753" y="347" type="curve" smooth="yes"/>
      <point x="755" y="364"/>
      <point x="756" y="380"/>
      <point x="756" y="396" type="curve" smooth="yes"/>
      <point x="756" y="567"/>
      <point x="629" y="706"/>
      <point x="449" y="706" type="curve" smooth="yes"/>
      <point x="254" y="706"/>
      <point x="81" y="542"/>
      <point x="54" y="351" type="curve" smooth="yes"/>
      <point x="52" y="332" type="line" smooth="yes"/>
      <point x="28" y="130"/>
      <point x="161" y="-27"/>
      <point x="358" y="-27" type="curve" smooth="yes"/>
    </contour>
    <contour>
      <point x="196" y="25"/>
      <point x="85" y="161"/>
      <point x="107" y="328" type="curve" smooth="yes"/>
      <point x="110" y="347" type="line" smooth="yes"/>
      <point x="132" y="507"/>
      <point x="281" y="654"/>
      <point x="448" y="654" type="curve" smooth="yes"/>
      <point x="590" y="654"/>
      <point x="700" y="543"/>
      <point x="700" y="395" type="curve" smooth="yes"/>
      <point x="700" y="381"/>
      <point x="699" y="366"/>
      <point x="697" y="351" type="curve" smooth="yes"/>
      <point x="670" y="162"/>
      <point x="523" y="25"/>
      <point x="355" y="25" type="curve" smooth="yes"/>
    </contour>
    <contour>
      <point x="619" y="83" type="move" name="ogonek"/>
    </contour>
    <contour>
      <point x="449" y="706" type="move" name="top"/>
    </contour>
    <contour>
      <point x="718" y="530" type="move" name="horn"/>
    </contour>
    <contour>
      <point x="353" y="-27" type="move" name="bottom"/>
    </contour>
  </outline>
</glyph>
<glyph name="P" format="1">
  <advance width="609"/>
  <unicode hex="0050"/>
  <outline>
    <contour>
      <point x="166" y="-1" type="line"/>
      <point x="254" y="628" type="line"/>
      <point x="388" y="628" type="line" smooth="yes"/>
      <point x="465" y="625"/>
      <point x="515" y="591"/>
      <point x="515" y="509" type="curve" smooth="yes"/>
      <point x="515" y="499"/>
      <point x="514" y="487"/>
      <point x="512" y="475" type="curve" smooth="yes"/>
      <point x="495" y="357"/>
      <point x="419" y="314"/>
      <point x="318" y="314" type="curve" smooth="yes"/>
      <point x="305" y="314"/>
      <point x="280" y="315"/>
      <point x="249" y="317" type="curve"/>
      <point x="246" y="262" type="line"/>
      <point x="274" y="259"/>
      <point x="301" y="257"/>
      <point x="323" y="257" type="curve" smooth="yes"/>
      <point x="438" y="257"/>
      <point x="549" y="321"/>
      <point x="570" y="468" type="curve" smooth="yes"/>
      <point x="572" y="482"/>
      <point x="573" y="496"/>
      <point x="573" y="509" type="curve" smooth="yes"/>
      <point x="573" y="611"/>
      <point x="516" y="684"/>
      <point x="406" y="684" type="curve" smooth="yes"/>
      <point x="176" y="684" type="line" smooth="yes"/>
      <point x="146" y="684"/>
      <point x="121" y="672"/>
      <point x="99" y="654" type="curve" smooth="yes"/>
      <point x="78" y="634"/>
      <point x="65" y="610"/>
      <point x="61" y="581" type="curve"/>
      <point x="116" y="577" type="line"/>
      <point x="118" y="592"/>
      <point x="127" y="604"/>
      <point x="138" y="612" type="curve" smooth="yes"/>
      <point x="150" y="624"/>
      <point x="157" y="628"/>
      <point x="195" y="628" type="curve"/>
      <point x="105" y="-1" type="line"/>
    </contour>
  </outline>
</glyph>
<glyph name="Q" format="1">
  <advance width="759"/>
  <unicode hex="0051"/>
  <outline>
    <contour>
      <point x="207" y="-138" type="line"/>
      <point x="302" y="-171" type="line" smooth="yes"/>
      <point x="346" y="-186"/>
      <point x="382" y="-193"/>
      <point x="432" y="-193" type="curve" smooth="yes"/>
      <point x="466" y="-193"/>
      <point x="490" y="-190"/>
      <point x="550" y="-151" type="curve"/>
      <point x="528" y="-105" type="line"/>
      <point x="483" y="-134"/>
      <point x="457" y="-141"/>
      <point x="424" y="-141" type="curve" smooth="yes"/>
      <point x="393" y="-141"/>
      <point x="355" y="-134"/>
      <point x="319" y="-121" type="curve" smooth="yes"/>
      <point x="245" y="-94" type="line"/>
      <point x="316" y="-9" type="line"/>
      <point x="344" y="-10" type="line" smooth="yes"/>
      <point x="543" y="-10"/>
      <point x="700" y="136"/>
      <point x="728" y="337" type="curve" smooth="yes"/>
      <point x="731" y="358"/>
      <point x="732" y="378"/>
      <point x="732" y="397" type="curve" smooth="yes"/>
      <point x="732" y="570"/>
      <point x="620" y="694"/>
      <point x="436" y="694" type="curve" smooth="yes"/>
      <point x="238" y="694"/>
      <point x="83" y="547"/>
      <point x="54" y="346" type="curve" smooth="yes"/>
      <point x="51" y="325"/>
      <point x="50" y="305"/>
      <point x="50" y="285" type="curve" smooth="yes"/>
      <point x="50" y="147"/>
      <point x="120" y="34"/>
      <point x="260" y="0" type="curve"/>
      <point x="117" y="-166" type="line"/>
      <point x="157" y="-199" type="line"/>
    </contour>
    <contour>
      <point x="194" y="45"/>
      <point x="111" y="145"/>
      <point x="111" y="284" type="curve" smooth="yes"/>
      <point x="111" y="302"/>
      <point x="112" y="320"/>
      <point x="115" y="339" type="curve" smooth="yes"/>
      <point x="139" y="512"/>
      <point x="266" y="639"/>
      <point x="438" y="639" type="curve" smooth="yes"/>
      <point x="588" y="639"/>
      <point x="674" y="540"/>
      <point x="674" y="399" type="curve" smooth="yes"/>
      <point x="674" y="382"/>
      <point x="672" y="365"/>
      <point x="670" y="347" type="curve" smooth="yes"/>
      <point x="645" y="175"/>
      <point x="519" y="45"/>
      <point x="345" y="45" type="curve" smooth="yes"/>
    </contour>
  </outline>
</glyph>
<glyph name="R" format="1">
  <advance width="720"/>
  <unicode hex="0052"/>
  <outline>
    <contour>
      <point x="599" y="-10"/>
      <point x="644" y="24"/>
      <point x="652" y="77" type="curve"/>
      <point x="596" y="83" type="line"/>
      <point x="593" y="64"/>
      <point x="571" y="45"/>
      <point x="551" y="45" type="curve" smooth="yes"/>
      <point x="543" y="45"/>
      <point x="537" y="49"/>
      <point x="530" y="60" type="curve" smooth="yes"/>
      <point x="406" y="256" type="line" smooth="yes"/>
      <point x="399" y="267"/>
      <point x="382" y="280"/>
      <point x="373" y="284" type="curve" smooth="yes"/>
      <point x="361" y="289" type="line"/>
      <point x="389" y="290" type="line" smooth="yes"/>
      <point x="477" y="296"/>
      <point x="557" y="366"/>
      <point x="572" y="473" type="curve" smooth="yes"/>
      <point x="574" y="485"/>
      <point x="574" y="497"/>
      <point x="574" y="508" type="curve" smooth="yes"/>
      <point x="574" y="579"/>
      <point x="543" y="638"/>
      <point x="489" y="665" type="curve" smooth="yes"/>
      <point x="471" y="676"/>
      <point x="446" y="684"/>
      <point x="412" y="684" type="curve" smooth="yes"/>
      <point x="176" y="684" type="line" smooth="yes"/>
      <point x="148" y="684"/>
      <point x="124" y="675"/>
      <point x="99" y="654" type="curve" smooth="yes"/>
      <point x="77" y="632"/>
      <point x="65" y="610"/>
      <point x="61" y="581" type="curve"/>
      <point x="116" y="577" type="line"/>
      <point x="120" y="605"/>
      <point x="147" y="628"/>
      <point x="174" y="628" type="curve" smooth="yes"/>
      <point x="191" y="628" type="line"/>
      <point x="103" y="0" type="line"/>
      <point x="164" y="0" type="line"/>
      <point x="252" y="628" type="line"/>
      <point x="404" y="628" type="line" smooth="yes"/>
      <point x="474" y="628"/>
      <point x="515" y="579"/>
      <point x="515" y="509" type="curve" smooth="yes"/>
      <point x="515" y="406"/>
      <point x="448" y="332"/>
      <point x="348" y="332" type="curve" smooth="yes"/>
      <point x="263" y="332" type="line"/>
      <point x="257" y="276" type="line"/>
      <point x="324" y="270"/>
      <point x="350" y="242"/>
      <point x="378" y="194" type="curve" smooth="yes"/>
      <point x="482" y="30" type="line" smooth="yes"/>
      <point x="497" y="4"/>
      <point x="521" y="-10"/>
      <point x="552" y="-10" type="curve" smooth="yes"/>
    </contour>
    <contour>
      <point x="380" y="684" type="move" name="top"/>
    </contour>
    <contour>
      <point x="287" y="0" type="move" name="bottom"/>
    </contour>
  </outline>
</glyph>
<glyph name="S" format="1">
  <advance width="525"/>
  <unicode hex="0053"/>
  <outline>
    <contour>
      <point x="367" y="-25"/>
      <point x="481" y="91"/>
      <point x="481" y="195" type="curve" smooth="yes"/>
      <point x="481" y="277"/>
      <point x="449" y="327"/>
      <point x="376" y="367" type="curve" smooth="yes"/>
      <point x="310" y="407"/>
      <point x="186" y="445"/>
      <point x="186" y="528" type="curve" smooth="yes"/>
      <point x="186" y="594"/>
      <point x="256" y="655"/>
      <point x="333" y="655" type="curve" smooth="yes"/>
      <point x="374" y="655"/>
      <point x="421" y="635"/>
      <point x="421" y="599" type="curve" smooth="yes"/>
      <point x="421" y="573"/>
      <point x="401" y="546"/>
      <point x="378" y="553" type="curve"/>
      <point x="369" y="501" type="line"/>
      <point x="373" y="501"/>
      <point x="377" y="500"/>
      <point x="381" y="500" type="curve" smooth="yes"/>
      <point x="435" y="500"/>
      <point x="477" y="544"/>
      <point x="477" y="599" type="curve" smooth="yes"/>
      <point x="477" y="643"/>
      <point x="450" y="680"/>
      <point x="396" y="697" type="curve" smooth="yes"/>
      <point x="379" y="703"/>
      <point x="356" y="706"/>
      <point x="333" y="706" type="curve" smooth="yes"/>
      <point x="228" y="706"/>
      <point x="131" y="631"/>
      <point x="131" y="523" type="curve" smooth="yes"/>
      <point x="131" y="409"/>
      <point x="262" y="366"/>
      <point x="345" y="321" type="curve" smooth="yes"/>
      <point x="391" y="294"/>
      <point x="427" y="267"/>
      <point x="427" y="194" type="curve" smooth="yes"/>
      <point x="427" y="118"/>
      <point x="341" y="26"/>
      <point x="232" y="26" type="curve" smooth="yes"/>
      <point x="154" y="26"/>
      <point x="86" y="78"/>
      <point x="62" y="163" type="curve"/>
      <point x="9" y="145" type="line"/>
      <point x="33" y="45"/>
      <point x="99" y="-25"/>
      <point x="233" y="-25" type="curve" smooth="yes"/>
    </contour>
    <contour>
      <point x="337" y="706" type="move" name="top"/>
    </contour>
    <contour>
      <point x="245" y="0" type="move" name="bottom"/>
    </contour>
  </outline>
</glyph>
<glyph name="T" format="2">
	<advance width="598"/>
	<unicode hex="0054"/>
	<anchor x="318" y="360" name="center"/>
	<anchor x="267" y="0" name="bottom"/>
	<anchor x="368" y="684" name="top"/>
	<outline>
		<contour>
			<point x="236" y="0" type="line"/>
			<point x="297" y="0" type="line"/>
			<point x="385" y="627" type="line"/>
			<point x="624" y="627" type="line"/>
			<point x="632" y="684" type="line"/>
			<point x="166" y="684" type="line" smooth="yes"/>
			<point x="142" y="684"/>
			<point x="121" y="675"/>
			<point x="100" y="659" type="curve" smooth="yes"/>
			<point x="82" y="641"/>
			<point x="71" y="620"/>
			<point x="68" y="596" type="curve"/>
			<point x="124" y="592" type="line"/>
			<point x="126" y="608"/>
			<point x="143" y="627"/>
			<point x="165" y="627" type="curve" smooth="yes"/>
			<point x="324" y="627" type="line"/>
		</contour>
	</outline>
</glyph>
<glyph name="U" format="2">
	<advance width="740"/>
	<unicode hex="0055"/>
	<anchor x="543" y="43" name="ogonek"/>
	<anchor x="462" y="684" name="top"/>
	<anchor x="708" y="535" name="horn"/>
	<anchor x="366" y="-10" name="bottom"/>
	<outline>
		<contour>
			<point x="371" y="-9" type="curve" smooth="yes"/>
			<point x="555" y="-9"/>
			<point x="652" y="131"/>
			<point x="671" y="266" type="curve" smooth="yes"/>
			<point x="730" y="685" type="line"/>
			<point x="669" y="685" type="line"/>
			<point x="611" y="270" type="line" smooth="yes"/>
			<point x="596" y="164"/>
			<point x="520" y="46"/>
			<point x="369" y="46" type="curve" smooth="yes"/>
			<point x="249" y="46"/>
			<point x="194" y="122"/>
			<point x="194" y="223" type="curve" smooth="yes"/>
			<point x="194" y="237"/>
			<point x="195" y="251"/>
			<point x="197" y="266" type="curve" smooth="yes"/>
			<point x="243" y="593" type="line" smooth="yes"/>
			<point x="244" y="600"/>
			<point x="244" y="606"/>
			<point x="244" y="613" type="curve" smooth="yes"/>
			<point x="244" y="664"/>
			<point x="211" y="693"/>
			<point x="156" y="693" type="curve" smooth="yes"/>
			<point x="127" y="693"/>
			<point x="93" y="677"/>
			<point x="71" y="651" type="curve"/>
			<point x="118" y="615" type="line"/>
			<point x="127" y="626"/>
			<point x="142" y="633"/>
			<point x="158" y="633" type="curve" smooth="yes"/>
			<point x="170" y="633"/>
			<point x="186" y="629"/>
			<point x="183" y="597" type="curve" smooth="yes"/>
			<point x="137" y="270" type="line" smooth="yes"/>
			<point x="135" y="254"/>
			<point x="134" y="238"/>
			<point x="134" y="223" type="curve" smooth="yes"/>
			<point x="134" y="95"/>
			<point x="212" y="-9"/>
		</contour>
	</outline>
</glyph>
<glyph name="V" format="1">
  <advance width="653"/>
  <unicode hex="0056"/>
  <outline>
    <contour>
      <point x="365" y="0" type="line"/>
      <point x="684" y="685" type="line"/>
      <point x="624" y="685" type="line"/>
      <point x="348" y="86" type="line"/>
      <point x="238" y="639" type="line" smooth="yes"/>
      <point x="232" y="668"/>
      <point x="206" y="690"/>
      <point x="166" y="690" type="curve" smooth="yes"/>
      <point x="127" y="690"/>
      <point x="88" y="666"/>
      <point x="70" y="624" type="curve"/>
      <point x="124" y="606" type="line"/>
      <point x="132" y="621"/>
      <point x="148" y="630"/>
      <point x="163" y="630" type="curve" smooth="yes"/>
      <point x="174" y="630"/>
      <point x="185" y="624"/>
      <point x="188" y="611" type="curve" smooth="yes"/>
      <point x="307" y="0" type="line"/>
    </contour>
  </outline>
</glyph>
<glyph name="W" format="1">
  <advance width="1059"/>
  <unicode hex="0057"/>
  <outline>
    <contour>
      <point x="358" y="0" type="line"/>
      <point x="633" y="591" type="line"/>
      <point x="743" y="0" type="line"/>
      <point x="802" y="0" type="line"/>
      <point x="1121" y="685" type="line"/>
      <point x="1061" y="685" type="line"/>
      <point x="791" y="100" type="line"/>
      <point x="787" y="87" type="line"/>
      <point x="786" y="85"/>
      <point x="785" y="82"/>
      <point x="785" y="78" type="curve" smooth="yes"/>
      <point x="784" y="72" type="line"/>
      <point x="782" y="100" type="line"/>
      <point x="676" y="685" type="line"/>
      <point x="617" y="685" type="line"/>
      <point x="347" y="100" type="line"/>
      <point x="339" y="79" type="line"/>
      <point x="338" y="89" type="line"/>
      <point x="338" y="100" type="line"/>
      <point x="241" y="630" type="line" smooth="yes"/>
      <point x="236" y="667"/>
      <point x="202" y="694"/>
      <point x="160" y="694" type="curve" smooth="yes"/>
      <point x="125" y="694"/>
      <point x="85" y="672"/>
      <point x="67" y="629" type="curve"/>
      <point x="121" y="611" type="line"/>
      <point x="129" y="628"/>
      <point x="144" y="637"/>
      <point x="159" y="637" type="curve" smooth="yes"/>
      <point x="170" y="637"/>
      <point x="181" y="630"/>
      <point x="185" y="614" type="curve" smooth="yes"/>
      <point x="299" y="0" type="line"/>
    </contour>
    <contour>
      <point x="647" y="684" type="move" name="top"/>
    </contour>
  </outline>
</glyph>
<glyph name="X" format="1">
  <advance width="668"/>
  <unicode hex="0058"/>
  <outline>
    <contour>
      <point x="542" y="-7"/>
      <point x="589" y="22"/>
      <point x="600" y="78" type="curve"/>
      <point x="543" y="85" type="line"/>
      <point x="537" y="67"/>
      <point x="521" y="51"/>
      <point x="500" y="51" type="curve" smooth="yes"/>
      <point x="490" y="51"/>
      <point x="483" y="56"/>
      <point x="479" y="64" type="curve" smooth="yes"/>
      <point x="350" y="351" type="line"/>
      <point x="608" y="684" type="line"/>
      <point x="535" y="684" type="line"/>
      <point x="312" y="395" type="line"/>
      <point x="172" y="684" type="line"/>
      <point x="105" y="684" type="line"/>
      <point x="268" y="351" type="line"/>
      <point x="9" y="0" type="line"/>
      <point x="82" y="0" type="line"/>
      <point x="307" y="306" type="line"/>
      <point x="413" y="66" type="line" smooth="yes"/>
      <point x="431" y="21"/>
      <point x="450" y="-7"/>
      <point x="496" y="-7" type="curve" smooth="yes"/>
    </contour>
  </outline>
</glyph>
<glyph name="Y" format="1">
  <advance width="618"/>
  <unicode hex="0059"/>
  <outline>
    <contour>
      <point x="343" y="0" type="line"/>
      <point x="384" y="299" type="line"/>
      <point x="654" y="685" type="line"/>
      <point x="582" y="685" type="line"/>
      <point x="359" y="366" type="line"/>
      <point x="245" y="645" type="line"/>
      <point x="229" y="680"/>
      <point x="200" y="694"/>
      <point x="170" y="694" type="curve" smooth="yes"/>
      <point x="129" y="694"/>
      <point x="82" y="667"/>
      <point x="69" y="613" type="curve"/>
      <point x="127" y="603" type="line"/>
      <point x="130" y="622"/>
      <point x="149" y="635"/>
      <point x="167" y="635" type="curve" smooth="yes"/>
      <point x="176" y="635"/>
      <point x="186" y="631"/>
      <point x="192" y="619" type="curve"/>
      <point x="323" y="297" type="line"/>
      <point x="277" y="0" type="line"/>
    </contour>
    <contour>
      <point x="402" y="684" type="move" name="top"/>
    </contour>
    <contour>
      <point x="307" y="1" type="move" name="bottom"/>
    </contour>
  </outline>
</glyph>
<glyph name="Z" format="1">
  <advance width="589"/>
  <unicode hex="005A"/>
  <outline>
    <contour>
      <point x="82" y="46" type="line"/>
      <point x="177" y="28"/>
      <point x="242" y="-14"/>
      <point x="332" y="-14" type="curve" smooth="yes"/>
      <point x="387" y="-14"/>
      <point x="435" y="3"/>
      <point x="495" y="53" type="curve"/>
      <point x="460" y="92" type="line"/>
      <point x="422" y="60"/>
      <point x="380" y="39"/>
      <point x="331" y="39" type="curve" smooth="yes"/>
      <point x="274" y="39"/>
      <point x="206" y="71"/>
      <point x="144" y="84" type="curve" smooth="yes"/>
      <point x="114" y="90" type="line"/>
      <point x="550" y="681" type="line"/>
      <point x="143" y="681" type="line"/>
      <point x="135" y="628" type="line"/>
      <point x="447" y="628" type="line"/>
      <point x="-7" y="12" type="line"/>
      <point x="36" y="-15" type="line"/>
    </contour>
    <contour>
      <point x="356" y="683" type="move" name="top"/>
    </contour>
  </outline>
</glyph>
<glyph name="bracketleft" format="1">
  <advance width="350"/>
  <unicode hex="005B"/>
  <outline>
    <contour>
      <point x="261" y="-174" type="line"/>
      <point x="269" y="-117" type="line"/>
      <point x="92" y="-117" type="line"/>
      <point x="206" y="693" type="line"/>
      <point x="383" y="693" type="line"/>
      <point x="391" y="750" type="line"/>
      <point x="153" y="750" type="line"/>
      <point x="23" y="-174" type="line"/>
    </contour>
  </outline>
</glyph>
<glyph name="backslash" format="2">
	<advance width="295"/>
	<unicode hex="005C"/>
	<outline>
		<contour>
			<point x="179" y="-70" type="line"/>
			<point x="243" y="-70" type="line"/>
			<point x="139" y="750" type="line"/>
			<point x="76" y="750" type="line"/>
		</contour>
	</outline>
</glyph>
<glyph name="bracketright" format="2">
	<advance width="350"/>
	<unicode hex="005D"/>
	<outline>
		<contour>
			<point x="-31" y="-174" type="line"/>
			<point x="207" y="-174" type="line"/>
			<point x="337" y="750" type="line"/>
			<point x="99" y="750" type="line"/>
			<point x="91" y="693" type="line"/>
			<point x="268" y="693" type="line"/>
			<point x="154" y="-117" type="line"/>
			<point x="-23" y="-117" type="line"/>
		</contour>
	</outline>
</glyph>
<glyph name="asciicircum" format="1">
  <advance width="464"/>
  <unicode hex="005E"/>
  <outline>
    <contour>
      <point x="431" y="363" type="line"/>
      <point x="291" y="615" type="line"/>
      <point x="271" y="615" type="line"/>
      <point x="61" y="363" type="line"/>
      <point x="106" y="330" type="line"/>
      <point x="270" y="524" type="line"/>
      <point x="378" y="328" type="line"/>
    </contour>
  </outline>
</glyph>
<glyph name="underscore" format="2">
	<advance width="605"/>
	<unicode hex="005F"/>
	<outline>
		<contour>
			<point x="31" y="-133" type="line"/>
			<point x="471" y="-133" type="line"/>
			<point x="479" y="-78" type="line"/>
			<point x="39" y="-78" type="line"/>
		</contour>
	</outline>
</glyph>
<glyph name="grave" format="1">
  <advance width="260"/>
  <unicode hex="0060"/>
  <outline>
    <contour>
      <point x="261" y="611" type="line"/>
      <point x="119" y="736" type="line"/>
      <point x="76" y="687" type="line"/>
      <point x="235" y="577" type="line"/>
    </contour>
    <contour>
      <point x="234" y="500" type="move" name="_top"/>
    </contour>
  </outline>
</glyph>
<glyph name="a" format="1">
  <advance width="613"/>
  <unicode hex="0061"/>
  <outline>
    <contour>
      <point x="284" y="-10"/>
      <point x="342" y="13"/>
      <point x="382" y="69" type="curve"/>
      <point x="381" y="26"/>
      <point x="415" y="-10"/>
      <point x="463" y="-10" type="curve" smooth="yes"/>
      <point x="487" y="-10"/>
      <point x="517" y="0"/>
      <point x="539" y="29" type="curve"/>
      <point x="497" y="62" type="line"/>
      <point x="488" y="51"/>
      <point x="475" y="45"/>
      <point x="462" y="45" type="curve" smooth="yes"/>
      <point x="447" y="45"/>
      <point x="433" y="56"/>
      <point x="436" y="78" type="curve" smooth="yes"/>
      <point x="495" y="499" type="line"/>
      <point x="438" y="499" type="line"/>
      <point x="403" y="504"/>
      <point x="349" y="508"/>
      <point x="317" y="508" type="curve" smooth="yes"/>
      <point x="166" y="508"/>
      <point x="62" y="402"/>
      <point x="41" y="250" type="curve" smooth="yes"/>
      <point x="39" y="233"/>
      <point x="37" y="215"/>
      <point x="37" y="199" type="curve" smooth="yes"/>
      <point x="37" y="83"/>
      <point x="95" y="-10"/>
      <point x="222" y="-10" type="curve" smooth="yes"/>
    </contour>
    <contour>
      <point x="132" y="42"/>
      <point x="94" y="116"/>
      <point x="94" y="201" type="curve" smooth="yes"/>
      <point x="94" y="215"/>
      <point x="95" y="230"/>
      <point x="97" y="244" type="curve" smooth="yes"/>
      <point x="114" y="362"/>
      <point x="191" y="456"/>
      <point x="312" y="456" type="curve" smooth="yes"/>
      <point x="345" y="456"/>
      <point x="404" y="448"/>
      <point x="435" y="448" type="curve"/>
      <point x="397" y="190" type="line" smooth="yes"/>
      <point x="393" y="165"/>
      <point x="384" y="143"/>
      <point x="372" y="126" type="curve" smooth="yes"/>
      <point x="343" y="78"/>
      <point x="288" y="42"/>
      <point x="223" y="42" type="curve" smooth="yes"/>
    </contour>
    <contour>
      <point x="517" y="10" type="move" name="ogonek"/>
    </contour>
    <contour>
      <point x="219" y="-8" type="move" name="bottom"/>
    </contour>
    <contour>
      <point x="349" y="508" type="move" name="top"/>
    </contour>
  </outline>
</glyph>
<glyph name="b" format="1">
  <advance width="514"/>
  <unicode hex="0062"/>
  <outline>
    <contour>
      <point x="379" y="-10"/>
      <point x="464" y="108"/>
      <point x="483" y="245" type="curve" smooth="yes"/>
      <point x="486" y="264"/>
      <point x="487" y="282"/>
      <point x="487" y="299" type="curve" smooth="yes"/>
      <point x="487" y="424"/>
      <point x="419" y="508"/>
      <point x="305" y="508" type="curve" smooth="yes"/>
      <point x="249" y="508"/>
      <point x="188" y="487"/>
      <point x="146" y="434" type="curve"/>
      <point x="188" y="726" type="line"/>
      <point x="133" y="726" type="line"/>
      <point x="33" y="10" type="line"/>
      <point x="51" y="4"/>
      <point x="86" y="-2"/>
      <point x="103" y="-4" type="curve" smooth="yes"/>
      <point x="132" y="-8"/>
      <point x="173" y="-10"/>
      <point x="199" y="-10" type="curve" smooth="yes"/>
    </contour>
    <contour>
      <point x="185" y="42"/>
      <point x="162" y="43"/>
      <point x="143" y="45" type="curve" smooth="yes"/>
      <point x="93" y="51" type="line"/>
      <point x="132" y="326" type="line"/>
      <point x="140" y="364"/>
      <point x="162" y="397"/>
      <point x="201" y="422" type="curve" smooth="yes"/>
      <point x="230" y="443"/>
      <point x="267" y="456"/>
      <point x="303" y="456" type="curve" smooth="yes"/>
      <point x="376" y="456"/>
      <point x="431" y="401"/>
      <point x="431" y="299" type="curve" smooth="yes"/>
      <point x="431" y="285"/>
      <point x="429" y="269"/>
      <point x="427" y="252" type="curve" smooth="yes"/>
      <point x="412" y="142"/>
      <point x="350" y="42"/>
      <point x="198" y="42" type="curve" smooth="yes"/>
    </contour>
  </outline>
</glyph>
<glyph name="c" format="1">
  <advance width="520"/>
  <unicode hex="0063"/>
  <outline>
    <contour>
      <point x="297" y="-6"/>
      <point x="359" y="11"/>
      <point x="424" y="51" type="curve"/>
      <point x="401" y="95" type="line"/>
      <point x="349" y="69"/>
      <point x="295" y="46"/>
      <point x="234" y="46" type="curve" smooth="yes"/>
      <point x="142" y="46"/>
      <point x="92" y="99"/>
      <point x="92" y="191" type="curve" smooth="yes"/>
      <point x="92" y="204"/>
      <point x="93" y="218"/>
      <point x="95" y="233" type="curve" smooth="yes"/>
      <point x="110" y="340"/>
      <point x="177" y="463"/>
      <point x="297" y="463" type="curve" smooth="yes"/>
      <point x="352" y="463"/>
      <point x="399" y="436"/>
      <point x="399" y="378" type="curve" smooth="yes"/>
      <point x="399" y="373"/>
      <point x="399" y="367"/>
      <point x="398" y="362" type="curve"/>
      <point x="454" y="358" type="line"/>
      <point x="455" y="365"/>
      <point x="455" y="372"/>
      <point x="455" y="378" type="curve" smooth="yes"/>
      <point x="455" y="460"/>
      <point x="381" y="512"/>
      <point x="292" y="512" type="curve" smooth="yes"/>
      <point x="158" y="512"/>
      <point x="61" y="393"/>
      <point x="40" y="242" type="curve" smooth="yes"/>
      <point x="37" y="224"/>
      <point x="36" y="206"/>
      <point x="36" y="189" type="curve" smooth="yes"/>
      <point x="36" y="71"/>
      <point x="101" y="-6"/>
      <point x="235" y="-6" type="curve" smooth="yes"/>
    </contour>
    <contour>
      <point x="293" y="500" type="move" name="top"/>
    </contour>
    <contour>
      <point x="225" y="0" type="move" name="bottom"/>
    </contour>
  </outline>
</glyph>
<glyph name="d" format="1">
  <advance width="613"/>
  <unicode hex="0064"/>
  <outline>
    <contour>
      <point x="284" y="-10"/>
      <point x="342" y="13"/>
      <point x="382" y="69" type="curve"/>
      <point x="381" y="26"/>
      <point x="415" y="-10"/>
      <point x="463" y="-10" type="curve" smooth="yes"/>
      <point x="487" y="-10"/>
      <point x="517" y="0"/>
      <point x="539" y="29" type="curve"/>
      <point x="497" y="62" type="line"/>
      <point x="488" y="51"/>
      <point x="476" y="45"/>
      <point x="463" y="45" type="curve" smooth="yes"/>
      <point x="445" y="45"/>
      <point x="433" y="60"/>
      <point x="436" y="78" type="curve" smooth="yes"/>
      <point x="527" y="727" type="line"/>
      <point x="472" y="727" type="line"/>
      <point x="438" y="499" type="line"/>
      <point x="403" y="504"/>
      <point x="349" y="508"/>
      <point x="317" y="508" type="curve" smooth="yes"/>
      <point x="166" y="508"/>
      <point x="62" y="401"/>
      <point x="41" y="250" type="curve" smooth="yes"/>
      <point x="38" y="232"/>
      <point x="37" y="215"/>
      <point x="37" y="198" type="curve" smooth="yes"/>
      <point x="37" y="82"/>
      <point x="98" y="-10"/>
      <point x="223" y="-10" type="curve" smooth="yes"/>
    </contour>
    <contour>
      <point x="134" y="42"/>
      <point x="94" y="111"/>
      <point x="94" y="201" type="curve" smooth="yes"/>
      <point x="94" y="216"/>
      <point x="96" y="232"/>
      <point x="98" y="249" type="curve" smooth="yes"/>
      <point x="114" y="367"/>
      <point x="182" y="456"/>
      <point x="339" y="456" type="curve" smooth="yes"/>
      <point x="384" y="456"/>
      <point x="414" y="448"/>
      <point x="435" y="446" type="curve"/>
      <point x="397" y="190" type="line" smooth="yes"/>
      <point x="393" y="165"/>
      <point x="384" y="143"/>
      <point x="372" y="126" type="curve" smooth="yes"/>
      <point x="340" y="74"/>
      <point x="285" y="42"/>
      <point x="223" y="42" type="curve" smooth="yes"/>
    </contour>
    <contour>
      <point x="272" y="0" type="move" name="center"/>
    </contour>
  </outline>
</glyph>
<glyph name="e" format="1">
  <advance width="522"/>
  <unicode hex="0065"/>
  <outline>
    <contour>
      <point x="302" y="-10"/>
      <point x="367" y="12"/>
      <point x="423" y="47" type="curve"/>
      <point x="401" y="91" type="line"/>
      <point x="348" y="65"/>
      <point x="296" y="42"/>
      <point x="232" y="42" type="curve" smooth="yes"/>
      <point x="133" y="42"/>
      <point x="91" y="97"/>
      <point x="94" y="198" type="curve"/>
      <point x="214" y="200" type="line" smooth="yes"/>
      <point x="357" y="200"/>
      <point x="455" y="260"/>
      <point x="455" y="373" type="curve" smooth="yes"/>
      <point x="455" y="457"/>
      <point x="385" y="508"/>
      <point x="293" y="508" type="curve" smooth="yes"/>
      <point x="138" y="508"/>
      <point x="57" y="361"/>
      <point x="39" y="234" type="curve" smooth="yes"/>
      <point x="36" y="216"/>
      <point x="35" y="199"/>
      <point x="35" y="183" type="curve" smooth="yes"/>
      <point x="35" y="71"/>
      <point x="96" y="-10"/>
      <point x="232" y="-10" type="curve" smooth="yes"/>
    </contour>
    <contour>
      <point x="109" y="331"/>
      <point x="175" y="459"/>
      <point x="297" y="459" type="curve" smooth="yes"/>
      <point x="351" y="459"/>
      <point x="399" y="433"/>
      <point x="399" y="376" type="curve" smooth="yes"/>
      <point x="399" y="370"/>
      <point x="399" y="365"/>
      <point x="398" y="359" type="curve" smooth="yes"/>
      <point x="387" y="280"/>
      <point x="311" y="252"/>
      <point x="217" y="252" type="curve" smooth="yes"/>
      <point x="98" y="250" type="line"/>
    </contour>
    <contour>
      <point x="423" y="48" type="move" name="ogonek"/>
    </contour>
    <contour>
      <point x="226" y="0" type="move" name="bottom"/>
    </contour>
    <contour>
      <point x="294" y="508" type="move" name="top"/>
    </contour>
  </outline>
</glyph>
<glyph name="f" format="1">
  <advance width="399"/>
  <unicode hex="0066"/>
  <outline>
    <contour>
      <point x="35" y="-260" type="line"/>
      <point x="100" y="200" type="line"/>
      <point x="248" y="200" type="line"/>
      <point x="255" y="252" type="line"/>
      <point x="107" y="252" type="line"/>
      <point x="130" y="415" type="line"/>
      <point x="180" y="415" type="line" smooth="yes"/>
      <point x="300" y="415"/>
      <point x="386" y="474"/>
      <point x="403" y="588" type="curve" smooth="yes"/>
      <point x="404" y="599"/>
      <point x="405" y="609"/>
      <point x="405" y="618" type="curve" smooth="yes"/>
      <point x="405" y="697"/>
      <point x="358" y="742"/>
      <point x="277" y="742" type="curve" smooth="yes"/>
      <point x="151" y="742"/>
      <point x="106" y="633"/>
      <point x="88" y="504" type="curve" smooth="yes"/>
      <point x="-20" y="-260" type="line"/>
    </contour>
    <contour>
      <point x="143" y="503" type="line" smooth="yes"/>
      <point x="155" y="595"/>
      <point x="185" y="690"/>
      <point x="276" y="690" type="curve" smooth="yes"/>
      <point x="323" y="690"/>
      <point x="348" y="664"/>
      <point x="348" y="617" type="curve" smooth="yes"/>
      <point x="348" y="611"/>
      <point x="348" y="604"/>
      <point x="347" y="597" type="curve" smooth="yes"/>
      <point x="336" y="518"/>
      <point x="275" y="467"/>
      <point x="183" y="467" type="curve" smooth="yes"/>
      <point x="137" y="467" type="line"/>
    </contour>
  </outline>
</glyph>
<glyph name="g" format="1">
  <advance width="543"/>
  <unicode hex="0067"/>
  <outline>
    <contour>
      <point x="325" y="-281"/>
      <point x="394" y="-217"/>
      <point x="409" y="-114" type="curve" smooth="yes"/>
      <point x="495" y="499" type="line"/>
      <point x="442" y="499" type="line"/>
      <point x="380" y="506" type="line" smooth="yes"/>
      <point x="356" y="508"/>
      <point x="332" y="509"/>
      <point x="316" y="509" type="curve" smooth="yes"/>
      <point x="168" y="509"/>
      <point x="61" y="389"/>
      <point x="43" y="261" type="curve" smooth="yes"/>
      <point x="41" y="247"/>
      <point x="40" y="231"/>
      <point x="40" y="215" type="curve" smooth="yes"/>
      <point x="40" y="150"/>
      <point x="58" y="74"/>
      <point x="111" y="29" type="curve" smooth="yes"/>
      <point x="129" y="12"/>
      <point x="150" y="0"/>
      <point x="173" y="-5" type="curve"/>
      <point x="131" y="-41"/>
      <point x="109" y="-93"/>
      <point x="109" y="-144" type="curve" smooth="yes"/>
      <point x="109" y="-214"/>
      <point x="148" y="-281"/>
      <point x="238" y="-281" type="curve" smooth="yes"/>
    </contour>
    <contour>
      <point x="185" y="-228"/>
      <point x="161" y="-186"/>
      <point x="161" y="-143" type="curve" smooth="yes"/>
      <point x="161" y="-112"/>
      <point x="173" y="-62"/>
      <point x="233" y="-31" type="curve" smooth="yes"/>
      <point x="295" y="5"/>
      <point x="310" y="10"/>
      <point x="331" y="25" type="curve" smooth="yes"/>
      <point x="378" y="63"/>
      <point x="373" y="61"/>
      <point x="382" y="68" type="curve"/>
      <point x="356" y="-114" type="line"/>
      <point x="343" y="-176"/>
      <point x="309" y="-228"/>
      <point x="243" y="-228" type="curve" smooth="yes"/>
    </contour>
    <contour>
      <point x="135" y="42"/>
      <point x="90" y="122"/>
      <point x="90" y="208" type="curve" smooth="yes"/>
      <point x="90" y="220"/>
      <point x="91" y="232"/>
      <point x="93" y="244" type="curve" smooth="yes"/>
      <point x="108" y="350"/>
      <point x="190" y="456"/>
      <point x="310" y="456" type="curve" smooth="yes"/>
      <point x="341" y="456" type="line"/>
      <point x="408" y="452" type="line"/>
      <point x="435" y="450" type="line"/>
      <point x="397" y="181" type="line" smooth="yes"/>
      <point x="396" y="171"/>
      <point x="388" y="154"/>
      <point x="378" y="141" type="curve" smooth="yes"/>
      <point x="353" y="100"/>
      <point x="305" y="68"/>
      <point x="275" y="56" type="curve" smooth="yes"/>
      <point x="257" y="47"/>
      <point x="237" y="42"/>
      <point x="217" y="42" type="curve" smooth="yes"/>
    </contour>
    <contour>
      <point x="315" y="509" type="move" name="top"/>
    </contour>
  </outline>
</glyph>
<glyph name="h" format="1">
  <advance width="565"/>
  <unicode hex="0068"/>
  <outline>
    <contour>
      <point x="485" y="-7"/>
      <point x="512" y="5"/>
      <point x="533" y="31" type="curve"/>
      <point x="490" y="64" type="line"/>
      <point x="482" y="54"/>
      <point x="471" y="48"/>
      <point x="457" y="48" type="curve" smooth="yes"/>
      <point x="441" y="48"/>
      <point x="427" y="58"/>
      <point x="430" y="80" type="curve" smooth="yes"/>
      <point x="468" y="348" type="line" smooth="yes"/>
      <point x="470" y="361"/>
      <point x="471" y="373"/>
      <point x="471" y="384" type="curve" smooth="yes"/>
      <point x="471" y="466"/>
      <point x="422" y="511"/>
      <point x="324" y="511" type="curve" smooth="yes"/>
      <point x="255" y="511"/>
      <point x="197" y="484"/>
      <point x="146" y="424" type="curve"/>
      <point x="190" y="729" type="line"/>
      <point x="135" y="729" type="line"/>
      <point x="33" y="3" type="line"/>
      <point x="88" y="3" type="line"/>
      <point x="139" y="357" type="line"/>
      <point x="194" y="419"/>
      <point x="243" y="459"/>
      <point x="317" y="459" type="curve" smooth="yes"/>
      <point x="380" y="459"/>
      <point x="415" y="434"/>
      <point x="415" y="375" type="curve" smooth="yes"/>
      <point x="415" y="367"/>
      <point x="414" y="358"/>
      <point x="413" y="349" type="curve" smooth="yes"/>
      <point x="376" y="84" type="line" smooth="yes"/>
      <point x="375" y="80"/>
      <point x="375" y="75"/>
      <point x="375" y="71" type="curve" smooth="yes"/>
      <point x="375" y="27"/>
      <point x="408" y="-7"/>
      <point x="457" y="-7" type="curve" smooth="yes"/>
    </contour>
    <contour>
      <point x="169" y="605" type="move" name="center"/>
    </contour>
    <contour>
      <point x="346" y="500" type="move" name="top"/>
    </contour>
  </outline>
</glyph>
<glyph name="i" format="1">
  <advance width="227"/>
  <unicode hex="0069"/>
  <outline>
    <component base="idotless"/>
    <component base="dotaccent" xOffset="30"/>
    <contour>
      <point x="96" y="0" type="move" name="bottom"/>
    </contour>
  </outline>
</glyph>
<glyph name="k" format="1">
  <advance width="584"/>
  <unicode hex="006B"/>
  <outline>
    <contour>
      <point x="74" y="1" type="line"/>
      <point x="102" y="201" type="line"/>
      <point x="273" y="201" type="line"/>
      <point x="348" y="44" type="line" smooth="yes"/>
      <point x="358" y="17"/>
      <point x="389" y="1"/>
      <point x="420" y="1" type="curve" smooth="yes"/>
      <point x="466" y="1"/>
      <point x="507" y="39"/>
      <point x="517" y="85" type="curve"/>
      <point x="462" y="92" type="line"/>
      <point x="459" y="72"/>
      <point x="443" y="58"/>
      <point x="421" y="58" type="curve" smooth="yes"/>
      <point x="413" y="58"/>
      <point x="403" y="60"/>
      <point x="398" y="68" type="curve"/>
      <point x="328" y="215" type="line"/>
      <point x="381" y="242"/>
      <point x="429" y="279"/>
      <point x="440" y="354" type="curve" smooth="yes"/>
      <point x="441" y="363"/>
      <point x="442" y="372"/>
      <point x="442" y="380" type="curve" smooth="yes"/>
      <point x="442" y="459"/>
      <point x="389" y="511"/>
      <point x="304" y="511" type="curve" smooth="yes"/>
      <point x="237" y="511"/>
      <point x="174" y="476"/>
      <point x="131" y="411" type="curve"/>
      <point x="176" y="727" type="line"/>
      <point x="121" y="727" type="line"/>
      <point x="19" y="1" type="line"/>
    </contour>
    <contour>
      <point x="115" y="277"/>
      <point x="122" y="303"/>
      <point x="133" y="327" type="curve" smooth="yes"/>
      <point x="169" y="411"/>
      <point x="231" y="460"/>
      <point x="303" y="460" type="curve" smooth="yes"/>
      <point x="359" y="460"/>
      <point x="390" y="428"/>
      <point x="390" y="382" type="curve" smooth="yes"/>
      <point x="390" y="327"/>
      <point x="357" y="287"/>
      <point x="307" y="268" type="curve" smooth="yes"/>
      <point x="285" y="258"/>
      <point x="260" y="253"/>
      <point x="225" y="253" type="curve" smooth="yes"/>
      <point x="111" y="251" type="line"/>
    </contour>
    <contour>
      <point x="301" y="508" type="move" name="top"/>
    </contour>
    <contour>
      <point x="257" y="0" type="move" name="bottom"/>
    </contour>
  </outline>
</glyph>
<glyph name="l" format="1">
  <advance width="261"/>
  <unicode hex="006C"/>
  <outline>
    <contour>
      <point x="136" y="-9"/>
      <point x="167" y="5"/>
      <point x="187" y="30" type="curve"/>
      <point x="144" y="62" type="line"/>
      <point x="135" y="52"/>
      <point x="122" y="46"/>
      <point x="110" y="46" type="curve" smooth="yes"/>
      <point x="95" y="46"/>
      <point x="81" y="57"/>
      <point x="84" y="79" type="curve" smooth="yes"/>
      <point x="175" y="726" type="line"/>
      <point x="120" y="726" type="line"/>
      <point x="30" y="83" type="line" smooth="yes"/>
      <point x="29" y="79"/>
      <point x="29" y="75"/>
      <point x="29" y="71" type="curve" smooth="yes"/>
      <point x="29" y="27"/>
      <point x="63" y="-9"/>
      <point x="109" y="-9" type="curve" smooth="yes"/>
    </contour>
    <contour>
      <point x="149" y="726" type="move" name="top"/>
    </contour>
    <contour>
      <point x="96" y="0" type="move" name="bottom"/>
    </contour>
    <contour>
      <point x="175" y="726" type="move" name="topright"/>
    </contour>
  </outline>
</glyph>
<glyph name="m" format="1">
  <advance width="896"/>
  <unicode hex="006D"/>
  <outline>
    <contour>
      <point x="775" y="-11"/>
      <point x="800" y="2"/>
      <point x="822" y="28" type="curve"/>
      <point x="779" y="60" type="line"/>
      <point x="770" y="50"/>
      <point x="758" y="44"/>
      <point x="746" y="44" type="curve" smooth="yes"/>
      <point x="731" y="44"/>
      <point x="716" y="55"/>
      <point x="719" y="77" type="curve" smooth="yes"/>
      <point x="757" y="349" type="line" smooth="yes"/>
      <point x="758" y="359"/>
      <point x="759" y="368"/>
      <point x="759" y="377" type="curve" smooth="yes"/>
      <point x="759" y="456"/>
      <point x="707" y="508"/>
      <point x="621" y="508" type="curve" smooth="yes"/>
      <point x="555" y="508"/>
      <point x="499" y="476"/>
      <point x="452" y="415" type="curve"/>
      <point x="439" y="476"/>
      <point x="394" y="508"/>
      <point x="325" y="508" type="curve" smooth="yes"/>
      <point x="258" y="508"/>
      <point x="200" y="476"/>
      <point x="157" y="416" type="curve"/>
      <point x="155" y="452"/>
      <point x="143" y="481"/>
      <point x="116" y="504" type="curve"/>
      <point x="78" y="473" type="line"/>
      <point x="97" y="453"/>
      <point x="105" y="426"/>
      <point x="105" y="392" type="curve" smooth="yes"/>
      <point x="105" y="381"/>
      <point x="104" y="368"/>
      <point x="102" y="355" type="curve" smooth="yes"/>
      <point x="52" y="0" type="line"/>
      <point x="107" y="0" type="line"/>
      <point x="158" y="357" type="line"/>
      <point x="188" y="411"/>
      <point x="253" y="456"/>
      <point x="321" y="456" type="curve" smooth="yes"/>
      <point x="376" y="456"/>
      <point x="402" y="425"/>
      <point x="402" y="371" type="curve" smooth="yes"/>
      <point x="402" y="360"/>
      <point x="401" y="350"/>
      <point x="399" y="338" type="curve" smooth="yes"/>
      <point x="352" y="0" type="line"/>
      <point x="407" y="0" type="line"/>
      <point x="458" y="356" type="line"/>
      <point x="505" y="426"/>
      <point x="559" y="456"/>
      <point x="621" y="456" type="curve" smooth="yes"/>
      <point x="676" y="456"/>
      <point x="703" y="432"/>
      <point x="703" y="373" type="curve" smooth="yes"/>
      <point x="703" y="367"/>
      <point x="703" y="360"/>
      <point x="702" y="352" type="curve" smooth="yes"/>
      <point x="664" y="81" type="line" smooth="yes"/>
      <point x="664" y="77"/>
      <point x="663" y="73"/>
      <point x="663" y="69" type="curve" smooth="yes"/>
      <point x="663" y="26"/>
      <point x="694" y="-11"/>
      <point x="745" y="-11" type="curve" smooth="yes"/>
    </contour>
  </outline>
</glyph>
<glyph name="n" format="1">
  <advance width="609"/>
  <unicode hex="006E"/>
  <outline>
    <contour>
      <point x="488" y="-13"/>
      <point x="513" y="0"/>
      <point x="535" y="26" type="curve"/>
      <point x="492" y="58" type="line"/>
      <point x="483" y="48"/>
      <point x="471" y="42"/>
      <point x="459" y="42" type="curve" smooth="yes"/>
      <point x="444" y="42"/>
      <point x="428" y="53"/>
      <point x="431" y="75" type="curve" smooth="yes"/>
      <point x="471" y="360" type="line" smooth="yes"/>
      <point x="472" y="367"/>
      <point x="472" y="374"/>
      <point x="472" y="381" type="curve" smooth="yes"/>
      <point x="472" y="467"/>
      <point x="420" y="508"/>
      <point x="327" y="508" type="curve" smooth="yes"/>
      <point x="259" y="508"/>
      <point x="199" y="483"/>
      <point x="141" y="412" type="curve"/>
      <point x="140" y="448"/>
      <point x="128" y="482"/>
      <point x="99" y="504" type="curve"/>
      <point x="61" y="473" type="line"/>
      <point x="80" y="453"/>
      <point x="88" y="426"/>
      <point x="88" y="392" type="curve" smooth="yes"/>
      <point x="88" y="381"/>
      <point x="87" y="368"/>
      <point x="85" y="355" type="curve" smooth="yes"/>
      <point x="35" y="0" type="line"/>
      <point x="90" y="0" type="line"/>
      <point x="141" y="354" type="line"/>
      <point x="194" y="414"/>
      <point x="246" y="456"/>
      <point x="323" y="456" type="curve" smooth="yes"/>
      <point x="386" y="456"/>
      <point x="416" y="430"/>
      <point x="416" y="371" type="curve" smooth="yes"/>
      <point x="416" y="361"/>
      <point x="415" y="350"/>
      <point x="413" y="338" type="curve" smooth="yes"/>
      <point x="377" y="79" type="line" smooth="yes"/>
      <point x="376" y="75"/>
      <point x="376" y="70"/>
      <point x="376" y="66" type="curve" smooth="yes"/>
      <point x="376" y="23"/>
      <point x="407" y="-13"/>
      <point x="458" y="-13" type="curve" smooth="yes"/>
    </contour>
    <contour>
      <point x="324" y="508" type="move" name="top"/>
    </contour>
    <contour>
      <point x="237" y="0" type="move" name="bottom"/>
    </contour>
  </outline>
</glyph>
<glyph name="o" format="2">
	<advance width="555"/>
	<unicode hex="006F"/>
	<anchor x="399" y="40" name="ogonek"/>
	<anchor x="315" y="508" name="top"/>
	<anchor x="524" y="342" name="horn"/>
	<anchor x="243" y="2" name="bottom"/>
	<outline>
		<contour>
			<point x="245" y="-10" type="curve" smooth="yes"/>
			<point x="389" y="-10"/>
			<point x="505" y="93"/>
			<point x="526" y="244" type="curve" smooth="yes"/>
			<point x="528" y="260"/>
			<point x="529" y="275"/>
			<point x="529" y="290" type="curve" smooth="yes"/>
			<point x="529" y="419"/>
			<point x="445" y="508"/>
			<point x="311" y="508" type="curve" smooth="yes"/>
			<point x="163" y="508"/>
			<point x="51" y="397"/>
			<point x="30" y="251" type="curve" smooth="yes"/>
			<point x="28" y="236"/>
			<point x="27" y="221"/>
			<point x="27" y="207" type="curve" smooth="yes"/>
			<point x="27" y="80"/>
			<point x="109" y="-10"/>
		</contour>
		<contour>
			<point x="246" y="42" type="curve" smooth="yes"/>
			<point x="143" y="42"/>
			<point x="83" y="107"/>
			<point x="83" y="206" type="curve" smooth="yes"/>
			<point x="83" y="218"/>
			<point x="84" y="231"/>
			<point x="86" y="244" type="curve" smooth="yes"/>
			<point x="103" y="362"/>
			<point x="185" y="456"/>
			<point x="312" y="456" type="curve" smooth="yes"/>
			<point x="413" y="456"/>
			<point x="474" y="394"/>
			<point x="474" y="294" type="curve" smooth="yes"/>
			<point x="474" y="282"/>
			<point x="473" y="269"/>
			<point x="471" y="256" type="curve" smooth="yes"/>
			<point x="454" y="135"/>
			<point x="370" y="42"/>
		</contour>
	</outline>
</glyph>
<glyph name="p" format="1">
  <advance width="558"/>
  <unicode hex="0070"/>
  <outline>
    <contour>
      <point x="53" y="-261" type="line"/>
      <point x="92" y="-1" type="line"/>
      <point x="127" y="-6"/>
      <point x="179" y="-10"/>
      <point x="211" y="-10" type="curve" smooth="yes"/>
      <point x="364" y="-10"/>
      <point x="466" y="97"/>
      <point x="488" y="248" type="curve" smooth="yes"/>
      <point x="490" y="265"/>
      <point x="492" y="282"/>
      <point x="492" y="299" type="curve" smooth="yes"/>
      <point x="492" y="416"/>
      <point x="432" y="508"/>
      <point x="305" y="508" type="curve" smooth="yes"/>
      <point x="242" y="508"/>
      <point x="180" y="485"/>
      <point x="140" y="421" type="curve"/>
      <point x="137" y="452"/>
      <point x="127" y="480"/>
      <point x="99" y="504" type="curve"/>
      <point x="61" y="473" type="line"/>
      <point x="80" y="453"/>
      <point x="88" y="426"/>
      <point x="88" y="392" type="curve" smooth="yes"/>
      <point x="88" y="381"/>
      <point x="87" y="368"/>
      <point x="85" y="355" type="curve" smooth="yes"/>
      <point x="-2" y="-261" type="line"/>
    </contour>
    <contour>
      <point x="193" y="42"/>
      <point x="176" y="43"/>
      <point x="95" y="51" type="curve"/>
      <point x="136" y="326" type="line"/>
      <point x="153" y="403"/>
      <point x="233" y="456"/>
      <point x="308" y="456" type="curve" smooth="yes"/>
      <point x="392" y="456"/>
      <point x="434" y="387"/>
      <point x="434" y="296" type="curve" smooth="yes"/>
      <point x="434" y="281"/>
      <point x="433" y="266"/>
      <point x="431" y="250" type="curve" smooth="yes"/>
      <point x="414" y="128"/>
      <point x="338" y="42"/>
      <point x="206" y="42" type="curve" smooth="yes"/>
    </contour>
  </outline>
</glyph>
<glyph name="q" format="1">
  <advance width="543"/>
  <unicode hex="0071"/>
  <outline>
    <contour>
      <point x="386" y="-261" type="line"/>
      <point x="490" y="488" type="line"/>
      <point x="442" y="502"/>
      <point x="374" y="508"/>
      <point x="331" y="508" type="curve" smooth="yes"/>
      <point x="159" y="508"/>
      <point x="62" y="403"/>
      <point x="40" y="252" type="curve" smooth="yes"/>
      <point x="37" y="234"/>
      <point x="36" y="216"/>
      <point x="36" y="199" type="curve" smooth="yes"/>
      <point x="36" y="80"/>
      <point x="97" y="-10"/>
      <point x="220" y="-10" type="curve" smooth="yes"/>
      <point x="279" y="-10"/>
      <point x="339" y="12"/>
      <point x="378" y="63" type="curve"/>
      <point x="331" y="-261" type="line"/>
    </contour>
    <contour>
      <point x="135" y="42"/>
      <point x="93" y="106"/>
      <point x="93" y="199" type="curve" smooth="yes"/>
      <point x="93" y="215"/>
      <point x="94" y="232"/>
      <point x="97" y="250" type="curve" smooth="yes"/>
      <point x="114" y="369"/>
      <point x="179" y="455"/>
      <point x="336" y="455" type="curve" smooth="yes"/>
      <point x="368" y="455"/>
      <point x="403" y="451"/>
      <point x="433" y="446" type="curve"/>
      <point x="392" y="172" type="line"/>
      <point x="373" y="95"/>
      <point x="296" y="42"/>
      <point x="219" y="42" type="curve" smooth="yes"/>
    </contour>
  </outline>
</glyph>
<glyph name="r" format="1">
  <advance width="339"/>
  <unicode hex="0072"/>
  <outline>
    <contour>
      <point x="93" y="0" type="line"/>
      <point x="144" y="356" type="line"/>
      <point x="165" y="387"/>
      <point x="193" y="414"/>
      <point x="213" y="427" type="curve" smooth="yes"/>
      <point x="237" y="446"/>
      <point x="264" y="455"/>
      <point x="304" y="455" type="curve" smooth="yes"/>
      <point x="315" y="455"/>
      <point x="330" y="454"/>
      <point x="356" y="448" type="curve"/>
      <point x="360" y="500" type="line"/>
      <point x="324" y="507"/>
      <point x="316" y="508"/>
      <point x="301" y="508" type="curve" smooth="yes"/>
      <point x="272" y="508"/>
      <point x="243" y="503"/>
      <point x="214" y="488" type="curve" smooth="yes"/>
      <point x="191" y="473"/>
      <point x="166" y="448"/>
      <point x="144" y="416" type="curve"/>
      <point x="142" y="452"/>
      <point x="129" y="481"/>
      <point x="102" y="504" type="curve"/>
      <point x="64" y="473" type="line"/>
      <point x="83" y="453"/>
      <point x="91" y="426"/>
      <point x="91" y="392" type="curve" smooth="yes"/>
      <point x="91" y="381"/>
      <point x="90" y="368"/>
      <point x="88" y="355" type="curve" smooth="yes"/>
      <point x="38" y="0" type="line"/>
    </contour>
    <contour>
      <point x="241" y="501" type="move" name="top"/>
    </contour>
    <contour>
      <point x="65" y="0" type="move" name="bottom"/>
    </contour>
  </outline>
</glyph>
<glyph name="s" format="1">
  <advance width="444"/>
  <unicode hex="0073"/>
  <outline>
    <contour>
      <point x="259" y="-10"/>
      <point x="352" y="29"/>
      <point x="366" y="130" type="curve" smooth="yes"/>
      <point x="367" y="138"/>
      <point x="368" y="146"/>
      <point x="368" y="153" type="curve" smooth="yes"/>
      <point x="368" y="197"/>
      <point x="348" y="227"/>
      <point x="312" y="249" type="curve" smooth="yes"/>
      <point x="246" y="294"/>
      <point x="135" y="305"/>
      <point x="135" y="374" type="curve" smooth="yes"/>
      <point x="135" y="421"/>
      <point x="174" y="456"/>
      <point x="238" y="456" type="curve" smooth="yes"/>
      <point x="267" y="456"/>
      <point x="310" y="449"/>
      <point x="349" y="427" type="curve"/>
      <point x="365" y="476" type="line"/>
      <point x="336" y="496"/>
      <point x="281" y="508"/>
      <point x="238" y="508" type="curve" smooth="yes"/>
      <point x="153" y="508"/>
      <point x="77" y="459"/>
      <point x="77" y="367" type="curve" smooth="yes"/>
      <point x="77" y="276"/>
      <point x="178" y="262"/>
      <point x="254" y="224" type="curve" smooth="yes"/>
      <point x="291" y="204"/>
      <point x="310" y="184"/>
      <point x="310" y="151" type="curve" smooth="yes"/>
      <point x="310" y="147"/>
      <point x="310" y="142"/>
      <point x="309" y="137" type="curve" smooth="yes"/>
      <point x="299" y="68"/>
      <point x="237" y="42"/>
      <point x="174" y="42" type="curve" smooth="yes"/>
      <point x="123" y="42"/>
      <point x="76" y="59"/>
      <point x="35" y="89" type="curve"/>
      <point x="3" y="49" type="line"/>
      <point x="45" y="13"/>
      <point x="100" y="-10"/>
      <point x="169" y="-10" type="curve" smooth="yes"/>
    </contour>
    <contour>
      <point x="241" y="508" type="move" name="top"/>
    </contour>
    <contour>
      <point x="187" y="0" type="move" name="bottom"/>
    </contour>
  </outline>
</glyph>
<glyph name="t" format="1">
  <advance width="365"/>
  <unicode hex="0074"/>
  <outline>
    <contour>
      <point x="205" y="-10"/>
      <point x="251" y="18"/>
      <point x="289" y="70" type="curve"/>
      <point x="250" y="102" type="line"/>
      <point x="224" y="62"/>
      <point x="185" y="42"/>
      <point x="144" y="42" type="curve" smooth="yes"/>
      <point x="102" y="42"/>
      <point x="89" y="64"/>
      <point x="89" y="101" type="curve" smooth="yes"/>
      <point x="89" y="113"/>
      <point x="90" y="126"/>
      <point x="92" y="141" type="curve" smooth="yes"/>
      <point x="134" y="443" type="line"/>
      <point x="292" y="443" type="line"/>
      <point x="300" y="498" type="line"/>
      <point x="142" y="498" type="line"/>
      <point x="160" y="624" type="line"/>
      <point x="105" y="624" type="line"/>
      <point x="37" y="145" type="line" smooth="yes"/>
      <point x="35" y="131"/>
      <point x="34" y="117"/>
      <point x="34" y="104" type="curve" smooth="yes"/>
      <point x="34" y="35"/>
      <point x="65" y="-10"/>
      <point x="144" y="-10" type="curve" smooth="yes"/>
    </contour>
    <contour>
      <point x="193" y="322" type="move" name="center"/>
    </contour>
    <contour>
      <point x="148" y="0" type="move" name="bottom"/>
    </contour>
  </outline>
</glyph>
<glyph name="u" format="1">
  <advance width="624"/>
  <unicode hex="0075"/>
  <outline>
    <contour>
      <point x="502" y="-11"/>
      <point x="527" y="1"/>
      <point x="550" y="27" type="curve"/>
      <point x="506" y="60" type="line"/>
      <point x="498" y="50"/>
      <point x="485" y="44"/>
      <point x="473" y="44" type="curve" smooth="yes"/>
      <point x="458" y="44"/>
      <point x="443" y="55"/>
      <point x="446" y="77" type="curve" smooth="yes"/>
      <point x="506" y="500" type="line"/>
      <point x="451" y="500" type="line"/>
      <point x="399" y="145" type="line"/>
      <point x="342" y="80"/>
      <point x="294" y="44"/>
      <point x="219" y="44" type="curve" smooth="yes"/>
      <point x="156" y="44"/>
      <point x="125" y="70"/>
      <point x="125" y="129" type="curve" smooth="yes"/>
      <point x="125" y="139"/>
      <point x="126" y="150"/>
      <point x="128" y="162" type="curve" smooth="yes"/>
      <point x="159" y="387" type="line" smooth="yes"/>
      <point x="160" y="392"/>
      <point x="160" y="397"/>
      <point x="160" y="402" type="curve" smooth="yes"/>
      <point x="160" y="449"/>
      <point x="127" y="481"/>
      <point x="95" y="507" type="curve"/>
      <point x="60" y="463" type="line"/>
      <point x="77" y="450"/>
      <point x="110" y="425"/>
      <point x="105" y="391" type="curve" smooth="yes"/>
      <point x="70" y="140" type="line" smooth="yes"/>
      <point x="69" y="133"/>
      <point x="69" y="126"/>
      <point x="69" y="119" type="curve" smooth="yes"/>
      <point x="69" y="33"/>
      <point x="121" y="-8"/>
      <point x="214" y="-8" type="curve" smooth="yes"/>
      <point x="283" y="-8"/>
      <point x="335" y="15"/>
      <point x="392" y="79" type="curve"/>
      <point x="392" y="75"/>
      <point x="391" y="72"/>
      <point x="391" y="68" type="curve" smooth="yes"/>
      <point x="391" y="24"/>
      <point x="424" y="-11"/>
      <point x="474" y="-11" type="curve" smooth="yes"/>
    </contour>
    <contour>
      <point x="528" y="10" type="move" name="ogonek"/>
    </contour>
    <contour>
      <point x="300" y="500" type="move" name="top"/>
    </contour>
    <contour>
      <point x="484" y="348" type="move" name="horn"/>
    </contour>
    <contour>
      <point x="219" y="-9" type="move" name="bottom"/>
    </contour>
  </outline>
</glyph>
<glyph name="v" format="1">
  <advance width="426"/>
  <unicode hex="0076"/>
  <outline>
    <contour>
      <point x="213" y="0" type="line"/>
      <point x="446" y="499" type="line"/>
      <point x="391" y="499" type="line"/>
      <point x="197" y="84" type="line"/>
      <point x="136" y="407" type="line" smooth="yes"/>
      <point x="128" y="450"/>
      <point x="108" y="489"/>
      <point x="71" y="515" type="curve"/>
      <point x="37" y="472" type="line"/>
      <point x="57" y="461"/>
      <point x="73" y="438"/>
      <point x="79" y="416" type="curve"/>
      <point x="157" y="0" type="line"/>
    </contour>
  </outline>
</glyph>
<glyph name="w" format="1">
  <advance width="828"/>
  <unicode hex="0077"/>
  <outline>
    <contour>
      <point x="236" y="1" type="line"/>
      <point x="429" y="414" type="line"/>
      <point x="506" y="1" type="line"/>
      <point x="562" y="1" type="line"/>
      <point x="795" y="500" type="line"/>
      <point x="739" y="500" type="line"/>
      <point x="546" y="87" type="line"/>
      <point x="469" y="500" type="line"/>
      <point x="413" y="500" type="line"/>
      <point x="220" y="87" type="line"/>
      <point x="159" y="407" type="line" smooth="yes"/>
      <point x="150" y="454"/>
      <point x="129" y="491"/>
      <point x="95" y="516" type="curve"/>
      <point x="61" y="473" type="line"/>
      <point x="81" y="462"/>
      <point x="97" y="439"/>
      <point x="103" y="417" type="curve"/>
      <point x="179" y="1" type="line"/>
    </contour>
    <contour>
      <point x="441" y="500" type="move" name="top"/>
    </contour>
  </outline>
</glyph>
<glyph name="x" format="1">
  <advance width="558"/>
  <unicode hex="0078"/>
  <outline>
    <contour>
      <point x="436" y="-19"/>
      <point x="478" y="15"/>
      <point x="488" y="66" type="curve"/>
      <point x="432" y="73" type="line"/>
      <point x="430" y="57"/>
      <point x="414" y="38"/>
      <point x="390" y="38" type="curve" smooth="yes"/>
      <point x="377" y="38"/>
      <point x="370" y="44"/>
      <point x="366" y="53" type="curve" smooth="yes"/>
      <point x="273" y="252" type="line"/>
      <point x="462" y="500" type="line"/>
      <point x="394" y="500" type="line"/>
      <point x="239" y="294" type="line"/>
      <point x="140" y="500" type="line"/>
      <point x="75" y="500" type="line"/>
      <point x="199" y="250" type="line"/>
      <point x="5" y="0" type="line"/>
      <point x="72" y="0" type="line"/>
      <point x="231" y="206" type="line"/>
      <point x="317" y="25" type="line" smooth="yes"/>
      <point x="332" y="-5"/>
      <point x="359" y="-19"/>
      <point x="390" y="-19" type="curve" smooth="yes"/>
    </contour>
  </outline>
</glyph>
<glyph name="y" format="1">
  <advance width="527"/>
  <unicode hex="0079"/>
  <outline>
    <contour>
      <point x="321" y="-285"/>
      <point x="390" y="-228"/>
      <point x="405" y="-119" type="curve" smooth="yes"/>
      <point x="441" y="137" type="line"/>
      <point x="493" y="500" type="line"/>
      <point x="438" y="500" type="line"/>
      <point x="391" y="173" type="line" smooth="yes"/>
      <point x="389" y="158"/>
      <point x="386" y="146"/>
      <point x="369" y="128" type="curve" smooth="yes"/>
      <point x="322" y="77"/>
      <point x="274" y="44"/>
      <point x="204" y="44" type="curve" smooth="yes"/>
      <point x="142" y="44"/>
      <point x="112" y="72"/>
      <point x="112" y="129" type="curve" smooth="yes"/>
      <point x="112" y="139"/>
      <point x="113" y="150"/>
      <point x="115" y="162" type="curve" smooth="yes"/>
      <point x="146" y="387" type="line" smooth="yes"/>
      <point x="147" y="392"/>
      <point x="147" y="397"/>
      <point x="147" y="402" type="curve" smooth="yes"/>
      <point x="147" y="447"/>
      <point x="116" y="477"/>
      <point x="82" y="507" type="curve"/>
      <point x="47" y="463" type="line"/>
      <point x="64" y="450"/>
      <point x="95" y="416"/>
      <point x="92" y="391" type="curve" smooth="yes"/>
      <point x="57" y="140" type="line" smooth="yes"/>
      <point x="55" y="130"/>
      <point x="55" y="121"/>
      <point x="55" y="112" type="curve" smooth="yes"/>
      <point x="55" y="43"/>
      <point x="98" y="1"/>
      <point x="176" y="-6" type="curve"/>
      <point x="127" y="-35"/>
      <point x="106" y="-110"/>
      <point x="106" y="-150" type="curve" smooth="yes"/>
      <point x="106" y="-221"/>
      <point x="149" y="-285"/>
      <point x="238" y="-285" type="curve" smooth="yes"/>
    </contour>
    <contour>
      <point x="184" y="-232"/>
      <point x="159" y="-199"/>
      <point x="159" y="-151" type="curve" smooth="yes"/>
      <point x="159" y="-145"/>
      <point x="159" y="-138"/>
      <point x="160" y="-131" type="curve" smooth="yes"/>
      <point x="168" y="-75"/>
      <point x="200" y="-43"/>
      <point x="254" y="-16" type="curve" smooth="yes"/>
      <point x="307" y="10" type="line" smooth="yes"/>
      <point x="327" y="19"/>
      <point x="346" y="32"/>
      <point x="366" y="48" type="curve" smooth="yes"/>
      <point x="378" y="59" type="line"/>
      <point x="352" y="-119" type="line" smooth="yes"/>
      <point x="343" y="-185"/>
      <point x="298" y="-232"/>
      <point x="236" y="-232" type="curve" smooth="yes"/>
    </contour>
    <contour>
      <point x="299" y="500" type="move" name="top"/>
    </contour>
    <contour>
      <point x="476" y="0" type="move" name="bottom"/>
    </contour>
  </outline>
</glyph>
<glyph name="z" format="2">
	<advance width="449"/>
	<unicode hex="007A"/>
	<anchor x="279" y="497" name="top"/>
	<outline>
		<contour>
			<point x="18" y="-20" type="line"/>
			<point x="69" y="41" type="line"/>
			<point x="163" y="9" type="line" smooth="yes"/>
			<point x="202" y="-5"/>
			<point x="247" y="-13"/>
			<point x="287" y="-13" type="curve" smooth="yes"/>
			<point x="333" y="-13"/>
			<point x="366" y="-1"/>
			<point x="411" y="29" type="curve"/>
			<point x="389" y="75" type="line"/>
			<point x="342" y="45"/>
			<point x="317" y="39"/>
			<point x="284" y="39" type="curve" smooth="yes"/>
			<point x="252" y="39"/>
			<point x="215" y="44"/>
			<point x="180" y="58" type="curve" smooth="yes"/>
			<point x="106" y="87" type="line"/>
			<point x="435" y="485" type="line"/>
			<point x="436" y="498" type="line"/>
			<point x="85" y="498" type="line"/>
			<point x="78" y="446" type="line"/>
			<point x="334" y="446" type="line"/>
			<point x="-22" y="13" type="line"/>
		</contour>
	</outline>
</glyph>
<glyph name="bar" format="2">
	<advance width="270"/>
	<unicode hex="007C"/>
	<outline>
		<contour>
			<point x="59" y="-70" type="line"/>
			<point x="120" y="-70" type="line"/>
			<point x="235" y="750" type="line"/>
			<point x="174" y="750" type="line"/>
		</contour>
	</outline>
</glyph>
<glyph name="braceright" format="1">
  <advance width="300"/>
  <unicode hex="007D"/>
  <outline>
    <contour>
      <point x="13" y="-167"/>
      <point x="110" y="-153"/>
      <point x="150" y="-97" type="curve" smooth="yes"/>
      <point x="163" y="-79"/>
      <point x="169" y="-58"/>
      <point x="173" y="-32" type="curve" smooth="yes"/>
      <point x="179" y="4"/>
      <point x="181" y="75"/>
      <point x="183" y="153" type="curve" smooth="yes"/>
      <point x="184" y="174"/>
      <point x="179" y="199"/>
      <point x="199" y="224" type="curve" smooth="yes"/>
      <point x="211" y="239"/>
      <point x="229" y="250"/>
      <point x="251" y="255" type="curve" smooth="yes"/>
      <point x="280" y="261" type="line"/>
      <point x="283" y="316" type="line"/>
      <point x="274" y="317"/>
      <point x="260" y="319"/>
      <point x="256" y="320" type="curve" smooth="yes"/>
      <point x="232" y="325"/>
      <point x="210" y="339"/>
      <point x="210" y="364" type="curve" smooth="yes"/>
      <point x="210" y="372"/>
      <point x="212" y="385"/>
      <point x="220" y="418" type="curve" smooth="yes"/>
      <point x="235" y="477" type="line" smooth="yes"/>
      <point x="236" y="481"/>
      <point x="245" y="513"/>
      <point x="251" y="539" type="curve" smooth="yes"/>
      <point x="255" y="557"/>
      <point x="258" y="571"/>
      <point x="261" y="592" type="curve" smooth="yes"/>
      <point x="264" y="611"/>
      <point x="267" y="644"/>
      <point x="254" y="671" type="curve" smooth="yes"/>
      <point x="245" y="691"/>
      <point x="228" y="704"/>
      <point x="220" y="709" type="curve" smooth="yes"/>
      <point x="198" y="724"/>
      <point x="154" y="741"/>
      <point x="109" y="750" type="curve"/>
      <point x="93" y="704" type="line"/>
      <point x="134" y="696"/>
      <point x="189" y="679"/>
      <point x="202" y="647" type="curve" smooth="yes"/>
      <point x="206" y="637"/>
      <point x="205" y="627"/>
      <point x="202" y="608" type="curve" smooth="yes"/>
      <point x="197" y="577"/>
      <point x="194" y="567"/>
      <point x="193" y="562" type="curve" smooth="yes"/>
      <point x="177" y="501" type="line" smooth="yes"/>
      <point x="166" y="459"/>
      <point x="149" y="394"/>
      <point x="149" y="365" type="curve" smooth="yes"/>
      <point x="149" y="343"/>
      <point x="158" y="329"/>
      <point x="170" y="314" type="curve" smooth="yes"/>
      <point x="182" y="299"/>
      <point x="192" y="292"/>
      <point x="202" y="288" type="curve"/>
      <point x="178" y="283"/>
      <point x="152" y="263"/>
      <point x="138" y="239" type="curve" smooth="yes"/>
      <point x="123" y="213"/>
      <point x="122" y="188"/>
      <point x="121" y="147" type="curve" smooth="yes"/>
      <point x="120" y="111"/>
      <point x="117" y="5"/>
      <point x="113" y="-26" type="curve" smooth="yes"/>
      <point x="111" y="-41"/>
      <point x="107" y="-54"/>
      <point x="99" y="-66" type="curve" smooth="yes"/>
      <point x="75" y="-102"/>
      <point x="17" y="-119"/>
      <point x="-28" y="-127" type="curve"/>
      <point x="-16" y="-173" type="line"/>
    </contour>
  </outline>
</glyph>
<glyph name="asciitilde" format="1">
  <advance width="529"/>
  <unicode hex="007E"/>
  <outline>
    <contour>
      <point x="340" y="250" type="line"/>
      <point x="374" y="253"/>
      <point x="410" y="266"/>
      <point x="446" y="293" type="curve"/>
      <point x="415" y="336" type="line"/>
      <point x="386" y="314"/>
      <point x="358" y="303"/>
      <point x="325" y="303" type="curve" smooth="yes"/>
      <point x="271" y="303"/>
      <point x="253" y="336"/>
      <point x="177" y="336" type="curve" smooth="yes"/>
      <point x="132" y="336"/>
      <point x="100" y="324"/>
      <point x="59" y="294" type="curve"/>
      <point x="90" y="251" type="line"/>
      <point x="120" y="274"/>
      <point x="150" y="284"/>
      <point x="179" y="284" type="curve" smooth="yes"/>
      <point x="229" y="284"/>
      <point x="263" y="250"/>
      <point x="326" y="250" type="curve" smooth="yes"/>
    </contour>
  </outline>
</glyph>
<glyph name="cent" format="1">
  <advance width="531"/>
  <unicode hex="00A2"/>
  <outline>
    <contour>
      <point x="275" y="-1" type="line"/>
      <point x="286" y="64" type="line"/>
      <point x="322" y="66"/>
      <point x="352" y="73"/>
      <point x="379" y="81" type="curve" smooth="yes"/>
      <point x="415" y="95"/>
      <point x="442" y="111"/>
      <point x="458" y="121" type="curve"/>
      <point x="435" y="165" type="line"/>
      <point x="395" y="146"/>
      <point x="355" y="122"/>
      <point x="289" y="116" type="curve"/>
      <point x="351" y="531" type="line"/>
      <point x="383" y="526"/>
      <point x="405" y="512"/>
      <point x="417" y="500" type="curve" smooth="yes"/>
      <point x="428" y="485"/>
      <point x="433" y="467"/>
      <point x="433" y="447" type="curve" smooth="yes"/>
      <point x="433" y="442"/>
      <point x="433" y="437"/>
      <point x="432" y="432" type="curve"/>
      <point x="488" y="428" type="line"/>
      <point x="489" y="435"/>
      <point x="490" y="442"/>
      <point x="490" y="449" type="curve" smooth="yes"/>
      <point x="490" y="481"/>
      <point x="478" y="510"/>
      <point x="456" y="531" type="curve" smooth="yes"/>
      <point x="437" y="554"/>
      <point x="400" y="575"/>
      <point x="354" y="580" type="curve"/>
      <point x="371" y="683" type="line"/>
      <point x="310" y="683" type="line"/>
      <point x="293" y="579" type="line"/>
      <point x="237" y="570"/>
      <point x="187" y="538"/>
      <point x="147" y="492" type="curve" smooth="yes"/>
      <point x="108" y="444"/>
      <point x="85" y="389"/>
      <point x="75" y="319" type="curve" smooth="yes"/>
      <point x="72" y="299"/>
      <point x="71" y="280"/>
      <point x="71" y="262" type="curve" smooth="yes"/>
      <point x="71" y="216"/>
      <point x="80" y="177"/>
      <point x="98" y="147" type="curve" smooth="yes"/>
      <point x="120" y="102"/>
      <point x="163" y="75"/>
      <point x="225" y="66" type="curve"/>
      <point x="214" y="-1" type="line"/>
    </contour>
    <contour>
      <point x="193" y="129"/>
      <point x="165" y="146"/>
      <point x="145" y="177" type="curve" smooth="yes"/>
      <point x="131" y="201"/>
      <point x="125" y="226"/>
      <point x="125" y="258" type="curve" smooth="yes"/>
      <point x="125" y="271"/>
      <point x="126" y="284"/>
      <point x="128" y="299" type="curve" smooth="yes"/>
      <point x="135" y="351"/>
      <point x="154" y="403"/>
      <point x="182" y="444" type="curve" smooth="yes"/>
      <point x="204" y="480"/>
      <point x="243" y="518"/>
      <point x="289" y="529" type="curve"/>
      <point x="230" y="120" type="line"/>
    </contour>
  </outline>
</glyph>
<glyph name="sterling" format="1">
  <advance width="571"/>
  <unicode hex="00A3"/>
  <outline>
    <contour>
      <point x="122" y="-8"/>
      <point x="136" y="16"/>
      <point x="145" y="32" type="curve"/>
      <point x="216" y="10" type="line" smooth="yes"/>
      <point x="235" y="3"/>
      <point x="254" y="-3"/>
      <point x="277" y="-7" type="curve" smooth="yes"/>
      <point x="295" y="-11"/>
      <point x="318" y="-13"/>
      <point x="346" y="-13" type="curve" smooth="yes"/>
      <point x="382" y="-13"/>
      <point x="422" y="0"/>
      <point x="464" y="29" type="curve"/>
      <point x="443" y="80" type="line"/>
      <point x="402" y="54"/>
      <point x="371" y="43"/>
      <point x="335" y="43" type="curve" smooth="yes"/>
      <point x="322" y="43"/>
      <point x="306" y="45"/>
      <point x="286" y="48" type="curve" smooth="yes"/>
      <point x="267" y="52"/>
      <point x="260" y="53"/>
      <point x="165" y="88" type="curve"/>
      <point x="171" y="106" type="line"/>
      <point x="173" y="124" type="line"/>
      <point x="198" y="303" type="line"/>
      <point x="352" y="303" type="line"/>
      <point x="360" y="360" type="line"/>
      <point x="206" y="360" type="line"/>
      <point x="224" y="483" type="line" smooth="yes"/>
      <point x="229" y="523"/>
      <point x="246" y="555"/>
      <point x="272" y="576" type="curve" smooth="yes"/>
      <point x="296" y="599"/>
      <point x="332" y="611"/>
      <point x="378" y="611" type="curve" smooth="yes"/>
      <point x="416" y="611"/>
      <point x="446" y="606"/>
      <point x="493" y="593" type="curve"/>
      <point x="498" y="644" type="line"/>
      <point x="463" y="657"/>
      <point x="425" y="663"/>
      <point x="384" y="663" type="curve" smooth="yes"/>
      <point x="325" y="663"/>
      <point x="270" y="651"/>
      <point x="226" y="616" type="curve" smooth="yes"/>
      <point x="189" y="581"/>
      <point x="170" y="538"/>
      <point x="163" y="487" type="curve" smooth="yes"/>
      <point x="145" y="360" type="line"/>
      <point x="63" y="360" type="line"/>
      <point x="55" y="303" type="line"/>
      <point x="137" y="303" type="line"/>
      <point x="113" y="126" type="line" smooth="yes"/>
      <point x="108" y="97"/>
      <point x="101" y="74"/>
      <point x="92" y="57" type="curve" smooth="yes"/>
      <point x="83" y="39"/>
      <point x="74" y="25"/>
      <point x="65" y="11" type="curve"/>
      <point x="114" y="-14" type="line"/>
    </contour>
  </outline>
</glyph>
<glyph name="currency" format="1">
  <advance width="702"/>
  <unicode hex="00A4"/>
  <outline>
    <contour>
      <point x="180" y="96" type="line"/>
      <point x="197" y="84"/>
      <point x="215" y="74"/>
      <point x="237" y="67" type="curve" smooth="yes"/>
      <point x="257" y="59"/>
      <point x="282" y="55"/>
      <point x="312" y="55" type="curve" smooth="yes"/>
      <point x="338" y="55"/>
      <point x="362" y="58"/>
      <point x="386" y="65" type="curve" smooth="yes"/>
      <point x="408" y="74"/>
      <point x="430" y="84"/>
      <point x="449" y="96" type="curve"/>
      <point x="542" y="-10" type="line"/>
      <point x="590" y="34" type="line"/>
      <point x="500" y="137" type="line"/>
      <point x="519" y="156"/>
      <point x="533" y="178"/>
      <point x="544" y="201" type="curve" smooth="yes"/>
      <point x="556" y="226"/>
      <point x="564" y="254"/>
      <point x="568" y="284" type="curve" smooth="yes"/>
      <point x="570" y="300"/>
      <point x="571" y="315"/>
      <point x="571" y="330" type="curve" smooth="yes"/>
      <point x="571" y="372"/>
      <point x="561" y="408"/>
      <point x="542" y="437" type="curve"/>
      <point x="661" y="542" type="line"/>
      <point x="622" y="586" type="line"/>
      <point x="501" y="479" type="line"/>
      <point x="485" y="491"/>
      <point x="466" y="501"/>
      <point x="444" y="508" type="curve" smooth="yes"/>
      <point x="425" y="517"/>
      <point x="399" y="521"/>
      <point x="369" y="521" type="curve" smooth="yes"/>
      <point x="343" y="521"/>
      <point x="319" y="518"/>
      <point x="296" y="511" type="curve" smooth="yes"/>
      <point x="273" y="502"/>
      <point x="252" y="493"/>
      <point x="232" y="481" type="curve"/>
      <point x="140" y="586" type="line"/>
      <point x="93" y="542" type="line"/>
      <point x="182" y="439" type="line"/>
      <point x="163" y="420"/>
      <point x="148" y="398"/>
      <point x="136" y="374" type="curve" smooth="yes"/>
      <point x="125" y="349"/>
      <point x="117" y="321"/>
      <point x="113" y="291" type="curve" smooth="yes"/>
      <point x="111" y="275"/>
      <point x="110" y="261"/>
      <point x="110" y="247" type="curve" smooth="yes"/>
      <point x="110" y="203"/>
      <point x="120" y="167"/>
      <point x="139" y="137" type="curve"/>
      <point x="22" y="34" type="line"/>
      <point x="60" y="-10" type="line"/>
    </contour>
    <contour>
      <point x="289" y="108"/>
      <point x="267" y="112"/>
      <point x="247" y="119" type="curve" smooth="yes"/>
      <point x="229" y="129"/>
      <point x="214" y="141"/>
      <point x="200" y="155" type="curve" smooth="yes"/>
      <point x="189" y="172"/>
      <point x="181" y="191"/>
      <point x="176" y="212" type="curve" smooth="yes"/>
      <point x="174" y="225"/>
      <point x="172" y="238"/>
      <point x="172" y="252" type="curve" smooth="yes"/>
      <point x="172" y="262"/>
      <point x="173" y="273"/>
      <point x="175" y="284" type="curve" smooth="yes"/>
      <point x="179" y="313"/>
      <point x="186" y="338"/>
      <point x="197" y="359" type="curve" smooth="yes"/>
      <point x="209" y="382"/>
      <point x="222" y="402"/>
      <point x="240" y="416" type="curve" smooth="yes"/>
      <point x="257" y="432"/>
      <point x="276" y="445"/>
      <point x="298" y="452" type="curve" smooth="yes"/>
      <point x="319" y="462"/>
      <point x="330" y="467"/>
      <point x="370" y="467" type="curve" smooth="yes"/>
      <point x="418" y="467"/>
      <point x="456" y="452"/>
      <point x="483" y="421" type="curve" smooth="yes"/>
      <point x="501" y="396"/>
      <point x="510" y="365"/>
      <point x="510" y="329" type="curve" smooth="yes"/>
      <point x="510" y="318"/>
      <point x="510" y="306"/>
      <point x="508" y="294" type="curve" smooth="yes"/>
      <point x="504" y="265"/>
      <point x="497" y="240"/>
      <point x="486" y="219" type="curve" smooth="yes"/>
      <point x="474" y="196"/>
      <point x="461" y="176"/>
      <point x="442" y="161" type="curve" smooth="yes"/>
      <point x="426" y="144"/>
      <point x="406" y="131"/>
      <point x="384" y="123" type="curve" smooth="yes"/>
      <point x="364" y="113"/>
      <point x="340" y="108"/>
      <point x="312" y="108" type="curve" smooth="yes"/>
    </contour>
  </outline>
</glyph>
<glyph name="yen" format="1">
  <advance width="625"/>
  <unicode hex="00A5"/>
  <outline>
    <contour>
      <point x="307" y="0" type="line"/>
      <point x="331" y="169" type="line"/>
      <point x="522" y="169" type="line"/>
      <point x="529" y="222" type="line"/>
      <point x="338" y="222" type="line"/>
      <point x="350" y="301" type="line"/>
      <point x="363" y="318" type="line"/>
      <point x="542" y="318" type="line"/>
      <point x="549" y="372" type="line"/>
      <point x="400" y="372" type="line"/>
      <point x="622" y="660" type="line"/>
      <point x="550" y="660" type="line"/>
      <point x="326" y="368" type="line"/>
      <point x="183" y="660" type="line"/>
      <point x="116" y="660" type="line"/>
      <point x="258" y="372" type="line"/>
      <point x="104" y="372" type="line"/>
      <point x="97" y="318" type="line"/>
      <point x="281" y="318" type="line"/>
      <point x="288" y="301" type="line"/>
      <point x="276" y="222" type="line"/>
      <point x="84" y="222" type="line"/>
      <point x="77" y="169" type="line"/>
      <point x="271" y="169" type="line"/>
      <point x="247" y="0" type="line"/>
    </contour>
  </outline>
</glyph>
<glyph name="brokenbar" format="1">
  <advance width="196"/>
  <unicode hex="00A6"/>
  <outline>
    <contour>
      <point x="132" y="380" type="line"/>
      <point x="184" y="750" type="line"/>
      <point x="123" y="750" type="line"/>
      <point x="71" y="380" type="line"/>
    </contour>
    <contour>
      <point x="69" y="-70" type="line"/>
      <point x="121" y="300" type="line"/>
      <point x="60" y="300" type="line"/>
      <point x="8" y="-70" type="line"/>
    </contour>
  </outline>
</glyph>
<glyph name="section" format="1">
  <advance width="399"/>
  <unicode hex="00A7"/>
  <outline>
    <contour>
      <point x="133" y="-57"/>
      <point x="186" y="-40"/>
      <point x="223" y="-19" type="curve" smooth="yes"/>
      <point x="263" y="8"/>
      <point x="288" y="42"/>
      <point x="288" y="94" type="curve" smooth="yes"/>
      <point x="288" y="121"/>
      <point x="280" y="143"/>
      <point x="268" y="162" type="curve"/>
      <point x="289" y="174"/>
      <point x="300" y="182"/>
      <point x="310" y="190" type="curve" smooth="yes"/>
      <point x="335" y="220"/>
      <point x="347" y="267"/>
      <point x="347" y="296" type="curve" smooth="yes"/>
      <point x="347" y="331"/>
      <point x="334" y="356"/>
      <point x="309" y="380" type="curve" smooth="yes"/>
      <point x="283" y="409"/>
      <point x="255" y="424"/>
      <point x="227" y="447" type="curve" smooth="yes"/>
      <point x="207" y="466"/>
      <point x="190" y="486"/>
      <point x="190" y="514" type="curve" smooth="yes"/>
      <point x="190" y="542"/>
      <point x="204" y="568"/>
      <point x="237" y="583" type="curve" smooth="yes"/>
      <point x="255" y="594"/>
      <point x="299" y="609"/>
      <point x="357" y="620" type="curve"/>
      <point x="347" y="673" type="line"/>
      <point x="280" y="663"/>
      <point x="228" y="646"/>
      <point x="191" y="625" type="curve" smooth="yes"/>
      <point x="146" y="596"/>
      <point x="125" y="561"/>
      <point x="125" y="512" type="curve" smooth="yes"/>
      <point x="125" y="485"/>
      <point x="132" y="463"/>
      <point x="145" y="444" type="curve"/>
      <point x="135" y="440"/>
      <point x="119" y="431"/>
      <point x="104" y="416" type="curve" smooth="yes"/>
      <point x="83" y="390"/>
      <point x="67" y="356"/>
      <point x="67" y="309" type="curve" smooth="yes"/>
      <point x="67" y="276"/>
      <point x="80" y="250"/>
      <point x="105" y="226" type="curve" smooth="yes"/>
      <point x="130" y="197"/>
      <point x="158" y="182"/>
      <point x="187" y="159" type="curve" smooth="yes"/>
      <point x="207" y="140"/>
      <point x="224" y="121"/>
      <point x="224" y="93" type="curve" smooth="yes"/>
      <point x="224" y="56"/>
      <point x="205" y="35"/>
      <point x="177" y="23" type="curve" smooth="yes"/>
      <point x="152" y="9"/>
      <point x="106" y="-4"/>
      <point x="57" y="-14" type="curve"/>
      <point x="66" y="-67" type="line"/>
    </contour>
    <contour>
      <point x="208" y="222"/>
      <point x="181" y="236"/>
      <point x="157" y="257" type="curve" smooth="yes"/>
      <point x="141" y="274"/>
      <point x="129" y="290"/>
      <point x="129" y="313" type="curve" smooth="yes"/>
      <point x="129" y="351"/>
      <point x="151" y="384"/>
      <point x="185" y="402" type="curve"/>
      <point x="206" y="384"/>
      <point x="233" y="368"/>
      <point x="257" y="348" type="curve" smooth="yes"/>
      <point x="272" y="332"/>
      <point x="285" y="316"/>
      <point x="285" y="292" type="curve" smooth="yes"/>
      <point x="285" y="268"/>
      <point x="271" y="224"/>
      <point x="229" y="204" type="curve"/>
    </contour>
  </outline>
</glyph>
<glyph name="dieresis" format="1">
  <advance width="444"/>
  <unicode hex="00A8"/>
  <outline>
    <component base="period" xOffset="56" yOffset="601"/>
    <component base="period" xOffset="278" yOffset="601"/>
    <contour>
      <point x="243" y="500" type="move" name="_top"/>
    </contour>
  </outline>
</glyph>
<glyph name="copyright" format="1">
  <advance width="738"/>
  <unicode hex="00A9"/>
  <outline>
    <contour>
      <point x="491" y="-60"/>
      <point x="631" y="64"/>
      <point x="656" y="241" type="curve" smooth="yes"/>
      <point x="658" y="258"/>
      <point x="660" y="275"/>
      <point x="660" y="291" type="curve" smooth="yes"/>
      <point x="660" y="437"/>
      <point x="560" y="549"/>
      <point x="393" y="549" type="curve" smooth="yes"/>
      <point x="218" y="549"/>
      <point x="76" y="429"/>
      <point x="51" y="247" type="curve" smooth="yes"/>
      <point x="48" y="229"/>
      <point x="47" y="211"/>
      <point x="47" y="194" type="curve" smooth="yes"/>
      <point x="47" y="45"/>
      <point x="151" y="-60"/>
      <point x="313" y="-60" type="curve" smooth="yes"/>
    </contour>
    <contour>
      <point x="386" y="90"/>
      <point x="420" y="105"/>
      <point x="453" y="126" type="curve"/>
      <point x="433" y="166" type="line"/>
      <point x="409" y="150"/>
      <point x="382" y="136"/>
      <point x="351" y="136" type="curve" smooth="yes"/>
      <point x="306" y="136"/>
      <point x="279" y="167"/>
      <point x="279" y="219" type="curve" smooth="yes"/>
      <point x="279" y="270"/>
      <point x="308" y="358"/>
      <point x="381" y="358" type="curve" smooth="yes"/>
      <point x="406" y="358"/>
      <point x="434" y="346"/>
      <point x="444" y="341" type="curve"/>
      <point x="448" y="386" type="line"/>
      <point x="435" y="397"/>
      <point x="399" y="404"/>
      <point x="374" y="404" type="curve" smooth="yes"/>
      <point x="294" y="404"/>
      <point x="241" y="330"/>
      <point x="230" y="249" type="curve" smooth="yes"/>
      <point x="229" y="239"/>
      <point x="228" y="229"/>
      <point x="228" y="219" type="curve" smooth="yes"/>
      <point x="228" y="146"/>
      <point x="268" y="90"/>
      <point x="347" y="90" type="curve" smooth="yes"/>
    </contour>
    <contour>
      <point x="181" y="-13"/>
      <point x="100" y="69"/>
      <point x="100" y="193" type="curve" smooth="yes"/>
      <point x="100" y="208"/>
      <point x="102" y="224"/>
      <point x="104" y="241" type="curve" smooth="yes"/>
      <point x="124" y="389"/>
      <point x="241" y="501"/>
      <point x="394" y="501" type="curve" smooth="yes"/>
      <point x="526" y="501"/>
      <point x="606" y="426"/>
      <point x="606" y="296" type="curve" smooth="yes"/>
      <point x="606" y="281"/>
      <point x="605" y="267"/>
      <point x="603" y="252" type="curve" smooth="yes"/>
      <point x="583" y="102"/>
      <point x="467" y="-13"/>
      <point x="313" y="-13" type="curve" smooth="yes"/>
    </contour>
  </outline>
</glyph>
<glyph name="ordfeminine" format="1">
  <advance width="408"/>
  <unicode hex="00AA"/>
  <outline>
    <contour>
      <point x="217" y="398"/>
      <point x="242" y="409"/>
      <point x="263" y="429" type="curve"/>
      <point x="268" y="411"/>
      <point x="282" y="398"/>
      <point x="308" y="398" type="curve" smooth="yes"/>
      <point x="327" y="398"/>
      <point x="339" y="406"/>
      <point x="353" y="422" type="curve"/>
      <point x="318" y="447" type="line"/>
      <point x="315" y="444"/>
      <point x="312" y="441"/>
      <point x="307" y="441" type="curve" smooth="yes"/>
      <point x="304" y="441"/>
      <point x="302" y="444"/>
      <point x="303" y="448" type="curve" smooth="yes"/>
      <point x="334" y="669" type="line"/>
      <point x="292" y="669" type="line" smooth="yes"/>
      <point x="278" y="669"/>
      <point x="249" y="673"/>
      <point x="230" y="673" type="curve" smooth="yes"/>
      <point x="215" y="673"/>
      <point x="199" y="670"/>
      <point x="182" y="664" type="curve" smooth="yes"/>
      <point x="133" y="641"/>
      <point x="90" y="592"/>
      <point x="90" y="519" type="curve" smooth="yes"/>
      <point x="90" y="461"/>
      <point x="118" y="398"/>
      <point x="189" y="398" type="curve" smooth="yes"/>
    </contour>
    <contour>
      <point x="151" y="446"/>
      <point x="136" y="480"/>
      <point x="136" y="515" type="curve" smooth="yes"/>
      <point x="136" y="582"/>
      <point x="183" y="625"/>
      <point x="239" y="625" type="curve" smooth="yes"/>
      <point x="245" y="625"/>
      <point x="248" y="624"/>
      <point x="256" y="624" type="curve" smooth="yes"/>
      <point x="281" y="621" type="line"/>
      <point x="264" y="503" type="line"/>
      <point x="255" y="490" type="line" smooth="yes"/>
      <point x="244" y="473"/>
      <point x="221" y="446"/>
      <point x="187" y="446" type="curve" smooth="yes"/>
    </contour>
  </outline>
</glyph>
<glyph name="guillemetleft" format="2">
	<advance width="539"/>
	<unicode hex="00AB"/>
	<outline>
		<contour>
			<point x="441" y="19" type="line"/>
			<point x="481" y="60" type="line"/>
			<point x="292" y="251" type="line"/>
			<point x="535" y="442" type="line"/>
			<point x="502" y="483" type="line"/>
			<point x="270" y="300" type="line" smooth="yes"/>
			<point x="247" y="281"/>
			<point x="235" y="265"/>
			<point x="234" y="255" type="curve" smooth="yes"/>
			<point x="231" y="239"/>
			<point x="241" y="222"/>
			<point x="260" y="204" type="curve" smooth="yes"/>
		</contour>
		<contour>
			<point x="231" y="19" type="line"/>
			<point x="271" y="60" type="line"/>
			<point x="82" y="251" type="line"/>
			<point x="325" y="442" type="line"/>
			<point x="292" y="483" type="line"/>
			<point x="60" y="300" type="line" smooth="yes"/>
			<point x="37" y="281"/>
			<point x="25" y="265"/>
			<point x="24" y="255" type="curve" smooth="yes"/>
			<point x="21" y="239"/>
			<point x="31" y="222"/>
			<point x="50" y="204" type="curve" smooth="yes"/>
		</contour>
	</outline>
</glyph>
<glyph name="logicalnot" format="1">
  <advance width="486"/>
  <unicode hex="00AC"/>
  <outline>
    <contour>
      <point x="389" y="147" type="line"/>
      <point x="413" y="322" type="line"/>
      <point x="53" y="322" type="line"/>
      <point x="45" y="264" type="line"/>
      <point x="343" y="264" type="line"/>
      <point x="327" y="147" type="line"/>
    </contour>
  </outline>
</glyph>
<glyph name="registered" format="1">
  <advance width="738"/>
  <unicode hex="00AE"/>
  <outline>
    <contour>
      <point x="516" y="117"/>
      <point x="655" y="240"/>
      <point x="681" y="418" type="curve" smooth="yes"/>
      <point x="683" y="435"/>
      <point x="685" y="452"/>
      <point x="685" y="468" type="curve" smooth="yes"/>
      <point x="685" y="614"/>
      <point x="585" y="726"/>
      <point x="418" y="726" type="curve" smooth="yes"/>
      <point x="243" y="726"/>
      <point x="103" y="606"/>
      <point x="75" y="424" type="curve" smooth="yes"/>
      <point x="73" y="407"/>
      <point x="71" y="390"/>
      <point x="71" y="374" type="curve" smooth="yes"/>
      <point x="71" y="224"/>
      <point x="176" y="117"/>
      <point x="339" y="117" type="curve" smooth="yes"/>
    </contour>
    <contour>
      <point x="206" y="164"/>
      <point x="125" y="246"/>
      <point x="125" y="370" type="curve" smooth="yes"/>
      <point x="125" y="385"/>
      <point x="127" y="401"/>
      <point x="129" y="418" type="curve" smooth="yes"/>
      <point x="149" y="566"/>
      <point x="266" y="678"/>
      <point x="419" y="678" type="curve" smooth="yes"/>
      <point x="551" y="678"/>
      <point x="631" y="603"/>
      <point x="631" y="473" type="curve" smooth="yes"/>
      <point x="631" y="458"/>
      <point x="630" y="444"/>
      <point x="628" y="429" type="curve" smooth="yes"/>
      <point x="608" y="281"/>
      <point x="490" y="164"/>
      <point x="338" y="164" type="curve" smooth="yes"/>
    </contour>
    <contour>
      <point x="309" y="240" type="line"/>
      <point x="330" y="389" type="line"/>
      <point x="354" y="389" type="line" smooth="yes"/>
      <point x="395" y="389"/>
      <point x="420" y="370"/>
      <point x="429" y="332" type="curve" smooth="yes"/>
      <point x="447" y="246" type="line"/>
      <point x="496" y="266" type="line"/>
      <point x="471" y="357" type="line" smooth="yes"/>
      <point x="466" y="376"/>
      <point x="455" y="393"/>
      <point x="437" y="400" type="curve"/>
      <point x="477" y="415"/>
      <point x="509" y="452"/>
      <point x="509" y="503" type="curve" smooth="yes"/>
      <point x="509" y="556"/>
      <point x="467" y="593"/>
      <point x="403" y="593" type="curve" smooth="yes"/>
      <point x="382" y="593"/>
      <point x="367" y="588"/>
      <point x="345" y="588" type="curve" smooth="yes"/>
      <point x="310" y="588" type="line"/>
      <point x="304" y="558"/>
      <point x="300" y="529"/>
      <point x="296" y="499" type="curve" smooth="yes"/>
      <point x="272" y="330" type="line"/>
      <point x="261" y="240" type="line"/>
    </contour>
    <contour>
      <point x="352" y="542" type="line"/>
      <point x="375" y="547"/>
      <point x="395" y="547"/>
      <point x="399" y="547" type="curve" smooth="yes"/>
      <point x="437" y="547"/>
      <point x="462" y="532"/>
      <point x="462" y="500" type="curve" smooth="yes"/>
      <point x="462" y="462"/>
      <point x="433" y="429"/>
      <point x="391" y="429" type="curve" smooth="yes"/>
      <point x="335" y="429" type="line"/>
    </contour>
  </outline>
</glyph>
<glyph name="macron" format="2">
	<advance width="442"/>
	<unicode hex="00AF"/>
	<anchor x="241" y="500" name="_top"/>
	<outline>
		<contour>
			<point x="96" y="597" type="line"/>
			<point x="422" y="597" type="line"/>
			<point x="430" y="654" type="line"/>
			<point x="104" y="654" type="line"/>
		</contour>
	</outline>
</glyph>
<glyph name="degree" format="1">
  <advance width="397"/>
  <unicode hex="00B0"/>
  <outline>
    <contour>
      <point x="271" y="396"/>
      <point x="342" y="434"/>
      <point x="355" y="525" type="curve" smooth="yes"/>
      <point x="356" y="534"/>
      <point x="357" y="542"/>
      <point x="357" y="550" type="curve" smooth="yes"/>
      <point x="357" y="620"/>
      <point x="311" y="664"/>
      <point x="239" y="664" type="curve" smooth="yes"/>
      <point x="174" y="664"/>
      <point x="104" y="627"/>
      <point x="91" y="535" type="curve" smooth="yes"/>
      <point x="90" y="526"/>
      <point x="89" y="518"/>
      <point x="89" y="510" type="curve" smooth="yes"/>
      <point x="89" y="439"/>
      <point x="135" y="396"/>
      <point x="206" y="396" type="curve" smooth="yes"/>
    </contour>
    <contour>
      <point x="165" y="445"/>
      <point x="143" y="470"/>
      <point x="143" y="508" type="curve" smooth="yes"/>
      <point x="143" y="566"/>
      <point x="180" y="615"/>
      <point x="239" y="615" type="curve" smooth="yes"/>
      <point x="280" y="615"/>
      <point x="303" y="589"/>
      <point x="303" y="550" type="curve" smooth="yes"/>
      <point x="303" y="490"/>
      <point x="262" y="445"/>
      <point x="206" y="445" type="curve" smooth="yes"/>
    </contour>
  </outline>
</glyph>
<glyph name="plusminus" format="2">
	<advance width="499"/>
	<unicode hex="00B1"/>
	<outline>
		<contour>
			<point x="202" y="107" type="line"/>
			<point x="258" y="107" type="line"/>
			<point x="281" y="268" type="line"/>
			<point x="439" y="268" type="line"/>
			<point x="446" y="319" type="line"/>
			<point x="288" y="319" type="line"/>
			<point x="310" y="479" type="line"/>
			<point x="254" y="479" type="line"/>
			<point x="232" y="319" type="line"/>
			<point x="74" y="319" type="line"/>
			<point x="67" y="268" type="line"/>
			<point x="225" y="268" type="line"/>
		</contour>
		<contour>
			<point x="29" y="0" type="line"/>
			<point x="401" y="0" type="line"/>
			<point x="408" y="52" type="line"/>
			<point x="36" y="52" type="line"/>
		</contour>
	</outline>
</glyph>
<glyph name="acute" format="1">
  <advance width="313"/>
  <unicode hex="00B4"/>
  <outline>
    <contour>
      <point x="298" y="677" type="line"/>
      <point x="269" y="726" type="line"/>
      <point x="95" y="601" type="line"/>
      <point x="113" y="567" type="line"/>
    </contour>
    <contour>
      <point x="108" y="500" type="move" name="_top"/>
    </contour>
  </outline>
</glyph>
<glyph name="micro" format="1">
  <advance width="526"/>
  <unicode hex="00B5"/>
  <outline>
    <contour>
      <point x="28" y="-250" type="line"/>
      <point x="67" y="19" type="line"/>
      <point x="79" y="10"/>
      <point x="93" y="2"/>
      <point x="111" y="-3" type="curve" smooth="yes"/>
      <point x="128" y="-8"/>
      <point x="148" y="-10"/>
      <point x="174" y="-10" type="curve" smooth="yes"/>
      <point x="240" y="-10"/>
      <point x="299" y="21"/>
      <point x="350" y="88" type="curve"/>
      <point x="351" y="70"/>
      <point x="354" y="52"/>
      <point x="361" y="37" type="curve" smooth="yes"/>
      <point x="366" y="20"/>
      <point x="378" y="5"/>
      <point x="392" y="-7" type="curve"/>
      <point x="429" y="24" type="line"/>
      <point x="412" y="45"/>
      <point x="404" y="72"/>
      <point x="404" y="105" type="curve" smooth="yes"/>
      <point x="404" y="116"/>
      <point x="405" y="129"/>
      <point x="407" y="142" type="curve" smooth="yes"/>
      <point x="457" y="498" type="line"/>
      <point x="402" y="498" type="line"/>
      <point x="351" y="146" type="line"/>
      <point x="324" y="114"/>
      <point x="296" y="89"/>
      <point x="269" y="71" type="curve" smooth="yes"/>
      <point x="243" y="52"/>
      <point x="212" y="42"/>
      <point x="174" y="42" type="curve" smooth="yes"/>
      <point x="138" y="42"/>
      <point x="112" y="50"/>
      <point x="96" y="68" type="curve" smooth="yes"/>
      <point x="88" y="82"/>
      <point x="83" y="100"/>
      <point x="83" y="124" type="curve" smooth="yes"/>
      <point x="83" y="135"/>
      <point x="84" y="147"/>
      <point x="86" y="160" type="curve"/>
      <point x="85" y="162" type="line"/>
      <point x="133" y="498" type="line"/>
      <point x="78" y="498" type="line"/>
      <point x="-27" y="-250" type="line"/>
    </contour>
  </outline>
</glyph>
<glyph name="paragraph" format="1">
  <advance width="509"/>
  <unicode hex="00B6"/>
  <outline>
    <contour>
      <point x="251" y="1" type="line"/>
      <point x="329" y="557" type="line"/>
      <point x="411" y="557" type="line"/>
      <point x="333" y="1" type="line"/>
      <point x="391" y="1" type="line"/>
      <point x="477" y="614" type="line"/>
      <point x="397" y="617" type="line"/>
      <point x="350" y="617" type="line" smooth="yes"/>
      <point x="244" y="617"/>
      <point x="168" y="604"/>
      <point x="123" y="577" type="curve" smooth="yes"/>
      <point x="78" y="548"/>
      <point x="52" y="501"/>
      <point x="43" y="435" type="curve" smooth="yes"/>
      <point x="41" y="422"/>
      <point x="40" y="410"/>
      <point x="40" y="398" type="curve" smooth="yes"/>
      <point x="40" y="358"/>
      <point x="51" y="327"/>
      <point x="71" y="305" type="curve" smooth="yes"/>
      <point x="96" y="276"/>
      <point x="149" y="257"/>
      <point x="229" y="250" type="curve"/>
      <point x="192" y="1" type="line"/>
    </contour>
  </outline>
</glyph>
<glyph name="periodcentered" format="1">
  <advance width="250"/>
  <unicode hex="00B7"/>
  <outline>
    <contour>
      <point x="164" y="267"/>
      <point x="195" y="297"/>
      <point x="195" y="332" type="curve" smooth="yes"/>
      <point x="195" y="363"/>
      <point x="172" y="386"/>
      <point x="140" y="386" type="curve" smooth="yes"/>
      <point x="106" y="386"/>
      <point x="75" y="356"/>
      <point x="75" y="321" type="curve" smooth="yes"/>
      <point x="75" y="290"/>
      <point x="98" y="267"/>
      <point x="130" y="267" type="curve" smooth="yes"/>
    </contour>
  </outline>
</glyph>
<glyph name="cedilla" format="2">
	<advance width="259"/>
	<unicode hex="00B8"/>
	<anchor x="55" y="0" name="_bottom"/>
	<outline>
		<contour>
			<point x="14" y="-232" type="line"/>
			<point x="80" y="-232"/>
			<point x="121" y="-179"/>
			<point x="127" y="-131" type="curve" smooth="yes"/>
			<point x="128" y="-126"/>
			<point x="128" y="-120"/>
			<point x="128" y="-115" type="curve" smooth="yes"/>
			<point x="128" y="-78"/>
			<point x="110" y="-44"/>
			<point x="67" y="-39" type="curve"/>
			<point x="86" y="11" type="line"/>
			<point x="25" y="11" type="line"/>
			<point x="2" y="-85" type="line"/>
			<point x="35" y="-85" type="line" smooth="yes"/>
			<point x="64" y="-85"/>
			<point x="76" y="-96"/>
			<point x="76" y="-115" type="curve" smooth="yes"/>
			<point x="76" y="-145"/>
			<point x="52" y="-179"/>
			<point x="18" y="-179" type="curve"/>
		</contour>
	</outline>
</glyph>
<glyph name="ordmasculine" format="1">
  <advance width="411"/>
  <unicode hex="00BA"/>
  <outline>
    <contour>
      <point x="257" y="410"/>
      <point x="290" y="422"/>
      <point x="322" y="450" type="curve" smooth="yes"/>
      <point x="348" y="477"/>
      <point x="374" y="517"/>
      <point x="374" y="580" type="curve" smooth="yes"/>
      <point x="374" y="611"/>
      <point x="365" y="638"/>
      <point x="347" y="657" type="curve" smooth="yes"/>
      <point x="326" y="685"/>
      <point x="293" y="699"/>
      <point x="250" y="699" type="curve" smooth="yes"/>
      <point x="210" y="699"/>
      <point x="175" y="686"/>
      <point x="145" y="660" type="curve" smooth="yes"/>
      <point x="110" y="626"/>
      <point x="93" y="577"/>
      <point x="93" y="536" type="curve" smooth="yes"/>
      <point x="93" y="504"/>
      <point x="101" y="474"/>
      <point x="120" y="453" type="curve" smooth="yes"/>
      <point x="140" y="425"/>
      <point x="174" y="410"/>
      <point x="218" y="410" type="curve" smooth="yes"/>
    </contour>
    <contour>
      <point x="193" y="455"/>
      <point x="171" y="461"/>
      <point x="154" y="481" type="curve" smooth="yes"/>
      <point x="145" y="496"/>
      <point x="141" y="512"/>
      <point x="141" y="531" type="curve" smooth="yes"/>
      <point x="141" y="540"/>
      <point x="142" y="550"/>
      <point x="144" y="560" type="curve" smooth="yes"/>
      <point x="151" y="616"/>
      <point x="195" y="654"/>
      <point x="252" y="654" type="curve" smooth="yes"/>
      <point x="273" y="654"/>
      <point x="296" y="648"/>
      <point x="312" y="630" type="curve" smooth="yes"/>
      <point x="321" y="617"/>
      <point x="327" y="601"/>
      <point x="327" y="580" type="curve" smooth="yes"/>
      <point x="327" y="574"/>
      <point x="327" y="568"/>
      <point x="326" y="562" type="curve" smooth="yes"/>
      <point x="321" y="531"/>
      <point x="309" y="504"/>
      <point x="289" y="486" type="curve" smooth="yes"/>
      <point x="269" y="464"/>
      <point x="241" y="455"/>
      <point x="214" y="455" type="curve" smooth="yes"/>
    </contour>
  </outline>
</glyph>
<glyph name="guillemetright" format="1">
  <advance width="539"/>
  <unicode hex="00BB"/>
  <outline>
    <contour>
      <point x="479" y="202" type="line" smooth="yes"/>
      <point x="505" y="224"/>
      <point x="516" y="241"/>
      <point x="516" y="251" type="curve" smooth="yes"/>
      <point x="516" y="265"/>
      <point x="506" y="281"/>
      <point x="490" y="298" type="curve" smooth="yes"/>
      <point x="309" y="483" type="line"/>
      <point x="268" y="442" type="line"/>
      <point x="457" y="251" type="line"/>
      <point x="214" y="60" type="line"/>
      <point x="248" y="19" type="line"/>
    </contour>
    <contour>
      <point x="269" y="202" type="line" smooth="yes"/>
      <point x="295" y="224"/>
      <point x="306" y="242"/>
      <point x="306" y="251" type="curve" smooth="yes"/>
      <point x="306" y="266"/>
      <point x="296" y="282"/>
      <point x="280" y="298" type="curve" smooth="yes"/>
      <point x="99" y="483" type="line"/>
      <point x="58" y="442" type="line"/>
      <point x="247" y="251" type="line"/>
      <point x="4" y="60" type="line"/>
      <point x="38" y="19" type="line"/>
    </contour>
  </outline>
</glyph>
<glyph name="AE" format="2">
	<advance width="905"/>
	<unicode hex="00C6"/>
	<anchor x="527" y="682" name="top"/>
	<outline>
		<contour>
			<point x="-13" y="0" type="line"/>
			<point x="62" y="0" type="line"/>
			<point x="211" y="227" type="line"/>
			<point x="402" y="227" type="line"/>
			<point x="370" y="0" type="line"/>
			<point x="838" y="0" type="line"/>
			<point x="846" y="57" type="line"/>
			<point x="439" y="57" type="line"/>
			<point x="478" y="333" type="line"/>
			<point x="795" y="333" type="line"/>
			<point x="803" y="390" type="line"/>
			<point x="486" y="390" type="line"/>
			<point x="519" y="627" type="line"/>
			<point x="906" y="627" type="line"/>
			<point x="914" y="684" type="line"/>
			<point x="442" y="684" type="line"/>
		</contour>
		<contour>
			<point x="246" y="284" type="line"/>
			<point x="442" y="587" type="line"/>
			<point x="457" y="623" type="line"/>
			<point x="410" y="284" type="line"/>
		</contour>
	</outline>
</glyph>
<glyph name="multiply" format="2">
	<advance width="489"/>
	<unicode hex="00D7"/>
	<outline>
		<contour>
			<point x="72" y="75" type="line"/>
			<point x="242" y="225" type="line"/>
			<point x="371" y="76" type="line"/>
			<point x="418" y="119" type="line"/>
			<point x="290" y="268" type="line"/>
			<point x="451" y="410" type="line"/>
			<point x="414" y="451" type="line"/>
			<point x="252" y="308" type="line"/>
			<point x="130" y="451" type="line"/>
			<point x="83" y="408" type="line"/>
			<point x="205" y="265" type="line"/>
			<point x="35" y="116" type="line"/>
		</contour>
	</outline>
</glyph>
<glyph name="Thorn" format="1">
  <advance width="531"/>
  <unicode hex="00DE"/>
  <outline>
    <contour>
      <point x="111" y="0" type="line"/>
      <point x="182" y="509" type="line"/>
      <point x="321" y="509" type="line" smooth="yes"/>
      <point x="404" y="509"/>
      <point x="452" y="469"/>
      <point x="452" y="391" type="curve" smooth="yes"/>
      <point x="452" y="381"/>
      <point x="452" y="371"/>
      <point x="450" y="360" type="curve" smooth="yes"/>
      <point x="434" y="243"/>
      <point x="347" y="191"/>
      <point x="244" y="191" type="curve" smooth="yes"/>
      <point x="226" y="191"/>
      <point x="207" y="193"/>
      <point x="187" y="196" type="curve"/>
      <point x="184" y="141" type="line"/>
      <point x="196" y="139"/>
      <point x="215" y="137"/>
      <point x="241" y="137" type="curve" smooth="yes"/>
      <point x="374" y="137"/>
      <point x="487" y="199"/>
      <point x="508" y="348" type="curve" smooth="yes"/>
      <point x="510" y="362"/>
      <point x="511" y="376"/>
      <point x="511" y="389" type="curve" smooth="yes"/>
      <point x="511" y="492"/>
      <point x="449" y="557"/>
      <point x="344" y="563" type="curve"/>
      <point x="190" y="563" type="line"/>
      <point x="207" y="684" type="line"/>
      <point x="146" y="684" type="line"/>
      <point x="50" y="0" type="line"/>
    </contour>
  </outline>
</glyph>
<glyph name="germandbls" format="1">
  <advance width="518"/>
  <unicode hex="00DF"/>
  <outline>
    <contour>
      <point x="38" y="-250" type="line"/>
      <point x="73" y="-2" type="line"/>
      <point x="79" y="-2" type="line"/>
      <point x="163" y="-9"/>
      <point x="186" y="-10"/>
      <point x="205" y="-10" type="curve" smooth="yes"/>
      <point x="316" y="-10"/>
      <point x="414" y="30"/>
      <point x="432" y="154" type="curve" smooth="yes"/>
      <point x="433" y="165"/>
      <point x="434" y="176"/>
      <point x="434" y="186" type="curve" smooth="yes"/>
      <point x="434" y="226"/>
      <point x="423" y="261"/>
      <point x="400" y="286" type="curve" smooth="yes"/>
      <point x="359" y="335"/>
      <point x="282" y="348"/>
      <point x="282" y="412" type="curve" smooth="yes"/>
      <point x="282" y="416"/>
      <point x="282" y="420"/>
      <point x="283" y="424" type="curve" smooth="yes"/>
      <point x="295" y="507"/>
      <point x="392" y="504"/>
      <point x="406" y="604" type="curve" smooth="yes"/>
      <point x="407" y="611"/>
      <point x="407" y="618"/>
      <point x="407" y="624" type="curve" smooth="yes"/>
      <point x="407" y="689"/>
      <point x="362" y="734"/>
      <point x="279" y="734" type="curve" smooth="yes"/>
      <point x="151" y="734"/>
      <point x="106" y="625"/>
      <point x="88" y="496" type="curve" smooth="yes"/>
      <point x="-17" y="-250" type="line"/>
    </contour>
    <contour>
      <point x="144" y="42"/>
      <point x="101" y="47"/>
      <point x="78" y="50" type="curve"/>
      <point x="142" y="495" type="line" smooth="yes"/>
      <point x="156" y="588"/>
      <point x="185" y="682"/>
      <point x="278" y="682" type="curve" smooth="yes"/>
      <point x="320" y="682"/>
      <point x="350" y="662"/>
      <point x="350" y="621" type="curve" smooth="yes"/>
      <point x="350" y="617"/>
      <point x="350" y="613"/>
      <point x="349" y="608" type="curve" smooth="yes"/>
      <point x="338" y="525"/>
      <point x="246" y="533"/>
      <point x="231" y="428" type="curve" smooth="yes"/>
      <point x="230" y="420"/>
      <point x="229" y="413"/>
      <point x="229" y="406" type="curve" smooth="yes"/>
      <point x="229" y="326"/>
      <point x="300" y="316"/>
      <point x="348" y="268" type="curve" smooth="yes"/>
      <point x="370" y="243"/>
      <point x="380" y="218"/>
      <point x="380" y="187" type="curve" smooth="yes"/>
      <point x="380" y="179"/>
      <point x="380" y="170"/>
      <point x="378" y="161" type="curve" smooth="yes"/>
      <point x="366" y="75"/>
      <point x="310" y="42"/>
      <point x="190" y="42" type="curve" smooth="yes"/>
    </contour>
  </outline>
</glyph>
<glyph name="aacute" format="1">
  <advance width="561"/>
  <unicode hex="00E1"/>
  <outline>
    <component base="a"/>
    <component base="acutecomb" xOffset="274" yOffset="8"/>
    <contour>
      <point x="63" y="501" type="move" name="_top"/>
    </contour>
  </outline>
</glyph>
<glyph name="ae" format="1">
  <advance width="826"/>
  <unicode hex="00E6"/>
  <outline>
    <contour>
      <point x="214" y="-10"/>
      <point x="257" y="2"/>
      <point x="291" y="22" type="curve" smooth="yes"/>
      <point x="337" y="53"/>
      <point x="350" y="90"/>
      <point x="358" y="113" type="curve"/>
      <point x="370" y="66"/>
      <point x="390" y="42"/>
      <point x="418" y="24" type="curve" smooth="yes"/>
      <point x="447" y="2"/>
      <point x="481" y="-10"/>
      <point x="539" y="-10" type="curve" smooth="yes"/>
      <point x="575" y="-10"/>
      <point x="605" y="-6"/>
      <point x="642" y="5" type="curve" smooth="yes"/>
      <point x="675" y="18"/>
      <point x="701" y="30"/>
      <point x="728" y="47" type="curve"/>
      <point x="706" y="91" type="line"/>
      <point x="682" y="79"/>
      <point x="652" y="66"/>
      <point x="625" y="58" type="curve" smooth="yes"/>
      <point x="596" y="47"/>
      <point x="571" y="42"/>
      <point x="540" y="42" type="curve" smooth="yes"/>
      <point x="486" y="42"/>
      <point x="454" y="56"/>
      <point x="430" y="80" type="curve" smooth="yes"/>
      <point x="405" y="110"/>
      <point x="398" y="148"/>
      <point x="399" y="198" type="curve"/>
      <point x="519" y="200" type="line" smooth="yes"/>
      <point x="546" y="200"/>
      <point x="577" y="203"/>
      <point x="604" y="208" type="curve" smooth="yes"/>
      <point x="657" y="219"/>
      <point x="702" y="243"/>
      <point x="731" y="280" type="curve" smooth="yes"/>
      <point x="749" y="307"/>
      <point x="760" y="335"/>
      <point x="760" y="374" type="curve" smooth="yes"/>
      <point x="760" y="412"/>
      <point x="745" y="443"/>
      <point x="719" y="465" type="curve" smooth="yes"/>
      <point x="690" y="494"/>
      <point x="644" y="508"/>
      <point x="594" y="508" type="curve" smooth="yes"/>
      <point x="552" y="508"/>
      <point x="523" y="498"/>
      <point x="491" y="480" type="curve" smooth="yes"/>
      <point x="464" y="461"/>
      <point x="437" y="438"/>
      <point x="412" y="400" type="curve"/>
      <point x="409" y="431"/>
      <point x="397" y="457"/>
      <point x="375" y="476" type="curve" smooth="yes"/>
      <point x="356" y="496"/>
      <point x="328" y="508"/>
      <point x="276" y="508" type="curve" smooth="yes"/>
      <point x="236" y="508"/>
      <point x="208" y="501"/>
      <point x="178" y="491" type="curve" smooth="yes"/>
      <point x="144" y="477"/>
      <point x="118" y="462"/>
      <point x="95" y="445" type="curve"/>
      <point x="119" y="401" type="line"/>
      <point x="141" y="417"/>
      <point x="169" y="431"/>
      <point x="192" y="438" type="curve" smooth="yes"/>
      <point x="211" y="446"/>
      <point x="246" y="456"/>
      <point x="280" y="456" type="curve" smooth="yes"/>
      <point x="307" y="456"/>
      <point x="332" y="450"/>
      <point x="349" y="430" type="curve" smooth="yes"/>
      <point x="358" y="416"/>
      <point x="363" y="399"/>
      <point x="363" y="376" type="curve" smooth="yes"/>
      <point x="363" y="365"/>
      <point x="362" y="352"/>
      <point x="360" y="338" type="curve" smooth="yes"/>
      <point x="352" y="280" type="line"/>
      <point x="253" y="280" type="line" smooth="yes"/>
      <point x="191" y="280"/>
      <point x="97" y="266"/>
      <point x="50" y="205" type="curve" smooth="yes"/>
      <point x="35" y="184"/>
      <point x="22" y="155"/>
      <point x="22" y="110" type="curve" smooth="yes"/>
      <point x="22" y="73"/>
      <point x="35" y="46"/>
      <point x="56" y="28" type="curve" smooth="yes"/>
      <point x="80" y="3"/>
      <point x="122" y="-10"/>
      <point x="169" y="-10" type="curve" smooth="yes"/>
    </contour>
    <contour>
      <point x="122" y="42"/>
      <point x="78" y="52"/>
      <point x="78" y="107" type="curve" smooth="yes"/>
      <point x="78" y="113"/>
      <point x="78" y="119"/>
      <point x="79" y="125" type="curve" smooth="yes"/>
      <point x="85" y="165"/>
      <point x="104" y="195"/>
      <point x="142" y="210" type="curve" smooth="yes"/>
      <point x="171" y="224"/>
      <point x="213" y="229"/>
      <point x="250" y="229" type="curve" smooth="yes"/>
      <point x="345" y="229" type="line"/>
      <point x="338" y="179" type="line" smooth="yes"/>
      <point x="333" y="140"/>
      <point x="311" y="102"/>
      <point x="279" y="79" type="curve" smooth="yes"/>
      <point x="247" y="53"/>
      <point x="205" y="42"/>
      <point x="163" y="42" type="curve" smooth="yes"/>
    </contour>
    <contour>
      <point x="410" y="299"/>
      <point x="433" y="353"/>
      <point x="469" y="393" type="curve" smooth="yes"/>
      <point x="498" y="429"/>
      <point x="541" y="459"/>
      <point x="601" y="459" type="curve" smooth="yes"/>
      <point x="654" y="459"/>
      <point x="703" y="435"/>
      <point x="703" y="376" type="curve" smooth="yes"/>
      <point x="703" y="343"/>
      <point x="692" y="310"/>
      <point x="661" y="288" type="curve" smooth="yes"/>
      <point x="628" y="261"/>
      <point x="571" y="252"/>
      <point x="522" y="252" type="curve" smooth="yes"/>
      <point x="403" y="250" type="line"/>
    </contour>
    <contour>
      <point x="433" y="502" type="move" name="top"/>
    </contour>
  </outline>
</glyph>
<glyph name="eth" format="1">
  <advance width="598"/>
  <unicode hex="00F0"/>
  <outline>
    <contour>
      <point x="389" y="-10"/>
      <point x="484" y="86"/>
      <point x="507" y="252" type="curve" smooth="yes"/>
      <point x="509" y="269"/>
      <point x="511" y="284"/>
      <point x="511" y="301" type="curve" smooth="yes"/>
      <point x="511" y="352"/>
      <point x="498" y="416"/>
      <point x="465" y="588" type="curve"/>
      <point x="563" y="619" type="line"/>
      <point x="556" y="674" type="line"/>
      <point x="453" y="644" type="line"/>
      <point x="430" y="748" type="line"/>
      <point x="369" y="730" type="line"/>
      <point x="395" y="626" type="line"/>
      <point x="300" y="596" type="line"/>
      <point x="307" y="541" type="line"/>
      <point x="406" y="571" type="line"/>
      <point x="419" y="497" type="line"/>
      <point x="386" y="503"/>
      <point x="344" y="508"/>
      <point x="311" y="508" type="curve" smooth="yes"/>
      <point x="165" y="508"/>
      <point x="62" y="397"/>
      <point x="41" y="250" type="curve" smooth="yes"/>
      <point x="39" y="233"/>
      <point x="37" y="217"/>
      <point x="37" y="201" type="curve" smooth="yes"/>
      <point x="37" y="78"/>
      <point x="110" y="-10"/>
      <point x="247" y="-10" type="curve" smooth="yes"/>
    </contour>
    <contour>
      <point x="147" y="42"/>
      <point x="95" y="104"/>
      <point x="95" y="202" type="curve" smooth="yes"/>
      <point x="95" y="217"/>
      <point x="96" y="232"/>
      <point x="98" y="248" type="curve" smooth="yes"/>
      <point x="116" y="375"/>
      <point x="194" y="455"/>
      <point x="333" y="455" type="curve" smooth="yes"/>
      <point x="372" y="455"/>
      <point x="390" y="448"/>
      <point x="434" y="442" type="curve"/>
      <point x="447" y="381"/>
      <point x="452" y="336"/>
      <point x="452" y="297" type="curve" smooth="yes"/>
      <point x="452" y="279"/>
      <point x="451" y="263"/>
      <point x="449" y="247" type="curve" smooth="yes"/>
      <point x="432" y="126"/>
      <point x="363" y="42"/>
      <point x="246" y="42" type="curve" smooth="yes"/>
    </contour>
  </outline>
</glyph>
<glyph name="divide" format="1">
  <advance width="490"/>
  <unicode hex="00F7"/>
  <outline>
    <contour>
      <point x="419" y="268" type="line"/>
      <point x="426" y="319" type="line"/>
      <point x="54" y="319" type="line"/>
      <point x="47" y="268" type="line"/>
    </contour>
    <component base="period" xOffset="120" yOffset="105"/>
    <component base="period" xOffset="162" yOffset="404"/>
  </outline>
</glyph>
<glyph name="oslash" format="1">
  <advance width="555"/>
  <unicode hex="00F8"/>
  <outline>
    <contour>
      <point x="129" y="18" type="line"/>
      <point x="162" y="-1"/>
      <point x="201" y="-11"/>
      <point x="244" y="-11" type="curve" smooth="yes"/>
      <point x="366" y="-11"/>
      <point x="502" y="75"/>
      <point x="527" y="247" type="curve" smooth="yes"/>
      <point x="529" y="262"/>
      <point x="530" y="277"/>
      <point x="530" y="292" type="curve" smooth="yes"/>
      <point x="530" y="355"/>
      <point x="510" y="410"/>
      <point x="468" y="450" type="curve"/>
      <point x="503" y="489" type="line"/>
      <point x="456" y="519" type="line"/>
      <point x="426" y="480" type="line"/>
      <point x="396" y="498"/>
      <point x="353" y="508"/>
      <point x="310" y="508" type="curve" smooth="yes"/>
      <point x="163" y="508"/>
      <point x="51" y="396"/>
      <point x="30" y="250" type="curve" smooth="yes"/>
      <point x="28" y="235"/>
      <point x="27" y="220"/>
      <point x="27" y="205" type="curve" smooth="yes"/>
      <point x="27" y="142"/>
      <point x="46" y="85"/>
      <point x="87" y="47" type="curve"/>
      <point x="54" y="9" type="line"/>
      <point x="101" y="-21" type="line"/>
    </contour>
    <contour>
      <point x="94" y="118"/>
      <point x="83" y="156"/>
      <point x="83" y="200" type="curve" smooth="yes"/>
      <point x="83" y="213"/>
      <point x="84" y="227"/>
      <point x="86" y="241" type="curve" smooth="yes"/>
      <point x="104" y="373"/>
      <point x="196" y="456"/>
      <point x="320" y="456" type="curve" smooth="yes"/>
      <point x="358" y="456"/>
      <point x="379" y="448"/>
      <point x="394" y="435" type="curve"/>
      <point x="118" y="90" type="line"/>
    </contour>
    <contour>
      <point x="218" y="41"/>
      <point x="189" y="46"/>
      <point x="162" y="58" type="curve"/>
      <point x="439" y="408" type="line"/>
      <point x="463" y="381"/>
      <point x="475" y="343"/>
      <point x="475" y="299" type="curve" smooth="yes"/>
      <point x="475" y="287"/>
      <point x="474" y="274"/>
      <point x="472" y="261" type="curve" smooth="yes"/>
      <point x="451" y="118"/>
      <point x="349" y="41"/>
      <point x="245" y="41" type="curve" smooth="yes"/>
    </contour>
    <contour>
      <point x="307" y="500" type="move" name="top"/>
    </contour>
  </outline>
</glyph>
<glyph name="thorn" format="1">
  <advance width="542"/>
  <unicode hex="00FE"/>
  <outline>
    <contour>
      <point x="38" y="-249" type="line"/>
      <point x="75" y="0" type="line"/>
      <point x="110" y="-5"/>
      <point x="163" y="-9"/>
      <point x="195" y="-9" type="curve" smooth="yes"/>
      <point x="349" y="-9"/>
      <point x="450" y="100"/>
      <point x="471" y="248" type="curve" smooth="yes"/>
      <point x="473" y="265"/>
      <point x="475" y="282"/>
      <point x="475" y="299" type="curve" smooth="yes"/>
      <point x="475" y="415"/>
      <point x="415" y="509"/>
      <point x="290" y="509" type="curve" smooth="yes"/>
      <point x="235" y="509"/>
      <point x="173" y="490"/>
      <point x="127" y="427" type="curve"/>
      <point x="142" y="504"/>
      <point x="161" y="626"/>
      <point x="175" y="724" type="curve"/>
      <point x="120" y="726" type="line"/>
      <point x="-17" y="-249" type="line"/>
    </contour>
    <contour>
      <point x="176" y="43"/>
      <point x="159" y="44"/>
      <point x="78" y="52" type="curve"/>
      <point x="119" y="327" type="line"/>
      <point x="139" y="407"/>
      <point x="218" y="457"/>
      <point x="291" y="457" type="curve" smooth="yes"/>
      <point x="378" y="457"/>
      <point x="417" y="384"/>
      <point x="417" y="296" type="curve" smooth="yes"/>
      <point x="417" y="281"/>
      <point x="416" y="265"/>
      <point x="414" y="250" type="curve" smooth="yes"/>
      <point x="397" y="130"/>
      <point x="323" y="43"/>
      <point x="189" y="43" type="curve" smooth="yes"/>
    </contour>
  </outline>
</glyph>
<glyph name="Hbar" format="2">
	<advance width="703"/>
	<unicode hex="0126"/>
	<outline>
		<contour>
			<point x="140" y="501" type="line"/>
			<point x="668" y="501" type="line"/>
			<point x="675" y="553" type="line"/>
			<point x="147" y="553" type="line"/>
		</contour>
		<component base="H"/>
	</outline>
</glyph>
<glyph name="imacron" format="2">
	<advance width="226"/>
	<unicode hex="012B"/>
	<outline>
		<contour>
			<point x="10" y="627" type="line"/>
			<point x="256" y="627" type="line"/>
			<point x="264" y="684" type="line"/>
			<point x="18" y="684" type="line"/>
		</contour>
		<component base="idotless" xOffset="-1"/>
	</outline>
</glyph>
<glyph name="idotless" format="1">
  <advance width="227"/>
  <unicode hex="0131"/>
  <outline>
    <contour>
      <point x="146" y="-10"/>
      <point x="173" y="4"/>
      <point x="194" y="29" type="curve"/>
      <point x="150" y="61" type="line"/>
      <point x="142" y="50"/>
      <point x="128" y="45"/>
      <point x="117" y="45" type="curve" smooth="yes"/>
      <point x="102" y="45"/>
      <point x="88" y="57"/>
      <point x="91" y="78" type="curve" smooth="yes"/>
      <point x="150" y="500" type="line"/>
      <point x="95" y="500" type="line"/>
      <point x="36" y="82" type="line" smooth="yes"/>
      <point x="35" y="78"/>
      <point x="35" y="74"/>
      <point x="35" y="69" type="curve" smooth="yes"/>
      <point x="35" y="25"/>
      <point x="69" y="-10"/>
      <point x="117" y="-10" type="curve" smooth="yes"/>
    </contour>
    <contour>
      <point x="158" y="0" type="move" name="ogonek"/>
    </contour>
    <contour>
      <point x="123" y="500" type="move" name="top"/>
    </contour>
  </outline>
</glyph>
<glyph name="kgreenlandic" format="2">
	<advance width="558"/>
	<unicode hex="0138"/>
	<outline>
		<contour>
			<point x="31" y="1" type="line"/>
			<point x="86" y="1" type="line"/>
			<point x="114" y="201" type="line"/>
			<point x="285" y="201" type="line"/>
			<point x="360" y="44" type="line" smooth="yes"/>
			<point x="371" y="17"/>
			<point x="398" y="1"/>
			<point x="431" y="1" type="curve" smooth="yes"/>
			<point x="476" y="1"/>
			<point x="519" y="35"/>
			<point x="529" y="85" type="curve"/>
			<point x="474" y="92" type="line"/>
			<point x="472" y="76"/>
			<point x="455" y="58"/>
			<point x="431" y="58" type="curve" smooth="yes"/>
			<point x="423" y="58"/>
			<point x="416" y="61"/>
			<point x="410" y="68" type="curve"/>
			<point x="340" y="215" type="line"/>
			<point x="354" y="222"/>
			<point x="370" y="231"/>
			<point x="382" y="238" type="curve" smooth="yes"/>
			<point x="440" y="281"/>
			<point x="456" y="344"/>
			<point x="456" y="385" type="curve" smooth="yes"/>
			<point x="456" y="459"/>
			<point x="402" y="509"/>
			<point x="313" y="509" type="curve" smooth="yes"/>
			<point x="241" y="509"/>
			<point x="185" y="476"/>
			<point x="143" y="411" type="curve"/>
			<point x="158" y="511" type="line"/>
			<point x="103" y="511" type="line"/>
		</contour>
		<contour>
			<point x="123" y="251" type="line"/>
			<point x="127" y="277"/>
			<point x="133" y="302"/>
			<point x="145" y="328" type="curve" smooth="yes"/>
			<point x="179" y="406"/>
			<point x="240" y="460"/>
			<point x="313" y="460" type="curve" smooth="yes"/>
			<point x="362" y="460"/>
			<point x="404" y="434"/>
			<point x="404" y="382" type="curve" smooth="yes"/>
			<point x="404" y="306"/>
			<point x="339" y="253"/>
			<point x="237" y="253" type="curve" smooth="yes"/>
		</contour>
	</outline>
</glyph>
<glyph name="Lslash" format="1">
  <advance width="512"/>
  <unicode hex="0141"/>
  <outline>
    <contour>
      <point x="245" y="427" type="line"/>
      <point x="254" y="491" type="line"/>
      <point x="12" y="332" type="line"/>
      <point x="3" y="269" type="line"/>
    </contour>
    <component base="L"/>
  </outline>
</glyph>
<glyph name="lslash" format="1">
  <advance width="255"/>
  <unicode hex="0142"/>
  <outline>
    <contour>
      <point x="238" y="435" type="line"/>
      <point x="247" y="499" type="line"/>
      <point x="40" y="380" type="line"/>
      <point x="31" y="317" type="line"/>
    </contour>
    <component base="l" xOffset="41"/>
  </outline>
</glyph>
<glyph name="Eng" format="2">
	<advance width="794"/>
	<unicode hex="014A"/>
	<outline>
		<contour>
			<point x="548" y="-200" type="curve" smooth="yes"/>
			<point x="598" y="-200"/>
			<point x="640" y="-162"/>
			<point x="647" y="-112" type="curve" smooth="yes"/>
			<point x="701" y="271" type="line"/>
			<point x="646" y="271" type="line"/>
			<point x="592" y="-108" type="line" smooth="yes"/>
			<point x="589" y="-128"/>
			<point x="571" y="-145"/>
			<point x="548" y="-145" type="curve" smooth="yes"/>
			<point x="538" y="-145"/>
			<point x="531" y="-141"/>
			<point x="525" y="-131" type="curve"/>
			<point x="477" y="-159" type="line"/>
			<point x="491" y="-186"/>
			<point x="516" y="-200"/>
		</contour>
		<component base="N"/>
	</outline>
</glyph>
<glyph name="eng" format="1">
  <advance width="499"/>
  <unicode hex="014B"/>
  <outline>
    <contour>
      <point x="355" y="-200"/>
      <point x="397" y="-162"/>
      <point x="404" y="-112" type="curve" smooth="yes"/>
      <point x="458" y="271" type="line"/>
      <point x="403" y="271" type="line"/>
      <point x="349" y="-108" type="line" smooth="yes"/>
      <point x="346" y="-128"/>
      <point x="328" y="-145"/>
      <point x="305" y="-145" type="curve" smooth="yes"/>
      <point x="295" y="-145"/>
      <point x="288" y="-141"/>
      <point x="282" y="-131" type="curve"/>
      <point x="234" y="-159" type="line"/>
      <point x="248" y="-186"/>
      <point x="273" y="-200"/>
      <point x="305" y="-200" type="curve" smooth="yes"/>
    </contour>
    <component base="n.ss02" xOffset="-15"/>
  </outline>
</glyph>
<glyph name="oe" format="1">
  <advance width="956"/>
  <unicode hex="0153"/>
  <outline>
    <contour>
      <point x="346" y="-10"/>
      <point x="430" y="29"/>
      <point x="486" y="121" type="curve"/>
      <point x="502" y="40"/>
      <point x="560" y="-10"/>
      <point x="668" y="-10" type="curve" smooth="yes"/>
      <point x="732" y="-10"/>
      <point x="796" y="8"/>
      <point x="857" y="47" type="curve"/>
      <point x="835" y="91" type="line"/>
      <point x="781" y="64"/>
      <point x="731" y="42"/>
      <point x="666" y="42" type="curve" smooth="yes"/>
      <point x="571" y="42"/>
      <point x="526" y="91"/>
      <point x="529" y="198" type="curve"/>
      <point x="648" y="200" type="line" smooth="yes"/>
      <point x="760" y="200"/>
      <point x="871" y="238"/>
      <point x="887" y="350" type="curve" smooth="yes"/>
      <point x="888" y="358"/>
      <point x="889" y="366"/>
      <point x="889" y="374" type="curve" smooth="yes"/>
      <point x="889" y="460"/>
      <point x="818" y="508"/>
      <point x="728" y="508" type="curve" smooth="yes"/>
      <point x="633" y="508"/>
      <point x="563" y="452"/>
      <point x="521" y="369" type="curve"/>
      <point x="496" y="457"/>
      <point x="425" y="508"/>
      <point x="323" y="508" type="curve" smooth="yes"/>
      <point x="175" y="508"/>
      <point x="62" y="399"/>
      <point x="41" y="251" type="curve" smooth="yes"/>
      <point x="39" y="236"/>
      <point x="38" y="221"/>
      <point x="38" y="207" type="curve" smooth="yes"/>
      <point x="38" y="78"/>
      <point x="121" y="-10"/>
      <point x="257" y="-10" type="curve" smooth="yes"/>
    </contour>
    <contour>
      <point x="153" y="42"/>
      <point x="94" y="110"/>
      <point x="94" y="209" type="curve" smooth="yes"/>
      <point x="94" y="221"/>
      <point x="95" y="233"/>
      <point x="97" y="246" type="curve" smooth="yes"/>
      <point x="115" y="368"/>
      <point x="202" y="456"/>
      <point x="323" y="456" type="curve" smooth="yes"/>
      <point x="424" y="456"/>
      <point x="485" y="393"/>
      <point x="485" y="294" type="curve" smooth="yes"/>
      <point x="485" y="282"/>
      <point x="484" y="269"/>
      <point x="482" y="256" type="curve" smooth="yes"/>
      <point x="465" y="135"/>
      <point x="379" y="42"/>
      <point x="256" y="42" type="curve" smooth="yes"/>
    </contour>
    <contour>
      <point x="547" y="348"/>
      <point x="621" y="459"/>
      <point x="732" y="459" type="curve" smooth="yes"/>
      <point x="781" y="459"/>
      <point x="832" y="436"/>
      <point x="832" y="378" type="curve" smooth="yes"/>
      <point x="832" y="372"/>
      <point x="832" y="366"/>
      <point x="831" y="360" type="curve" smooth="yes"/>
      <point x="820" y="282"/>
      <point x="748" y="252"/>
      <point x="651" y="252" type="curve" smooth="yes"/>
      <point x="533" y="250" type="line"/>
    </contour>
    <contour>
      <point x="443" y="0" type="move" name="top"/>
    </contour>
  </outline>
</glyph>
<glyph name="longs" format="1">
  <advance width="199"/>
  <unicode hex="017F"/>
  <outline>
    <contour>
      <point x="55" y="-260" type="line"/>
      <point x="162" y="497" type="line" smooth="yes"/>
      <point x="174" y="584"/>
      <point x="203" y="650"/>
      <point x="288" y="650" type="curve" smooth="yes"/>
      <point x="316" y="650"/>
      <point x="341" y="643"/>
      <point x="355" y="615" type="curve"/>
      <point x="401" y="654" type="line"/>
      <point x="377" y="687"/>
      <point x="340" y="702"/>
      <point x="286" y="702" type="curve" smooth="yes"/>
      <point x="160" y="702"/>
      <point x="124" y="617"/>
      <point x="102" y="464" type="curve" smooth="yes"/>
      <point x="0" y="-260" type="line"/>
    </contour>
  </outline>
</glyph>
<glyph name="florin" format="1">
  <advance width="507"/>
  <unicode hex="0192"/>
  <outline>
    <contour>
      <point x="74" y="-245"/>
      <point x="94" y="-242"/>
      <point x="114" y="-237" type="curve" smooth="yes"/>
      <point x="131" y="-231"/>
      <point x="147" y="-221"/>
      <point x="161" y="-209" type="curve" smooth="yes"/>
      <point x="175" y="-194"/>
      <point x="186" y="-176"/>
      <point x="195" y="-154" type="curve" smooth="yes"/>
      <point x="205" y="-130"/>
      <point x="212" y="-102"/>
      <point x="216" y="-68" type="curve" smooth="yes"/>
      <point x="276" y="358" type="line"/>
      <point x="448" y="358" type="line"/>
      <point x="456" y="413" type="line"/>
      <point x="284" y="413" type="line"/>
      <point x="296" y="499" type="line" smooth="yes"/>
      <point x="302" y="543"/>
      <point x="315" y="576"/>
      <point x="332" y="595" type="curve" smooth="yes"/>
      <point x="348" y="616"/>
      <point x="371" y="627"/>
      <point x="397" y="627" type="curve" smooth="yes"/>
      <point x="446" y="626" type="line" smooth="yes"/>
      <point x="466" y="625"/>
      <point x="485" y="625"/>
      <point x="505" y="625" type="curve"/>
      <point x="510" y="675" type="line"/>
      <point x="493" y="677" type="line"/>
      <point x="464" y="680" type="line"/>
      <point x="428" y="682" type="line"/>
      <point x="392" y="682" type="line" smooth="yes"/>
      <point x="369" y="682"/>
      <point x="348" y="679"/>
      <point x="331" y="674" type="curve" smooth="yes"/>
      <point x="313" y="666"/>
      <point x="299" y="655"/>
      <point x="285" y="640" type="curve" smooth="yes"/>
      <point x="273" y="623"/>
      <point x="262" y="602"/>
      <point x="255" y="578" type="curve" smooth="yes"/>
      <point x="246" y="549"/>
      <point x="239" y="516"/>
      <point x="234" y="476" type="curve" smooth="yes"/>
      <point x="225" y="413" type="line"/>
      <point x="112" y="413" type="line"/>
      <point x="104" y="358" type="line"/>
      <point x="217" y="358" type="line"/>
      <point x="158" y="-64" type="line" smooth="yes"/>
      <point x="151" y="-111"/>
      <point x="138" y="-145"/>
      <point x="120" y="-163" type="curve" smooth="yes"/>
      <point x="103" y="-182"/>
      <point x="81" y="-192"/>
      <point x="56" y="-192" type="curve" smooth="yes"/>
      <point x="14" y="-191" type="line"/>
      <point x="-9" y="-189" type="line"/>
      <point x="-16" y="-238" type="line"/>
      <point x="6" y="-242" type="line" smooth="yes"/>
      <point x="18" y="-244"/>
      <point x="32" y="-245"/>
      <point x="54" y="-245" type="curve" smooth="yes"/>
    </contour>
  </outline>
</glyph>
<glyph name="ohorn" format="1">
  <advance width="555"/>
  <unicode hex="01A1"/>
  <outline>
    <component base="o"/>
    <component base="horncomb" xOffset="542" yOffset="-199"/>
    <contour>
      <point x="340" y="500" type="move" name="top"/>
    </contour>
    <contour>
      <point x="270" y="0" type="move" name="bottom"/>
    </contour>
  </outline>
</glyph>
<glyph name="Dz" format="1">
  <advance width="1229"/>
  <unicode hex="01F2"/>
  <outline>
    <component base="D"/>
    <component base="z" xOffset="780"/>
    <contour>
      <point x="729" y="684" type="move" name="top"/>
    </contour>
  </outline>
</glyph>
<glyph name="jdotless" format="1">
  <advance width="195"/>
  <unicode hex="0237"/>
  <outline>
    <contour>
      <point x="17" y="-260"/>
      <point x="59" y="-222"/>
      <point x="66" y="-172" type="curve" smooth="yes"/>
      <point x="160" y="501" type="line"/>
      <point x="105" y="501" type="line"/>
      <point x="11" y="-168" type="line" smooth="yes"/>
      <point x="8" y="-188"/>
      <point x="-10" y="-205"/>
      <point x="-33" y="-205" type="curve" smooth="yes"/>
      <point x="-43" y="-205"/>
      <point x="-50" y="-201"/>
      <point x="-56" y="-191" type="curve"/>
      <point x="-104" y="-219" type="line"/>
      <point x="-90" y="-246"/>
      <point x="-65" y="-260"/>
      <point x="-33" y="-260" type="curve" smooth="yes"/>
    </contour>
    <contour>
      <point x="132" y="500" type="move" name="top"/>
    </contour>
  </outline>
</glyph>
<glyph name="apostrophemod" format="1">
  <advance width="210"/>
  <unicode hex="02BC"/>
  <outline>
    <contour>
      <point x="127" y="467"/>
      <point x="148" y="489"/>
      <point x="162" y="516" type="curve" smooth="yes"/>
      <point x="176" y="545"/>
      <point x="185" y="572"/>
      <point x="189" y="600" type="curve" smooth="yes"/>
      <point x="198" y="660" type="line" smooth="yes"/>
      <point x="200" y="677"/>
      <point x="186" y="695"/>
      <point x="167" y="695" type="curve" smooth="yes"/>
      <point x="148" y="695"/>
      <point x="136" y="683"/>
      <point x="134" y="664" type="curve" smooth="yes"/>
      <point x="126" y="604" type="line" smooth="yes"/>
      <point x="118" y="551"/>
      <point x="99" y="511"/>
      <point x="68" y="484" type="curve"/>
      <point x="100" y="449" type="line"/>
    </contour>
  </outline>
</glyph>
<glyph name="circumflex" format="2">
	<advance width="420"/>
	<unicode hex="02C6"/>
	<anchor x="229" y="500" name="_top"/>
	<outline>
		<contour>
			<point x="95" y="565" type="line"/>
			<point x="164" y="565" type="line"/>
			<point x="258" y="654" type="line"/>
			<point x="325" y="565" type="line"/>
			<point x="391" y="565" type="line"/>
			<point x="287" y="707" type="line"/>
			<point x="238" y="707" type="line"/>
		</contour>
	</outline>
</glyph>
<glyph name="caron" format="2">
	<advance width="400"/>
	<unicode hex="02C7"/>
	<anchor x="220" y="500" name="_top"/>
	<outline>
		<contour>
			<point x="209" y="595" type="line"/>
			<point x="258" y="595" type="line"/>
			<point x="402" y="737" type="line"/>
			<point x="332" y="737" type="line"/>
			<point x="239" y="648" type="line"/>
			<point x="171" y="737" type="line"/>
			<point x="106" y="737" type="line"/>
		</contour>
	</outline>
</glyph>
<glyph name="breve" format="2">
	<advance width="414"/>
	<unicode hex="02D8"/>
	<anchor x="228" y="500" name="_top"/>
	<outline>
		<contour>
			<point x="245" y="592" type="curve" smooth="yes"/>
			<point x="330" y="592"/>
			<point x="386" y="638"/>
			<point x="401" y="727" type="curve"/>
			<point x="341" y="731" type="line"/>
			<point x="332" y="677"/>
			<point x="302" y="646"/>
			<point x="246" y="646" type="curve" smooth="yes"/>
			<point x="191" y="646"/>
			<point x="174" y="676"/>
			<point x="178" y="727" type="curve"/>
			<point x="118" y="731" type="line"/>
			<point x="117" y="724"/>
			<point x="117" y="717"/>
			<point x="117" y="710" type="curve" smooth="yes"/>
			<point x="117" y="640"/>
			<point x="159" y="592"/>
		</contour>
	</outline>
</glyph>
<glyph name="dotaccent" format="1">
  <advance width="177"/>
  <unicode hex="02D9"/>
  <outline>
    <component base="period" xOffset="33" yOffset="607"/>
    <contour>
      <point x="74" y="500" type="move" name="_top"/>
    </contour>
  </outline>
</glyph>
<glyph name="ring" format="1">
  <advance width="314"/>
  <unicode hex="02DA"/>
  <outline>
    <contour>
      <point x="251" y="547"/>
      <point x="300" y="593"/>
      <point x="300" y="666" type="curve" smooth="yes"/>
      <point x="300" y="719"/>
      <point x="267" y="753"/>
      <point x="209" y="753" type="curve" smooth="yes"/>
      <point x="141" y="753"/>
      <point x="97" y="704"/>
      <point x="97" y="633" type="curve" smooth="yes"/>
      <point x="97" y="581"/>
      <point x="129" y="547"/>
      <point x="186" y="547" type="curve" smooth="yes"/>
    </contour>
    <contour>
      <point x="161" y="590"/>
      <point x="145" y="604"/>
      <point x="145" y="631" type="curve" smooth="yes"/>
      <point x="145" y="677"/>
      <point x="172" y="709"/>
      <point x="211" y="709" type="curve" smooth="yes"/>
      <point x="237" y="709"/>
      <point x="253" y="693"/>
      <point x="253" y="666" type="curve" smooth="yes"/>
      <point x="253" y="624"/>
      <point x="224" y="590"/>
      <point x="185" y="590" type="curve" smooth="yes"/>
    </contour>
    <contour>
      <point x="177" y="500" type="move" name="_top"/>
    </contour>
  </outline>
</glyph>
